<svg width="91" height="33" viewBox="0 0 91 33" fill="none" xmlns="http://www.w3.org/2000/svg">
<path d="M8.14466 17.2625C8.22055 17.7242 8.20871 18.8106 8.10915 20.5215C8.03805 21.6765 8.00176 22.4629 8.00026 22.8809L8.45264 22.6771C8.96154 22.536 9.25464 22.6047 9.33194 22.8834C9.38235 23.0652 9.29882 23.258 9.08134 23.4618C8.8605 23.6536 8.49564 23.82 7.98674 23.9612C8.00427 25.7179 8.12453 27.257 8.34751 28.5783C8.57049 29.8996 8.55475 30.5956 8.3003 30.6662C8.0822 30.7267 7.89444 30.6613 7.73701 30.4701C7.58833 30.2634 7.4535 29.942 7.3325 29.5058C7.19134 28.9969 7.08658 28.3604 7.0182 27.5965C6.98132 27.2283 6.93593 26.1709 6.88205 24.4242L3.57887 26.417C3.15569 27.761 2.78871 29.0959 2.47794 30.4217C2.17928 31.7442 1.83609 32.4593 1.44836 32.5668C1.26661 32.6172 1.14716 32.5394 1.09003 32.3335C0.979116 31.9336 1.14909 30.9469 1.59995 29.3734C1.78798 28.7341 1.98037 28.087 2.17715 27.4322C1.84523 27.6939 1.58198 27.8974 1.38741 28.0427C1.20159 28.1725 1.04204 28.2559 0.908761 28.2929C0.697383 28.3776 0.558085 28.2988 0.490865 28.0565C0.410202 27.7657 0.697415 27.3663 1.3525 26.8584C1.87024 26.4669 2.39404 26.0736 2.9239 25.6787C3.5627 23.7008 4.34619 21.7741 5.27437 19.8985C6.24297 17.9335 6.96961 16.8838 7.45427 16.7493C7.79354 16.6552 8.02366 16.8263 8.14466 17.2625ZM7.03654 18.8421C6.6588 19.2209 6.13682 20.1617 5.4706 21.6644C4.89061 22.9606 4.47561 24.0282 4.22559 24.8675L6.89557 23.3439C6.87283 22.9327 6.92067 21.882 7.03907 20.192C7.09116 19.4859 7.09031 19.036 7.03654 18.8421Z" fill="white"/>
<path d="M13.3663 23.7608C13.2587 23.3731 13.0777 23.2145 12.8233 23.2851C12.5688 23.3557 12.2951 23.6861 12.0021 24.2763C11.8371 24.6222 11.638 25.1276 11.4049 25.7925C11.2754 26.4547 11.1503 27.1093 11.0296 27.756C11.2718 27.9237 11.4899 27.9807 11.6838 27.9269C12.1078 27.8093 12.5371 27.24 12.9716 26.2191C13.4028 25.1861 13.5343 24.3667 13.3663 23.7608ZM14.9257 16.7516C14.882 16.5941 14.7814 16.5372 14.6239 16.5809C14.1877 16.7019 13.6677 17.603 13.064 19.2841C12.591 20.5897 12.2709 21.6702 12.1037 22.5256C12.4667 22.0465 12.7495 21.6549 12.9522 21.3507C13.2283 20.9349 13.559 20.3864 13.9443 19.7054C14.2419 19.1792 14.4976 18.6189 14.7112 18.0247C14.9214 17.4183 14.9929 16.994 14.9257 16.7516ZM11.0513 23.6005L11.0543 23.5409C11.2417 22.7582 11.449 21.9765 11.6761 21.1958C12.4693 18.4573 13.311 16.5993 14.2012 15.6216C14.3911 15.4124 14.5917 15.2654 14.8031 15.1806C15.215 15.0664 15.4983 15.2879 15.6529 15.8453C15.8579 16.5844 15.6859 17.6108 15.1369 18.9244C14.6849 19.9763 14.0417 21.0681 13.2073 22.1999C13.42 22.167 13.6038 22.1943 13.7586 22.2819C13.9443 22.387 14.0825 22.6031 14.1733 22.9302C14.4354 23.8753 14.3081 25.0394 13.7914 26.4223C13.2746 27.8053 12.683 28.5892 12.0166 28.7741C11.641 28.8783 11.2806 28.8021 10.9354 28.5455C10.9373 28.7407 10.8797 28.9329 10.7625 29.122C10.6454 29.3111 10.5141 29.4258 10.3687 29.4661C10.2044 29.4856 10.0887 29.3741 10.0215 29.1318C9.97584 28.7791 10.0751 28.0078 10.3192 26.8179L10.8319 24.503C10.9033 24.1961 10.9765 23.8953 11.0513 23.6005Z" fill="white"/>
<path d="M21.2902 20.6429C20.9324 21.5642 20.6272 22.3927 20.3745 23.1283C20.0936 23.95 20.022 24.6092 20.1598 25.106C20.2236 25.3362 20.411 25.5648 20.7219 25.7918C20.8867 25.9157 20.9793 26.014 20.9994 26.0867C21.0398 26.2321 21.0205 26.3744 20.9417 26.5137C20.8629 26.653 20.7508 26.7428 20.6054 26.7832C20.3752 26.847 20.1161 26.7362 19.8281 26.4507C19.5489 26.1497 19.3539 25.7993 19.2429 25.3995C19.1488 25.0602 19.1163 24.6843 19.1454 24.2717C19.1866 23.8558 19.3096 23.3584 19.5145 22.7796C18.9347 23.606 18.5214 24.4448 18.2748 25.2962C17.9216 26.5163 17.6602 27.1499 17.4906 27.197C17.2846 27.2541 17.1447 27.1494 17.0707 26.8828C16.9766 26.5436 16.9886 25.9987 17.1066 25.2483C17.2085 24.5806 17.3521 23.9927 17.5374 23.4846C17.095 23.9597 16.7421 24.5926 16.4786 25.3833C16.2468 26.1001 16.1116 26.8357 16.073 27.5902C16.0809 27.9012 15.9604 28.0781 15.7113 28.1211C15.4448 28.1951 15.2611 28.0503 15.1602 27.6868C15.0569 26.7498 15.1684 25.5054 15.4948 23.9534C15.8299 22.3859 16.1731 21.5534 16.5245 21.4559C16.7789 21.3854 16.9263 21.4228 16.9666 21.5682C16.9935 21.6651 16.9032 22.0686 16.6956 22.7786C16.5433 23.2645 16.4557 23.6542 16.4327 23.9476C16.8051 23.3615 17.1819 22.7677 17.5631 22.1661C17.881 21.7125 18.1914 21.4438 18.4943 21.3597C18.7366 21.2925 18.8779 21.3316 18.9183 21.477C18.9586 21.6224 18.8898 21.9155 18.712 22.3563C18.5112 22.8557 18.4105 23.1511 18.4098 23.2426C18.5929 23.0092 18.8751 22.5916 19.2563 21.99C19.8456 21.0567 20.328 20.5379 20.7036 20.4337C20.8854 20.3833 21.021 20.3783 21.1105 20.4187C21.2 20.4591 21.2599 20.5339 21.2902 20.6429Z" fill="white"/>
<path d="M25.5974 19.3111C25.8562 20.2441 25.7656 21.4698 25.3255 22.9881C24.8659 24.577 24.2726 25.4724 23.5456 25.674C23.2184 25.7648 22.9414 25.7307 22.7147 25.5717C22.4967 25.3973 22.3339 25.1163 22.2263 24.7285C21.944 23.7107 22.0387 22.5231 22.5103 21.1657C23.0157 19.6945 23.7348 18.8296 24.6678 18.5708C24.898 18.5069 25.0912 18.5447 25.2473 18.684C25.4034 18.8234 25.5201 19.0325 25.5974 19.3111ZM24.846 19.9893C24.7788 19.747 24.6361 19.6561 24.418 19.7166C24.0909 19.8073 23.7306 20.3901 23.3371 21.4648C22.9403 22.5275 22.8225 23.3496 22.9838 23.9312C23.1082 24.3795 23.3158 24.5633 23.6066 24.4827C23.8368 24.4188 24.0405 24.2123 24.2176 23.863C24.4069 23.5104 24.5063 23.0457 24.516 22.4688C24.3221 22.5226 24.2221 22.4916 24.2161 22.3758C24.1825 22.2547 24.2405 22.0168 24.39 21.6621C24.6258 21.1008 24.7579 20.7771 24.7862 20.691C24.859 20.4359 24.8789 20.202 24.846 19.9893Z" fill="white"/>
<path d="M30.8058 18.5319C31.0041 19.2468 30.8536 20.2802 30.3544 21.6323C29.7952 23.1445 29.0976 24.0165 28.2615 24.2484C27.9465 24.3358 27.6678 24.2957 27.4256 24.128C27.141 25.6423 26.9362 27.1149 26.8112 28.5458C26.6861 29.9768 26.4721 30.7342 26.1692 30.8182C25.9754 30.872 25.8448 30.7777 25.7776 30.5354C25.6566 30.0992 25.6859 29.2168 25.8654 27.8882C25.9754 27.0617 26.1831 25.8819 26.4886 24.3487C26.6235 23.6589 26.7644 22.9674 26.9114 22.2741C27.2236 20.7652 27.5418 19.2546 27.8661 17.7423C27.9942 17.2631 28.1612 16.995 28.3672 16.9378C28.6337 16.8639 28.7939 16.9239 28.8477 17.1177C28.888 17.2631 28.8697 17.5031 28.7929 17.8376C28.7605 18.0031 28.6796 18.2996 28.5503 18.7269C28.9274 18.2048 29.3219 17.8866 29.7339 17.7723C30.267 17.6244 30.6243 17.8776 30.8058 18.5319ZM29.8687 19.105C29.7947 18.8385 29.673 18.7287 29.5033 18.7758C29.1277 18.8799 28.7685 19.3254 28.4256 20.1121C28.0914 20.8833 27.7895 21.9588 27.5198 23.3385C27.69 23.4348 27.8782 23.4544 28.0841 23.3973C28.6173 23.2494 29.0866 22.6364 29.4922 21.5583C29.8944 20.468 30.0199 19.6503 29.8687 19.105Z" fill="white"/>
<path d="M38.9539 18.1704C39.0816 18.6308 38.8481 19.3415 38.2534 20.3024C37.615 21.3408 36.9625 21.9523 36.2961 22.1372C35.8599 22.2582 35.5224 22.2409 35.2835 22.0853C35.0412 21.9177 34.863 21.6278 34.7487 21.2159C34.4429 20.1132 34.6045 18.8614 35.2337 17.4603C35.8224 16.1487 36.4561 15.3987 37.1346 15.2105C37.5223 15.103 37.8002 15.3521 37.9683 15.9579C38.0859 16.382 38.0521 16.8481 37.8668 17.3562C37.6936 17.861 37.4798 18.1486 37.2254 18.2192C37.0315 18.273 36.9094 18.209 36.859 18.0273C36.8321 17.9303 36.9321 17.609 37.1592 17.0632C37.2683 16.798 37.3077 16.6109 37.2775 16.5019C37.2338 16.3444 37.1574 16.2807 37.0484 16.311C36.7455 16.395 36.3825 16.9916 35.9594 18.1006C35.5134 19.2683 35.3643 20.1186 35.5122 20.6518C35.6433 21.1243 35.8966 21.3085 36.2722 21.2043C36.5994 21.1136 36.9357 20.8441 37.2811 20.396C37.665 19.898 37.9738 19.2708 38.2076 18.5144C38.2703 18.223 38.4047 18.0487 38.6107 17.9915C38.7682 17.9479 38.8826 18.0075 38.9539 18.1704Z" fill="white"/>
<path d="M44.1511 14.1842C44.1914 14.3296 44.1418 14.5978 44.0024 14.9888C43.5665 16.1928 43.3421 16.8422 43.3293 16.9371C43.2429 17.3786 43.1836 17.7996 43.1511 18.2001C43.1159 18.7318 43.1437 19.1612 43.2344 19.4884C43.2949 19.7065 43.3834 19.8842 43.4998 20.0216C43.748 20.305 43.8856 20.4952 43.9125 20.5922C43.9797 20.8345 43.9043 20.9859 43.6862 21.0464C43.4681 21.1069 43.2157 21.0203 42.9291 20.7866C42.6424 20.553 42.4436 20.2362 42.3327 19.8364C42.2084 19.3881 42.1591 18.8341 42.1849 18.1745C42.1992 17.6616 42.2512 17.1905 42.3409 16.7611C41.8911 17.3034 41.5405 17.9683 41.2892 18.7557C40.866 20.0997 40.5211 20.8087 40.2546 20.8826C40.0486 20.9397 39.9275 20.8559 39.8912 20.6311C39.8172 20.3645 39.8726 19.788 40.0574 18.9017C40.1471 18.4723 40.2536 17.986 40.377 17.4429C40.7895 15.6843 41.1049 14.7747 41.323 14.7142C41.5895 14.6403 41.7531 14.7124 41.8135 14.9305C41.864 15.1122 41.8278 15.4289 41.7052 15.8805C41.6128 16.2062 41.5266 16.5303 41.4464 16.8526C41.5076 16.7443 41.771 16.3059 42.2364 15.5374C42.7422 14.6794 43.201 14.1933 43.613 14.079C43.9038 13.9983 44.0832 14.0334 44.1511 14.1842Z" fill="white"/>
<path d="M48.9807 13.4905C49.179 14.2053 49.0286 15.2388 48.5293 16.5908C47.9701 18.103 47.2725 18.9751 46.4364 19.207C46.1214 19.2944 45.8428 19.2542 45.6005 19.0865C45.3159 20.6009 45.1111 22.0735 44.9861 23.5044C44.861 24.9353 44.6471 25.6928 44.3441 25.7768C44.1503 25.8306 44.0197 25.7363 43.9525 25.494C43.8315 25.0578 43.8608 24.1754 44.0403 22.8468C44.1503 22.0203 44.3581 20.8405 44.6635 19.3073C44.7984 18.6174 44.9393 17.9259 45.0863 17.2327C45.3985 15.7238 45.7167 14.2132 46.041 12.7009C46.1691 12.2217 46.3361 11.9535 46.5421 11.8964C46.8087 11.8224 46.9688 11.8824 47.0226 12.0763C47.0629 12.2217 47.0447 12.4616 46.9678 12.7961C46.9355 12.9617 46.8546 13.2581 46.7252 13.6855C47.1023 13.1633 47.4968 12.8451 47.9088 12.7308C48.4419 12.5829 48.7993 12.8362 48.9807 13.4905ZM48.0436 14.0636C47.9697 13.797 47.8479 13.6872 47.6782 13.7343C47.3026 13.8385 46.9434 14.2839 46.6005 15.0706C46.2664 15.8419 45.9644 16.9173 45.6947 18.297C45.865 18.3934 46.0531 18.4129 46.2591 18.3558C46.7922 18.2079 47.2615 17.5949 47.6671 16.5168C48.0694 15.4266 48.1949 14.6088 48.0436 14.0636Z" fill="white"/>
<path d="M53.386 11.5639C53.4364 11.7456 53.4444 11.9391 53.41 12.1444C53.4962 12.1727 53.556 12.2474 53.5897 12.3686C53.6569 12.6109 53.6153 13.1901 53.4648 14.1061C53.3144 15.0221 53.2778 15.6194 53.3551 15.8981C53.4661 16.298 53.6871 16.5303 54.0182 16.595C54.3493 16.6597 54.5485 16.8133 54.6157 17.0556C54.646 17.1647 54.621 17.2629 54.5409 17.3504C54.4608 17.4379 54.342 17.5034 54.1844 17.5471C53.8936 17.6278 53.6106 17.5954 53.3354 17.4499C52.9982 17.2694 52.7709 16.9671 52.6532 16.543C52.6331 16.4703 52.6166 16.364 52.6039 16.224C52.6033 16.0806 52.6006 15.9769 52.5959 15.913C52.2724 17.0988 51.7956 17.7791 51.1655 17.9539C50.6082 18.1085 50.1856 17.8082 49.8978 17.0529C49.639 16.1199 49.7454 14.9747 50.2171 13.6173C50.7258 12.1582 51.3982 11.3127 52.2342 11.0808C52.525 11.0002 52.7737 11.003 52.9803 11.0892C53.1836 11.1633 53.3188 11.3215 53.386 11.5639ZM52.8688 12.4511C52.6966 12.1596 52.4893 12.0475 52.247 12.1147C51.8229 12.2323 51.4356 12.8356 51.0852 13.9245C50.7315 15.0013 50.6319 15.8184 50.7865 16.3757C50.8537 16.6181 50.9762 16.7538 51.1539 16.7828C51.4439 16.7936 51.7157 16.3855 51.9691 15.5584C52.269 14.5226 52.5689 13.4869 52.8688 12.4511Z" fill="white"/>
<path d="M58.1824 11.3295C58.0748 10.9418 57.8938 10.7832 57.6394 10.8538C57.3849 10.9244 57.1112 11.2548 56.8182 11.8449C56.6532 12.1908 56.4541 12.6962 56.221 13.3612C56.0915 14.0234 55.9664 14.6779 55.8457 15.3247C56.0879 15.4924 56.306 15.5494 56.4998 15.4956C56.9239 15.378 57.3532 14.8087 57.7877 13.7878C58.2189 12.7548 58.3504 11.9354 58.1824 11.3295ZM59.7418 4.32033C59.6981 4.16281 59.5975 4.1059 59.4399 4.14959C59.0038 4.27059 58.4838 5.17165 57.8801 6.85277C57.4071 8.15837 57.087 9.23888 56.9198 10.0943C57.2828 9.6152 57.5656 9.22357 57.7683 8.91942C58.0444 8.50355 58.3751 7.95512 58.7603 7.2741C59.058 6.74787 59.3137 6.18762 59.5273 5.59337C59.7375 4.98701 59.809 4.56266 59.7418 4.32033ZM55.8674 11.1692L55.8704 11.1096C56.0578 10.3269 56.2651 9.54517 56.4922 8.76448C57.2854 6.02602 58.1271 4.16796 59.0173 3.1903C59.2072 2.98104 59.4078 2.83405 59.6192 2.74932C60.0311 2.63504 60.3144 2.85659 60.469 3.41396C60.674 4.15307 60.502 5.17945 59.953 6.4931C59.501 7.54495 58.8578 8.63679 58.0234 9.7686C58.2361 9.73569 58.4199 9.76302 58.5746 9.85058C58.7604 9.95564 58.8986 10.1718 58.9894 10.4989C59.2515 11.444 59.1242 12.608 58.6075 13.991C58.0907 15.374 57.4991 16.1579 56.8327 16.3428C56.4571 16.447 56.0967 16.3708 55.7515 16.1142C55.7534 16.3094 55.6958 16.5016 55.5786 16.6906C55.4615 16.8797 55.3302 16.9944 55.1848 17.0348C55.0205 17.0542 54.9048 16.9428 54.8376 16.7005C54.7919 16.3478 54.8912 15.5764 55.1353 14.3865L55.648 12.0717C55.7194 11.7648 55.7926 11.4639 55.8674 11.1692Z" fill="white"/>
<path d="M63.5446 8.78515C63.8034 9.71813 63.7128 10.9438 63.2727 12.4621C62.8131 14.051 62.2198 14.9463 61.4928 15.148C61.1657 15.2388 60.8887 15.2047 60.6619 15.0457C60.4439 14.8713 60.2811 14.5903 60.1736 14.2025C59.8913 13.1847 59.9859 11.9971 60.4576 10.6397C60.9629 9.16853 61.6821 8.30355 62.6151 8.04476C62.8453 7.9809 63.0384 8.01866 63.1945 8.15805C63.3506 8.29743 63.4673 8.50646 63.5446 8.78515ZM62.7932 9.46333C62.726 9.221 62.5834 9.13008 62.3653 9.19058C62.0381 9.28133 61.6778 9.86408 61.2843 10.9388C60.8875 12.0015 60.7698 12.8236 60.9311 13.4052C61.0554 13.8535 61.263 14.0373 61.5538 13.9567C61.784 13.8928 61.9877 13.6863 62.1649 13.337C62.3541 12.9844 62.4536 12.5197 62.4632 11.9428C62.2693 11.9966 62.1694 11.9656 62.1634 11.8498C62.1298 11.7287 62.1877 11.4908 62.3373 11.1361C62.5731 10.5748 62.7051 10.2511 62.7334 10.165C62.8062 9.90993 62.8262 9.67604 62.7932 9.46333Z" fill="white"/>
<path d="M67.258 13.0595C66.6164 13.6159 66.1054 13.9142 65.7251 13.9545C65.336 14.0102 65.1089 13.7796 65.0438 13.2626C64.9969 12.8581 65.0169 12.3893 65.1039 11.8563L65.288 10.8265L64.9559 10.8991C64.8434 10.9172 64.727 10.8973 64.6066 10.8394C64.2277 10.6966 64.0027 10.3088 63.9315 9.67607C63.8906 9.3873 63.8998 8.9737 63.9593 8.43526C64.0214 7.76557 64.2228 7.40959 64.5634 7.36731C64.6792 7.36129 64.7485 7.44646 64.7713 7.62282C64.7827 7.71099 64.7732 7.81801 64.7429 7.94386C64.6593 8.25412 64.6414 8.56575 64.6891 8.87875C64.7065 9.0827 64.7552 9.25839 64.8353 9.40582C64.9153 9.55325 65.0055 9.61958 65.1058 9.60481C65.2061 9.59004 65.307 9.48373 65.4087 9.28589C65.5523 8.81546 65.6823 8.41401 65.7989 8.08156C65.9155 7.7491 66.0438 7.5765 66.1838 7.56376C66.2598 7.55571 66.3668 7.56518 66.5048 7.59215C66.6394 7.60701 66.7222 7.74064 66.753 7.99306C66.7893 8.21788 66.5887 9.14127 66.1513 10.7632C65.9403 11.696 65.8472 12.2308 65.8721 12.3674C65.9029 12.6198 66.0247 12.7296 66.2374 12.6967C66.4017 12.6772 66.7518 12.4105 67.2877 11.8964C67.4062 11.7592 67.5355 11.6842 67.6755 11.6714C67.8915 11.6506 68.006 11.7102 68.0187 11.8503C68.0496 12.1027 67.796 12.5057 67.258 13.0595Z" fill="white"/>
<path d="M68.983 10.4084C69.1901 9.32006 69.4839 8.28598 69.8646 7.30612C69.9016 7.2045 69.9525 7.10558 70.0171 7.00935C70.0939 6.90976 70.1868 6.84485 70.2959 6.8146C70.4964 6.78505 70.627 6.87933 70.6875 7.09743C70.7413 7.2913 70.7179 7.51307 70.6176 7.76274C70.4505 8.14836 70.2911 8.77325 70.1393 9.63743C70.1481 9.62195 70.1646 9.61085 70.1888 9.60413C70.5773 9.40504 70.9741 9.23624 71.3793 9.09774C71.5762 8.208 71.8289 7.35496 72.1375 6.53863C72.1779 6.44913 72.2365 6.35458 72.3133 6.255C72.3867 6.14329 72.4779 6.07232 72.5869 6.04207C72.7875 6.01252 72.9181 6.1068 72.9786 6.3249C73.0324 6.51877 73.009 6.74054 72.9087 6.99021C72.7416 7.37583 72.5832 7.98087 72.4335 8.80533C72.4974 8.80064 72.5752 8.79865 72.6667 8.79936C72.7616 8.81218 72.8572 8.85092 72.9534 8.91557C73.1095 9.05495 73.1515 9.20641 73.0794 9.36994C73.0094 9.49376 72.8758 9.5765 72.6785 9.61816C72.5661 9.63629 72.4328 9.67326 72.2787 9.72907C72.0682 11.0402 71.9871 11.9239 72.0354 12.3802C72.0871 12.8487 71.9806 13.1001 71.7161 13.1343C71.6192 13.1612 71.5159 13.1181 71.4062 13.005C71.2932 12.8797 71.2131 12.7323 71.1661 12.5627C71.0148 12.0174 71.0164 11.2471 71.1709 10.2516L70.8327 10.4434C70.4597 10.6512 70.1534 10.8406 69.9137 11.0114C69.7693 12.0432 69.7189 12.7553 69.7625 13.1477C69.8108 13.6041 69.6983 13.8571 69.425 13.9068C69.3281 13.9337 69.2231 13.8845 69.1101 13.7593C68.997 13.6341 68.9187 13.4927 68.875 13.3352C68.7607 12.9232 68.7346 12.3824 68.7968 11.7127C68.7504 11.6864 68.71 11.6585 68.6757 11.6289C68.5949 11.573 68.5465 11.469 68.5304 11.3168C68.5143 11.1647 68.5369 11.0345 68.5982 10.9261C68.679 10.7471 68.8073 10.5745 68.983 10.4084Z" fill="white"/>
<path d="M78.9587 10.1271C79.0125 10.3209 78.8334 10.475 78.4214 10.5893C78.0337 10.6968 77.6817 10.6509 77.3654 10.4516C77.0491 10.2522 76.8322 9.94053 76.7145 9.51645L76.6571 9.23878C76.4314 9.83639 76.2051 10.2906 75.9781 10.6015C75.7512 10.9124 75.5166 11.1014 75.2742 11.1687C75.0198 11.2392 74.7748 11.2028 74.5393 11.0594C74.3037 10.9159 74.1389 10.6745 74.0448 10.3353C73.86 9.66887 73.9414 8.73938 74.2891 7.54681C74.6456 6.33877 75.042 5.67425 75.4782 5.55325C75.7569 5.47595 75.9147 5.50394 75.9517 5.63723C75.9853 5.75839 75.8444 6.21502 75.5292 7.00712C75.1681 7.91631 74.9766 8.66101 74.9549 9.24119C74.9528 9.5158 74.9702 9.71975 75.0072 9.85304C75.0576 10.0348 75.1252 10.1139 75.21 10.0904C75.416 10.0332 75.6652 9.63789 75.9576 8.90434C76.2782 8.08465 76.4956 7.22184 76.6097 6.31593C76.659 5.97604 76.7301 5.71491 76.823 5.53254C76.9281 5.34681 77.0351 5.23882 77.1442 5.20857C77.4229 5.13127 77.616 5.28648 77.7235 5.67422C77.7773 5.86808 77.7661 6.08649 77.69 6.32944C77.5148 6.8739 77.411 7.34636 77.3785 7.74683C77.3582 8.14394 77.39 8.49395 77.474 8.79687C77.5446 9.05132 77.6553 9.26203 77.806 9.42901C77.9654 9.58051 78.134 9.67076 78.3117 9.69977C78.6825 9.76654 78.8982 9.90897 78.9587 10.1271Z" fill="white"/>
<path d="M80.3389 6.04485L80.2418 6.54155C80.5443 5.84435 81.0181 5.10616 81.6632 4.32697C82.3082 3.54778 82.8247 3.10441 83.2124 2.99686C83.4426 2.933 83.5896 3.01618 83.6535 3.2464C83.7006 3.41603 83.4965 3.66836 83.0414 4.00339C82.6852 4.27181 82.4095 4.52445 82.2142 4.76131C82.1339 5.31858 82.0903 5.82001 82.0835 6.26559C82.0887 6.7078 82.1283 7.06219 82.2022 7.32876C82.2896 7.64379 82.4096 7.86494 82.5624 7.99221C82.7239 8.104 82.9076 8.13132 83.1136 8.07419C83.8406 7.87253 84.4235 6.98663 84.8622 5.4165C84.8562 5.30073 84.8872 5.20079 84.9552 5.11668C85.0199 5.02046 85.1007 4.9589 85.1976 4.93201C85.3309 4.89504 85.4177 4.94925 85.458 5.09465C85.5757 5.51873 85.3896 6.23583 84.8999 7.24594C84.3489 8.3644 83.7342 9.01773 83.0557 9.20594C82.6922 9.30677 82.3526 9.21174 82.0371 8.92086C81.7336 8.62662 81.5096 8.21898 81.3651 7.69797C81.308 7.49199 81.2579 7.26447 81.2149 7.01542C81.1719 6.76636 81.1323 6.52942 81.096 6.3046C80.9034 6.64511 80.7081 7.11686 80.5099 7.71987C80.324 8.31952 80.1824 8.86769 80.0853 9.36438C80.0462 9.50571 79.9822 9.62785 79.8933 9.7308C79.8045 9.83375 79.7055 9.90035 79.5964 9.9306C79.2935 10.0146 79.1001 9.90517 79.016 9.60226L79.005 9.35086C79.1272 8.2861 79.2908 7.22942 79.4958 6.18085C79.7212 4.73516 79.9214 3.97499 80.0964 3.90034C80.3475 3.81765 80.5093 3.88367 80.5819 4.0984C80.6411 4.26467 80.6309 4.58068 80.5513 5.04642C80.4974 5.32236 80.4266 5.65518 80.3389 6.04485Z" fill="white"/>
<path d="M89.6116 1.51541C89.662 1.69716 89.67 1.89068 89.6356 2.09595C89.7218 2.12425 89.7816 2.19899 89.8153 2.32015C89.8825 2.56248 89.8409 3.14165 89.6904 4.05766C89.54 4.97366 89.5034 5.571 89.5807 5.84969C89.6917 6.24953 89.9127 6.48182 90.2438 6.54656C90.5749 6.6113 90.7741 6.76483 90.8413 7.00717C90.8716 7.11621 90.8466 7.21447 90.7665 7.30195C90.6864 7.38942 90.5676 7.455 90.4101 7.49869C90.1193 7.57935 89.8362 7.54694 89.561 7.40146C89.2238 7.22095 88.9965 6.91866 88.8788 6.49457C88.8587 6.42187 88.8422 6.31552 88.8295 6.17552C88.8289 6.03215 88.8262 5.9285 88.8215 5.86455C88.498 7.0504 88.0212 7.73071 87.3911 7.90548C86.8338 8.06008 86.4112 7.75973 86.1234 7.00444C85.8646 6.07146 85.971 4.92625 86.4427 3.56883C86.9514 2.10978 87.6238 1.26431 88.4598 1.0324C88.7506 0.951735 88.9993 0.954518 89.2059 1.04075C89.4092 1.11486 89.5444 1.27308 89.6116 1.51541ZM89.0944 2.40268C88.9222 2.11117 88.7149 1.99903 88.4726 2.06625C88.0485 2.18388 87.6612 2.78716 87.3108 3.87607C86.9571 4.95286 86.8575 5.76994 87.0121 6.32731C87.0793 6.56964 87.2018 6.70531 87.3795 6.73432C87.6696 6.74519 87.9413 6.33707 88.1947 5.50995C88.4946 4.47419 88.7945 3.43844 89.0944 2.40268Z" fill="white"/>
</svg>
