<svg width="192" height="68" viewBox="0 0 192 68" fill="none" xmlns="http://www.w3.org/2000/svg">
<path d="M16.4007 35.1888C16.5616 36.1681 16.5365 38.4719 16.3254 42.1004C16.1746 44.5498 16.0976 46.2178 16.0944 47.1042L17.0538 46.672C18.1331 46.3727 18.7547 46.5185 18.9186 47.1095C19.0255 47.495 18.8484 47.9038 18.3872 48.3362C17.9188 48.7428 17.145 49.0958 16.0658 49.3952C16.103 53.1208 16.358 56.3848 16.8309 59.187C17.3038 61.9892 17.2704 63.4652 16.7308 63.6148C16.2682 63.7431 15.87 63.6045 15.5362 63.199C15.2209 62.7607 14.9349 62.079 14.6783 61.1539C14.3789 60.0747 14.1567 58.7249 14.0117 57.1048C13.9335 56.3239 13.8373 54.0814 13.723 50.3772L6.71775 54.6034C5.82028 57.4536 5.04201 60.2847 4.38294 63.0965C3.74956 65.9011 3.02173 67.4175 2.19944 67.6456C1.814 67.7525 1.56069 67.5876 1.43952 67.1507C1.2043 66.3028 1.56478 64.2103 2.52095 60.8733C2.91969 59.5174 3.32773 58.145 3.74504 56.7563C3.04112 57.3113 2.48283 57.7429 2.07019 58.0511C1.67612 58.3264 1.33775 58.5033 1.05509 58.5817C0.606812 58.7614 0.311394 58.5943 0.168838 58.0804C-0.00222937 57.4636 0.60688 56.6167 1.99617 55.5395C3.09417 54.7091 4.20501 53.8752 5.32871 53.0377C6.68345 48.8429 8.34504 44.7568 10.3135 40.7793C12.3677 36.6119 13.9087 34.3857 14.9365 34.1006C15.656 33.901 16.1441 34.2637 16.4007 35.1888ZM14.0506 38.5388C13.2495 39.3422 12.1426 41.3373 10.7297 44.5243C9.49963 47.2731 8.61951 49.5374 8.08928 51.3172L13.7517 48.0861C13.7034 47.214 13.8049 44.9858 14.056 41.4016C14.1665 39.9042 14.1647 38.95 14.0506 38.5388Z" fill="white"/>
<path d="M27.4745 48.9703C27.2464 48.148 26.8625 47.8117 26.3229 47.9614C25.7833 48.1111 25.2028 48.8117 24.5814 50.0634C24.2314 50.7969 23.8092 51.8688 23.3148 53.2789C23.0402 54.6834 22.7749 56.0715 22.5189 57.4432C23.0327 57.7988 23.4951 57.9196 23.9062 57.8055C24.8056 57.5561 25.716 56.3488 26.6375 54.1837C27.5519 51.9929 27.8309 50.2551 27.4745 48.9703ZM30.7816 34.1055C30.6889 33.7714 30.4755 33.6507 30.1415 33.7434C29.2164 34 28.1137 35.9109 26.8335 39.4762C25.8304 42.2451 25.1515 44.5366 24.7969 46.3507C25.5666 45.3346 26.1664 44.5041 26.5963 43.859C27.1819 42.9771 27.8832 41.814 28.7002 40.3697C29.3315 39.2537 29.8737 38.0656 30.3266 36.8053C30.7725 35.5194 30.9241 34.6194 30.7816 34.1055ZM22.5649 48.6302L22.5714 48.5039C22.9688 46.8439 23.4084 45.1861 23.89 43.5305C25.5722 37.7228 27.3573 33.7824 29.2451 31.709C29.6478 31.2652 30.0733 30.9535 30.5215 30.7738C31.3952 30.5314 31.996 31.0013 32.3239 32.1833C32.7587 33.7508 32.3939 35.9275 31.2295 38.7134C30.2709 40.9441 28.9068 43.2597 27.1374 45.66C27.5885 45.5902 27.9781 45.6481 28.3064 45.8338C28.7003 46.0566 28.9935 46.5149 29.1859 47.2088C29.7419 49.2131 29.4719 51.6817 28.376 54.6147C27.2801 57.5477 26.0255 59.2102 24.6122 59.6022C23.8156 59.8232 23.0512 59.6616 22.3192 59.1175C22.3233 59.5314 22.2011 59.9389 21.9526 60.3399C21.7041 60.741 21.4256 60.9842 21.1173 61.0698C20.769 61.111 20.5235 60.8747 20.381 60.3608C20.2842 59.6128 20.4946 57.977 21.0123 55.4535L22.0996 50.5442C22.2512 49.8934 22.4063 49.2554 22.5649 48.6302Z" fill="white"/>
<path d="M44.2791 42.358C43.5204 44.3118 42.8732 46.0688 42.3373 47.6288C41.7414 49.3714 41.5896 50.7696 41.8818 51.8231C42.0173 52.3113 42.4146 52.7961 43.0739 53.2774C43.4236 53.5402 43.6198 53.7486 43.6625 53.9028C43.7481 54.2112 43.7073 54.5131 43.5401 54.8085C43.373 55.1039 43.1353 55.2944 42.8269 55.3799C42.3387 55.5153 41.7892 55.2803 41.1785 54.6749C40.5864 54.0366 40.1727 53.2935 39.9375 52.4455C39.7379 51.726 39.6689 50.9287 39.7306 50.0537C39.818 49.1716 40.0789 48.1168 40.5133 46.8894C39.2837 48.6418 38.4073 50.4208 37.8842 52.2263C37.1353 54.814 36.5809 56.1577 36.2212 56.2575C35.7843 56.3787 35.4875 56.1566 35.3307 55.5913C35.1311 54.8718 35.1565 53.7163 35.4069 52.1248C35.623 50.7089 35.9275 49.4621 36.3204 48.3845C35.3822 49.392 34.6337 50.7342 34.075 52.4112C33.5834 53.9313 33.2966 55.4913 33.2147 57.0915C33.2316 57.7509 32.9759 58.1263 32.4477 58.2174C31.8824 58.3742 31.4928 58.0672 31.279 57.2963C31.0599 55.3092 31.2964 52.67 31.9885 49.3786C32.6991 46.0544 33.427 44.2889 34.1722 44.0822C34.7119 43.9325 35.0244 44.0118 35.11 44.3202C35.167 44.5258 34.9754 45.3814 34.5352 46.8872C34.2122 47.9177 34.0264 48.7441 33.9776 49.3665C34.7674 48.1235 35.5665 46.864 36.3749 45.5882C37.049 44.6264 37.7073 44.0563 38.3497 43.8782C38.8636 43.7356 39.1634 43.8185 39.2489 44.1269C39.3344 44.4352 39.1886 45.0568 38.8114 45.9916C38.3857 47.0506 38.172 47.6772 38.1705 47.8713C38.559 47.3762 39.1574 46.4907 39.9658 45.2148C41.2155 43.2354 42.2387 42.1352 43.0353 41.9143C43.4207 41.8074 43.7083 41.7968 43.8982 41.8825C44.088 41.9682 44.215 42.1267 44.2791 42.358Z" fill="white"/>
<path d="M53.4137 39.5336C53.9626 41.5122 53.7703 44.1115 52.837 47.3314C51.8623 50.7013 50.604 52.6 49.0623 53.0277C48.3685 53.2201 47.7811 53.1478 47.3002 52.8108C46.8378 52.4409 46.4926 51.8448 46.2645 51.0225C45.6658 48.864 45.8665 46.3454 46.8668 43.4666C47.9385 40.3466 49.4637 38.5122 51.4423 37.9634C51.9305 37.828 52.3402 37.9081 52.6712 38.2037C53.0023 38.4993 53.2498 38.9426 53.4137 39.5336ZM51.8202 40.9718C51.6776 40.4579 51.3751 40.2651 50.9125 40.3934C50.2187 40.5859 49.4546 41.8217 48.6202 44.1011C47.7786 46.3547 47.5289 48.0982 47.871 49.3316C48.1347 50.2824 48.5749 50.6722 49.1916 50.5012C49.6799 50.3657 50.1118 49.9277 50.4875 49.187C50.8889 48.4391 51.0998 47.4536 51.1202 46.2303C50.7091 46.3443 50.4971 46.2786 50.4844 46.033C50.4131 45.7761 50.5361 45.2715 50.8532 44.5194C51.3533 43.3291 51.6333 42.6426 51.6933 42.4599C51.8477 41.919 51.89 41.4229 51.8202 40.9718Z" fill="white"/>
<path d="M64.4595 37.881C64.8801 39.3971 64.5609 41.5888 63.5022 44.4561C62.3162 47.6631 60.8367 49.5125 59.0637 50.0044C58.3956 50.1897 57.8046 50.1045 57.2909 49.7489C56.6873 52.9604 56.253 56.0835 55.9878 59.1181C55.7226 62.1527 55.2688 63.7592 54.6264 63.9374C54.2153 64.0514 53.9384 63.8515 53.7959 63.3375C53.5393 62.4125 53.6013 60.5411 53.982 57.7235C54.2154 55.9707 54.6559 53.4686 55.3037 50.2171C55.5898 48.7541 55.8886 47.2875 56.2003 45.8174C56.8624 42.6173 57.5373 39.4137 58.2251 36.2065C58.4967 35.1902 58.8509 34.6215 59.2877 34.5004C59.853 34.3436 60.1927 34.4707 60.3068 34.8819C60.3923 35.1902 60.3536 35.6991 60.1906 36.4085C60.1219 36.7596 59.9504 37.3883 59.676 38.2946C60.4758 37.1872 61.3125 36.5124 62.1862 36.27C63.3168 35.9564 64.0746 36.4934 64.4595 37.881ZM62.4721 39.0964C62.3153 38.5311 62.057 38.2984 61.6972 38.3981C60.9006 38.6191 60.1388 39.5638 59.4116 41.2322C58.703 42.8678 58.0627 45.1486 57.4906 48.0746C57.8517 48.2789 58.2506 48.3204 58.6875 48.1992C59.8181 47.8856 60.8135 46.5856 61.6737 44.2991C62.5267 41.987 62.7928 40.2528 62.4721 39.0964Z" fill="white"/>
<path d="M81.7395 37.1143C82.0104 38.0907 81.5153 39.5979 80.2541 41.6358C78.9001 43.8379 77.5164 45.1349 76.1031 45.5269C75.178 45.7835 74.4622 45.7469 73.9556 45.417C73.4418 45.0613 73.0638 44.4467 72.8214 43.573C72.1728 41.2346 72.5157 38.5797 73.85 35.6083C75.0985 32.8267 76.4424 31.2363 77.8813 30.8371C78.7036 30.6091 79.293 31.1374 79.6494 32.4222C79.8988 33.3216 79.8271 34.3101 79.4342 35.3877C79.0669 36.4581 78.6135 37.0682 78.0739 37.2178C77.6627 37.3319 77.4037 37.1962 77.2968 36.8107C77.2398 36.6052 77.452 35.9237 77.9334 34.7662C78.1649 34.2039 78.2485 33.8071 78.1844 33.5758C78.0917 33.2417 77.9298 33.1068 77.6985 33.1709C77.0561 33.3491 76.2862 34.6143 75.3889 36.9664C74.4431 39.4426 74.127 41.2461 74.4406 42.3767C74.7186 43.3789 75.2559 43.7695 76.0525 43.5485C76.7463 43.356 77.4595 42.7846 78.1921 41.8342C79.0061 40.7782 79.6611 39.4481 80.157 37.8438C80.29 37.2258 80.5749 36.8562 81.0117 36.735C81.3457 36.6424 81.5884 36.7688 81.7395 37.1143Z" fill="white"/>
<path d="M92.7616 28.6606C92.8471 28.9689 92.742 29.5377 92.4462 30.367C91.5217 32.9203 91.0459 34.2976 91.0187 34.4989C90.8357 35.4352 90.7097 36.328 90.6409 37.1773C90.5663 38.3049 90.6252 39.2157 90.8176 39.9095C90.9459 40.372 91.1335 40.7489 91.3803 41.0402C91.9068 41.6413 92.1986 42.0447 92.2556 42.2503C92.3982 42.7642 92.2382 43.0853 91.7756 43.2136C91.3131 43.3419 90.7779 43.1583 90.17 42.6628C89.5621 42.1672 89.1405 41.4955 88.9053 40.6475C88.6416 39.6967 88.5371 38.5219 88.5918 37.123C88.6222 36.0353 88.7325 35.0362 88.9227 34.1255C87.9687 35.2757 87.2252 36.6857 86.6922 38.3556C85.7947 41.2059 85.0633 42.7094 84.498 42.8662C84.0612 42.9874 83.8043 42.8096 83.7274 42.3328C83.5706 41.7675 83.6881 40.5449 84.0799 38.6651C84.27 37.7545 84.496 36.7233 84.7576 35.5714C85.6325 31.8419 86.3013 29.9129 86.7638 29.7846C87.3292 29.6278 87.6759 29.7807 87.8042 30.2432C87.9112 30.6287 87.8346 31.3002 87.5744 32.258C87.3786 32.9488 87.1956 33.636 87.0255 34.3197C87.1555 34.0899 87.714 33.1601 88.7009 31.5304C89.7736 29.7108 90.7468 28.6798 91.6204 28.4375C92.2372 28.2664 92.6176 28.3408 92.7616 28.6606Z" fill="white"/>
<path d="M103.004 27.1893C103.425 28.7054 103.106 30.8971 102.047 33.7644C100.861 36.9714 99.3813 38.8208 97.6083 39.3127C96.9402 39.498 96.3493 39.4128 95.8355 39.0572C95.232 42.2687 94.7976 45.3918 94.5324 48.4264C94.2672 51.461 93.8134 53.0675 93.171 53.2457C92.7599 53.3597 92.483 53.1598 92.3405 52.6458C92.0839 51.7208 92.1459 49.8494 92.5267 47.0318C92.76 45.279 93.2005 42.7769 93.8483 39.5254C94.1344 38.0624 94.4332 36.5958 94.745 35.1257C95.407 31.9256 96.082 28.722 96.7697 25.5148C97.0413 24.4985 97.3955 23.9298 97.8323 23.8087C98.3977 23.6519 98.7374 23.779 98.8514 24.1902C98.9369 24.4985 98.8982 25.0074 98.7352 25.7168C98.6666 26.0679 98.495 26.6966 98.2206 27.6029C99.0204 26.4955 99.8571 25.8207 100.731 25.5783C101.861 25.2647 102.619 25.8017 103.004 27.1893ZM101.017 28.4047C100.86 27.8394 100.602 27.6067 100.242 27.7064C99.4453 27.9274 98.6834 28.8721 97.9562 30.5405C97.2476 32.1761 96.6073 34.4569 96.0352 37.3829C96.3963 37.5872 96.7953 37.6287 97.2321 37.5075C98.3627 37.1939 99.3581 35.8939 100.218 33.6074C101.071 31.2953 101.337 29.5611 101.017 28.4047Z" fill="white"/>
<path d="M112.347 23.1034C112.454 23.4889 112.471 23.8993 112.398 24.3346C112.58 24.3946 112.707 24.5531 112.779 24.8101C112.921 25.324 112.833 26.5523 112.514 28.4949C112.195 30.4376 112.117 31.7044 112.281 32.2954C112.516 33.1434 112.985 33.636 113.687 33.7733C114.39 33.9106 114.812 34.2362 114.955 34.7501C115.019 34.9814 114.966 35.1898 114.796 35.3753C114.626 35.5608 114.374 35.6999 114.04 35.7925C113.423 35.9636 112.823 35.8949 112.239 35.5863C111.524 35.2035 111.042 34.5624 110.793 33.663C110.75 33.5089 110.715 33.2833 110.688 32.9864C110.687 32.6824 110.681 32.4625 110.671 32.3269C109.985 34.8418 108.974 36.2846 107.638 36.6552C106.456 36.9831 105.559 36.3461 104.949 34.7443C104.4 32.7657 104.626 30.337 105.626 27.4582C106.705 24.364 108.131 22.5709 109.904 22.0791C110.521 21.908 111.048 21.9139 111.486 22.0968C111.917 22.254 112.204 22.5895 112.347 23.1034ZM111.25 24.9851C110.884 24.3669 110.445 24.1291 109.931 24.2716C109.032 24.5211 108.21 25.8005 107.467 28.1098C106.717 30.3934 106.506 32.1263 106.834 33.3083C106.976 33.8222 107.236 34.11 107.613 34.1715C108.228 34.1945 108.804 33.329 109.342 31.5749C109.978 29.3783 110.614 27.1817 111.25 24.9851Z" fill="white"/>
<path d="M122.519 22.6065C122.29 21.7842 121.907 21.4479 121.367 21.5976C120.827 21.7473 120.247 22.4479 119.625 23.6996C119.275 24.4331 118.853 25.505 118.359 26.9151C118.084 28.3196 117.819 29.7077 117.563 31.0794C118.077 31.435 118.539 31.5558 118.95 31.4417C119.85 31.1922 120.76 29.985 121.682 27.8199C122.596 25.6291 122.875 23.8913 122.519 22.6065ZM125.826 7.74168C125.733 7.40762 125.52 7.28693 125.186 7.37959C124.261 7.63619 123.158 9.54712 121.878 13.1124C120.874 15.8812 120.196 18.1727 119.841 19.9869C120.611 18.9708 121.211 18.1403 121.64 17.4952C122.226 16.6133 122.927 15.4502 123.744 14.0059C124.376 12.8899 124.918 11.7018 125.371 10.4415C125.817 9.15554 125.968 8.2556 125.826 7.74168ZM117.609 22.2664L117.616 22.1401C118.013 20.4801 118.452 18.8223 118.934 17.1666C120.616 11.359 122.401 7.41854 124.289 5.34517C124.692 4.90138 125.117 4.58964 125.566 4.40995C126.439 4.1676 127.04 4.63745 127.368 5.81949C127.803 7.38697 127.438 9.56367 126.274 12.3496C125.315 14.5803 123.951 16.8958 122.181 19.2961C122.633 19.2264 123.022 19.2843 123.35 19.47C123.744 19.6928 124.038 20.1511 124.23 20.8449C124.786 22.8493 124.516 25.3179 123.42 28.2509C122.324 31.1839 121.07 32.8464 119.656 33.2384C118.86 33.4594 118.095 33.2978 117.363 32.7537C117.367 33.1676 117.245 33.5751 116.997 33.9761C116.748 34.3771 116.47 34.6204 116.161 34.7059C115.813 34.7472 115.568 34.5109 115.425 33.997C115.328 33.249 115.539 31.6132 116.056 29.0897L117.144 24.1804C117.295 23.5296 117.45 22.8915 117.609 22.2664Z" fill="white"/>
<path d="M133.891 17.2105C134.439 19.1891 134.247 21.7884 133.314 25.0083C132.339 28.3782 131.081 30.2769 129.539 30.7046C128.845 30.897 128.258 30.8247 127.777 30.4877C127.315 30.1178 126.97 29.5217 126.741 28.6994C126.143 26.5409 126.343 24.0223 127.344 21.1435C128.415 18.0235 129.941 16.1891 131.919 15.6403C132.407 15.5049 132.817 15.585 133.148 15.8806C133.479 16.1761 133.727 16.6195 133.891 17.2105ZM132.297 18.6487C132.155 18.1348 131.852 17.942 131.389 18.0703C130.696 18.2628 129.932 19.4986 129.097 21.7779C128.256 24.0316 128.006 25.7751 128.348 27.0085C128.612 27.9593 129.052 28.3491 129.669 28.1781C130.157 28.0426 130.589 27.6046 130.964 26.8639C131.366 26.116 131.577 25.1305 131.597 23.9072C131.186 24.0212 130.974 23.9555 130.961 23.7099C130.89 23.453 131.013 22.9484 131.33 22.1963C131.83 21.006 132.11 20.3195 132.17 20.1368C132.325 19.5959 132.367 19.0998 132.297 18.6487Z" fill="white"/>
<path d="M141.766 26.2753C140.405 27.4553 139.321 28.088 138.515 28.1734C137.69 28.2915 137.208 27.8025 137.07 26.7061C136.97 25.8482 137.013 24.854 137.197 23.7236L137.588 21.5397L136.883 21.6936C136.645 21.7321 136.398 21.6899 136.143 21.567C135.339 21.2641 134.862 20.4418 134.711 19.0999C134.624 18.4875 134.644 17.6104 134.77 16.4685C134.902 15.0482 135.329 14.2932 136.051 14.2036C136.297 14.1908 136.444 14.3715 136.492 14.7455C136.516 14.9325 136.496 15.1594 136.432 15.4263C136.255 16.0843 136.217 16.7452 136.318 17.409C136.355 17.8415 136.458 18.2141 136.628 18.5268C136.797 18.8394 136.989 18.9801 137.201 18.9488C137.414 18.9175 137.628 18.692 137.844 18.2724C138.148 17.2748 138.424 16.4234 138.671 15.7183C138.919 15.0133 139.191 14.6472 139.488 14.6202C139.649 14.6031 139.876 14.6232 140.168 14.6804C140.454 14.7119 140.629 14.9953 140.695 15.5306C140.772 16.0074 140.346 17.9657 139.419 21.4055C138.971 23.3838 138.774 24.5178 138.827 24.8076C138.892 25.3429 139.15 25.5757 139.601 25.5059C139.95 25.4646 140.692 24.8989 141.829 23.8088C142.08 23.5177 142.354 23.3586 142.651 23.3316C143.109 23.2875 143.352 23.4139 143.379 23.7108C143.444 24.2461 142.907 25.101 141.766 26.2753Z" fill="white"/>
<path d="M145.424 20.6529C145.863 18.3449 146.486 16.1519 147.294 14.0738C147.372 13.8583 147.48 13.6485 147.617 13.4444C147.78 13.2332 147.977 13.0956 148.208 13.0314C148.634 12.9688 148.911 13.1687 149.039 13.6312C149.153 14.0424 149.103 14.5127 148.891 15.0422C148.536 15.86 148.198 17.1852 147.876 19.018C147.895 18.9851 147.93 18.9616 147.981 18.9473C148.805 18.5251 149.647 18.1671 150.506 17.8734C150.924 15.9865 151.46 14.1774 152.114 12.4462C152.2 12.2564 152.324 12.0558 152.487 11.8446C152.642 11.6077 152.836 11.4572 153.067 11.3931C153.493 11.3304 153.769 11.5304 153.898 11.9929C154.012 12.404 153.962 12.8744 153.749 13.4039C153.395 14.2216 153.059 15.5048 152.742 17.2533C152.877 17.2433 153.042 17.2391 153.236 17.2406C153.438 17.2678 153.64 17.35 153.844 17.4871C154.175 17.7827 154.264 18.1039 154.112 18.4507C153.963 18.7133 153.68 18.8887 153.261 18.9771C153.023 19.0156 152.74 19.094 152.413 19.2123C151.967 21.9928 151.795 23.867 151.897 24.8348C152.007 25.8283 151.781 26.3614 151.22 26.434C151.015 26.491 150.796 26.3996 150.563 26.1597C150.323 25.8941 150.154 25.5814 150.054 25.2217C149.733 24.0653 149.737 22.4316 150.064 20.3206L149.347 20.7271C148.556 21.1679 147.906 21.5695 147.398 21.9319C147.092 24.12 146.985 25.6302 147.077 26.4625C147.18 27.4303 146.941 27.9669 146.361 28.0723C146.156 28.1294 145.933 28.0251 145.694 27.7595C145.454 27.4939 145.288 27.1941 145.195 26.86C144.953 25.9863 144.897 24.8394 145.029 23.4191C144.931 23.3634 144.845 23.3042 144.772 23.2413C144.601 23.1228 144.498 22.9022 144.464 22.5796C144.43 22.257 144.478 21.9808 144.608 21.751C144.779 21.3714 145.051 21.0053 145.424 20.6529Z" fill="white"/>
<path d="M166.58 20.0564C166.694 20.4675 166.314 20.7943 165.441 21.0366C164.618 21.2647 163.872 21.1674 163.201 20.7446C162.53 20.3218 162.07 19.6608 161.821 18.7614L161.699 18.1725C161.22 19.4399 160.74 20.4033 160.259 21.0626C159.778 21.7219 159.28 22.1228 158.766 22.2653C158.227 22.415 157.707 22.3378 157.208 22.0335C156.708 21.7293 156.359 21.2174 156.159 20.4979C155.767 19.0846 155.94 17.1134 156.677 14.5843C157.433 12.0223 158.274 10.613 159.199 10.3564C159.79 10.1925 160.125 10.2518 160.203 10.5345C160.274 10.7915 159.976 11.7599 159.307 13.4397C158.541 15.3679 158.135 16.9472 158.089 18.1776C158.084 18.76 158.121 19.1925 158.2 19.4752C158.307 19.8607 158.45 20.0284 158.63 19.9785C159.067 19.8574 159.595 19.0189 160.215 17.4633C160.896 15.7249 161.357 13.8951 161.598 11.9739C161.703 11.253 161.854 10.6993 162.051 10.3125C162.274 9.9186 162.501 9.68958 162.732 9.62543C163.323 9.46149 163.733 9.79066 163.961 10.6129C164.075 11.0241 164.051 11.4873 163.889 12.0025C163.518 13.1572 163.298 14.1592 163.229 15.0085C163.186 15.8506 163.253 16.5929 163.432 17.2353C163.581 17.775 163.816 18.2218 164.135 18.576C164.474 18.8972 164.831 19.0887 165.208 19.1502C165.994 19.2918 166.452 19.5938 166.58 20.0564Z" fill="white"/>
<path d="M169.507 11.399L169.301 12.4524C169.943 10.9738 170.948 9.40823 172.316 7.75577C173.684 6.1033 174.779 5.16302 175.601 4.93493C176.089 4.7995 176.401 4.9759 176.537 5.46413C176.636 5.82388 176.204 6.35901 175.239 7.06952C174.483 7.63879 173.899 8.17458 173.484 8.67689C173.314 9.85874 173.222 10.9221 173.207 11.8671C173.218 12.8049 173.302 13.5565 173.459 14.1218C173.644 14.7899 173.899 15.2589 174.223 15.5288C174.565 15.7659 174.955 15.8239 175.392 15.7027C176.933 15.275 178.17 13.3963 179.1 10.0664C179.087 9.82088 179.153 9.60893 179.297 9.43055C179.434 9.22648 179.606 9.09593 179.811 9.03891C180.094 8.9605 180.278 9.07548 180.364 9.38383C180.613 10.2832 180.219 11.804 179.18 13.9462C178.012 16.3182 176.708 17.7037 175.269 18.1029C174.498 18.3167 173.778 18.1152 173.109 17.4983C172.465 16.8743 171.99 16.0098 171.684 14.9048C171.562 14.468 171.456 13.9855 171.365 13.4573C171.274 12.9291 171.19 12.4266 171.113 11.9498C170.704 12.672 170.29 13.6725 169.87 14.9513C169.476 16.223 169.175 17.3855 168.969 18.4389C168.886 18.7386 168.751 18.9976 168.562 19.216C168.374 19.4343 168.164 19.5755 167.933 19.6397C167.29 19.8179 166.88 19.5858 166.702 18.9434L166.678 18.4102C166.938 16.1521 167.285 13.9112 167.719 11.6874C168.197 8.62143 168.622 7.0093 168.993 6.85099C169.525 6.67561 169.869 6.81562 170.023 7.27103C170.148 7.62365 170.126 8.29382 169.958 9.28154C169.843 9.86675 169.693 10.5726 169.507 11.399Z" fill="white"/>
<path d="M189.172 1.79313C189.279 2.17858 189.296 2.58898 189.223 3.02431C189.406 3.08433 189.533 3.24282 189.604 3.49979C189.747 4.01372 189.659 5.24199 189.34 7.18461C189.021 9.12723 188.943 10.3941 189.107 10.9851C189.342 11.8331 189.811 12.3257 190.513 12.463C191.215 12.6003 191.638 12.9259 191.78 13.4398C191.844 13.6711 191.792 13.8795 191.622 14.065C191.452 14.2505 191.2 14.3896 190.866 14.4822C190.249 14.6533 189.649 14.5845 189.065 14.276C188.35 13.8932 187.868 13.2521 187.618 12.3527C187.576 12.1985 187.541 11.973 187.514 11.6761C187.512 11.372 187.507 11.1522 187.497 11.0166C186.811 13.5315 185.8 14.9743 184.463 15.3449C183.281 15.6728 182.385 15.0358 181.775 13.434C181.226 11.4554 181.452 9.0267 182.452 6.14793C183.531 3.05364 184.957 1.26059 186.73 0.768777C187.346 0.59771 187.874 0.60361 188.312 0.78648C188.743 0.943655 189.03 1.27921 189.172 1.79313ZM188.075 3.67481C187.71 3.0566 187.271 2.81877 186.757 2.96132C185.857 3.2108 185.036 4.49019 184.293 6.79951C183.543 9.08313 183.332 10.816 183.659 11.998C183.802 12.5119 184.062 12.7996 184.439 12.8612C185.054 12.8842 185.63 12.0187 186.167 10.2646C186.803 8.06799 187.439 5.8714 188.075 3.67481Z" fill="white"/>
</svg>
