<svg width="384" height="75" viewBox="0 0 384 75" fill="none" xmlns="http://www.w3.org/2000/svg">
<g clip-path="url(#clip0_67_313)">
<path fill-rule="evenodd" clip-rule="evenodd" d="M150.642 35.3098C147.588 35.3098 145.109 37.7937 145.109 40.8542C145.109 43.9214 147.588 46.4031 150.642 46.4031C153.698 46.4031 156.174 43.9214 156.174 40.8542C156.174 37.7937 153.698 35.3098 150.642 35.3098ZM375.781 31.2385C379.409 31.2385 382.062 33.2747 383.801 35.3098V25.4781C380.952 23.5404 377.518 22.7646 374.532 22.7646C365.36 22.7646 357.391 29.3501 357.391 40.6796C357.391 51.5277 364.634 58.599 374.675 58.599C377.571 58.599 380.757 58.159 383.801 56.0803V46.4378C382.062 48.2333 379.314 50.124 375.781 50.124C370.377 50.124 367.14 46.1064 367.14 40.9706C367.14 35.4016 370.569 31.2385 375.781 31.2385ZM358.428 23.7352H347.323L337.132 37.9684V23.7352H327.67L327.674 57.6296H337.132V43.0516L346.931 57.6296H358.768L345.583 40.1479L358.428 23.7352ZM299.725 44.0725V23.7352H290.6V57.6296H299.871L312.957 37.2911V57.6296H322.082V23.7352H312.809L299.725 44.0725ZM272.303 38.9848H269.604V31.1926H272.303C276.36 31.1926 276.937 33.3688 276.937 35.0646C276.937 36.5165 276.504 38.9848 272.303 38.9848ZM274.377 23.7352H260.136V57.6296H269.604V46.4378H274.377C283.94 46.4378 286.693 39.7639 286.693 35.0646C286.693 30.4146 283.988 23.7352 274.377 23.7352ZM231.941 31.8665H239.372V57.6296H248.839V31.8665H256.272V23.7352H231.941V31.8665ZM205.718 44.0725V23.7352H196.595V57.6296H205.868L218.947 37.2911V57.6296H228.075V23.7352H218.806L205.718 44.0725ZM177.522 50.846H173.468V43.7311H177.522C180.517 43.7311 182.256 44.6042 182.256 47.2695C182.256 49.9785 180.47 50.846 177.522 50.846ZM178.442 36.952H173.468V31.8665H188.966V23.7352H164.005L164.004 57.6296L178.442 57.6296C180.901 57.6296 191.719 57.7236 191.719 47.1229C191.719 36.9038 181 36.952 178.442 36.952ZM111.037 40.6796C111.037 51.5277 118.28 58.599 128.322 58.599C131.222 58.599 134.408 58.159 137.451 56.0803V46.4378C135.707 48.2333 132.956 50.124 129.433 50.124C124.023 50.124 120.79 46.1064 120.79 40.9706C120.79 35.4016 124.217 31.2385 129.433 31.2385C133.053 31.2385 135.707 33.2747 137.451 35.3098V25.4781C134.595 23.5404 131.171 22.7646 128.177 22.7646C119.002 22.7646 111.037 29.3501 111.037 40.6796ZM91.2235 31.5296H96.393V57.6296H105.133V23.7352H91.2235V31.5296Z" fill="#231F20"/>
<path fill-rule="evenodd" clip-rule="evenodd" d="M37.1598 0C34.3914 0 31.699 0.312313 29.1047 0.889925V37.2918C29.1047 41.7526 32.7315 45.3907 37.181 45.3907C41.6283 45.3907 45.254 41.7526 45.254 37.294C45.254 33.009 41.9152 29.4918 37.718 29.2119V22.7295C45.4739 23.0116 51.715 29.4459 51.715 37.294C51.715 45.3202 45.1859 51.8709 37.181 51.8709C29.1728 51.8709 22.6448 45.3201 22.6448 37.2918V2.94963C21.7273 3.3403 20.8309 3.77351 19.9524 4.23918V37.2918C19.9535 46.8056 27.6938 54.5642 37.181 54.5642C46.6694 54.5642 54.4063 46.8056 54.4063 37.294C54.4063 27.9593 46.9607 20.3149 37.718 20.0272V13.547C50.5172 13.8369 60.864 24.3929 60.864 37.294C60.864 50.3776 50.2247 61.0444 37.181 61.0444C24.134 61.0444 13.4914 50.3776 13.4914 37.2918V8.53769C5.25321 15.3694 0 25.7004 0 37.2638C0 57.844 16.637 74.5321 37.1609 74.5321C57.6882 74.5321 74.3207 57.844 74.3207 37.2638C74.3207 16.6836 57.6882 0 37.1598 0Z" fill="#D91935"/>
</g>
<defs>
<clipPath id="clip0_67_313">
<rect width="384" height="75" fill="white"/>
</clipPath>
</defs>
</svg>
