<svg width="48" height="48" viewBox="0 0 48 48" fill="none" xmlns="http://www.w3.org/2000/svg">
<path fill-rule="evenodd" clip-rule="evenodd" d="M13.5556 3H34.4444C36.087 2.99999 37.3809 2.99999 38.4222 3.08507C39.4846 3.17186 40.3717 3.35217 41.1779 3.76295C42.4951 4.43407 43.5659 5.50493 44.237 6.82207C44.6478 7.62827 44.8281 8.51543 44.9149 9.57778C45 10.6191 45 11.913 45 13.5556V34.4444C45 36.087 45 37.3809 44.9149 38.4222C44.8281 39.4846 44.6478 40.3717 44.237 41.1779C43.5659 42.4951 42.4951 43.5659 41.1779 44.237C40.3717 44.6478 39.4846 44.8281 38.4222 44.9149C37.3809 45 36.087 45 34.4444 45H13.5556C11.913 45 10.6191 45 9.57778 44.9149C8.51543 44.8281 7.62827 44.6478 6.82207 44.237C5.50493 43.5659 4.43407 42.4951 3.76295 41.1779C3.35217 40.3717 3.17186 39.4846 3.08507 38.4222C2.99999 37.3809 2.99999 36.087 3 34.4444V13.5556C2.99999 11.913 2.99999 10.6191 3.08507 9.57778C3.17186 8.51543 3.35217 7.62827 3.76295 6.82207C4.43407 5.50493 5.50493 4.43407 6.82207 3.76295C7.62827 3.35217 8.51543 3.17186 9.57778 3.08507C10.6191 2.99999 11.913 2.99999 13.5556 3ZM5 15V23H13V15H5ZM13 13H5.00017C5.00134 11.6113 5.01025 10.575 5.07842 9.74064C5.15512 8.80197 5.30179 8.20732 5.54497 7.73005C6.02433 6.78924 6.78924 6.02433 7.73005 5.54497C8.20732 5.30179 8.80197 5.15512 9.74064 5.07842C10.575 5.01025 11.6113 5.00134 13 5.00017V13ZM15 23H33V5H15V23ZM35 5.00017V13H42.9998C42.9987 11.6113 42.9897 10.575 42.9216 9.74064C42.8449 8.80197 42.6982 8.20732 42.455 7.73005C41.9757 6.78924 41.2108 6.02433 40.27 5.54497C39.7927 5.30179 39.198 5.15512 38.2594 5.07842C37.425 5.01025 36.3887 5.00134 35 5.00017ZM43 15H35V23H43V15ZM43 25H35V33H43V25ZM42.9998 35H35V42.9998C36.3887 42.9987 37.425 42.9897 38.2594 42.9216C39.198 42.8449 39.7927 42.6982 40.27 42.455C41.2108 41.9757 41.9757 41.2108 42.455 40.27C42.6982 39.7927 42.8449 39.198 42.9216 38.2594C42.9897 37.425 42.9987 36.3887 42.9998 35ZM33 43V25H15V43H33ZM13 42.9998V35H5.00017C5.00134 36.3887 5.01025 37.425 5.07842 38.2594C5.15512 39.198 5.30179 39.7927 5.54497 40.27C6.02433 41.2108 6.78924 41.9757 7.73005 42.455C8.20732 42.6982 8.80197 42.8449 9.74064 42.9216C10.575 42.9897 11.6113 42.9987 13 42.9998ZM5 33H13V25H5V33Z" fill="url(#paint0_linear_607_329)"/>
<defs>
<linearGradient id="paint0_linear_607_329" x1="3" y1="3" x2="51.6029" y2="13.0419" gradientUnits="userSpaceOnUse">
<stop stop-color="#2FC7F7"/>
<stop offset="1" stop-color="#409EEF"/>
</linearGradient>
</defs>
</svg>
