<svg width="180" height="43" viewBox="0 0 180 43" fill="none" xmlns="http://www.w3.org/2000/svg">
<g clip-path="url(#clip0_1_2)">
<path d="M136.331 2.93896C136.331 4.75356 134.85 5.9604 132.923 5.9604C130.996 5.9604 129.515 4.74922 129.515 2.93896C129.515 1.1287 130.996 0 132.923 0C134.85 0 136.331 1.21118 136.331 2.93896Z" fill="#3D3D3C"/>
<path d="M58.8568 10.5542C58.8568 9.36633 59.7046 8.81712 60.9359 8.81712C62.0393 8.81712 62.9297 9.36633 62.9297 10.5542V29.7849C62.9297 36.0093 65.9801 39.1045 71.7018 39.1045C77.4234 39.1045 80.6017 35.971 80.6017 29.7424V10.5542C80.6017 9.36633 81.4495 8.81712 82.6381 8.81712C83.8268 8.81712 84.6746 9.36633 84.6746 10.5542V29.9127C84.6746 38.2998 80.1416 42.7871 71.7487 42.7871C63.3558 42.7871 58.8653 38.4233 58.8653 29.9127V10.5542H58.8568Z" fill="#3D3D3C" stroke="#3D3D3C" stroke-miterlimit="10"/>
<path d="M117.475 10.0475C117.773 9.20029 118.451 8.81713 119.298 8.81713C119.554 8.81713 119.805 8.8597 120.061 8.90227C120.951 9.15772 121.629 9.79208 121.629 10.6393C121.629 10.8522 121.586 11.0608 121.501 11.2737L110.565 40.4157C110.015 41.8547 108.997 42.3231 107.723 42.3231C106.449 42.3231 105.393 41.859 104.839 40.3732L93.9451 11.3588C93.8599 11.1459 93.8173 10.8947 93.8173 10.6819C93.8173 9.83465 94.4947 9.11515 95.3851 8.90227C95.6407 8.81713 95.8921 8.77455 96.1477 8.77455C96.9529 8.77455 97.6729 9.15772 97.9711 10.0049L106.236 33.259C106.786 34.8257 107.254 36.7756 107.719 38.4701C108.183 36.7331 108.694 34.8257 109.244 33.2164L117.467 10.0475H117.475Z" fill="#3D3D3C" stroke="#3D3D3C" stroke-miterlimit="10"/>
<path d="M131.04 10.5542C131.04 9.36633 131.888 8.81712 133.034 8.81712C134.18 8.81712 135.113 9.36633 135.113 10.5542V40.586C135.113 41.7313 134.223 42.3231 133.034 42.3231C131.845 42.3231 131.04 41.7313 131.04 40.586V10.5542Z" fill="#3D3D3C" stroke="#3D3D3C" stroke-miterlimit="10"/>
<path d="M165.924 40.3732C165.332 41.8122 164.569 42.3231 163.21 42.3231C161.851 42.3231 161.093 41.8164 160.496 40.3306L154.097 24.2758C152.87 21.2275 150.834 15.0841 150.028 12.4572C150.156 15.2118 150.663 22.8751 150.663 28.8483V40.6244C150.663 41.7696 149.858 42.3188 148.669 42.3188C147.481 42.3188 146.718 41.7696 146.718 40.6244V11.3162C146.718 9.79207 147.822 8.81712 149.432 8.81712C151.298 8.81712 152.188 9.49405 152.823 11.0608L160.624 30.6279C161.472 32.7055 162.869 36.6862 163.253 38.5042C163.674 36.6394 164.948 32.9567 165.924 30.5428L173.597 11.1459C174.274 9.45148 175.25 8.81712 177.116 8.81712C178.684 8.81712 179.787 9.79207 179.787 11.3162V40.6286C179.787 41.7739 178.939 42.3231 177.836 42.3231C176.732 42.3231 175.842 41.7739 175.842 40.6286V28.8951C175.842 22.8794 176.349 15.2969 176.519 12.4189C175.714 15.1309 173.639 21.1849 172.493 24.0672L165.924 40.3732Z" fill="#3D3D3C" stroke="#3D3D3C" stroke-miterlimit="10"/>
<path d="M44.3247 8.55317H32.4298C30.8298 8.55317 29.5328 9.84933 29.5328 11.4482V12.0826C29.5328 13.6815 30.8298 14.9776 32.4298 14.9776H44.3247C45.9247 14.9776 47.2218 13.6815 47.2218 12.0826V11.4482C47.2218 9.84933 45.9247 8.55317 44.3247 8.55317Z" fill="#3D3D3C"/>
<path d="M26.7849 11.7164C26.7849 13.6408 25.3108 14.9223 23.3936 14.9223C21.4765 14.9223 20.0024 13.6408 20.0024 11.7164C20.0024 9.79208 21.4765 8.60426 23.3936 8.60426C25.3108 8.60426 26.7849 9.88574 26.7849 11.7164Z" fill="#3D3D3C"/>
<path d="M16.6409 11.7164C16.6409 13.6408 15.1669 14.9223 13.2497 14.9223C11.3325 14.9223 9.85846 13.6408 9.85846 11.7164C9.85846 9.79208 11.3325 8.60426 13.2497 8.60426C15.1669 8.60426 16.6409 9.88574 16.6409 11.7164Z" fill="#3D3D3C"/>
<path d="M44.3247 17.7492H32.4298C30.8298 17.7492 29.5328 19.0454 29.5328 20.6443V21.2786C29.5328 22.8775 30.8298 24.1737 32.4298 24.1737H44.3247C45.9247 24.1737 47.2218 22.8775 47.2218 21.2786V20.6443C47.2218 19.0454 45.9247 17.7492 44.3247 17.7492Z" fill="#3D3D3C"/>
<path d="M44.3247 36.5543H32.4298C30.8298 36.5543 29.5328 37.8504 29.5328 39.4493V40.0837C29.5328 41.6826 30.8298 42.9787 32.4298 42.9787H44.3247C45.9247 42.9787 47.2218 41.6826 47.2218 40.0837V39.4493C47.2218 37.8504 45.9247 36.5543 44.3247 36.5543Z" fill="#3D3D3C"/>
<path d="M23.8921 36.5543H11.9972C10.3972 36.5543 9.10013 37.8504 9.10013 39.4493V40.0837C9.10013 41.6826 10.3972 42.9787 11.9972 42.9787H23.8921C25.4921 42.9787 26.7891 41.6826 26.7891 40.0837V39.4493C26.7891 37.8504 25.4921 36.5543 23.8921 36.5543Z" fill="#3D3D3C"/>
<path d="M26.7849 20.9167C26.7849 22.8411 25.3108 24.1226 23.3936 24.1226C21.4765 24.1226 20.0024 22.8411 20.0024 20.9167C20.0024 18.9924 21.4765 17.8046 23.3936 17.8046C25.3108 17.8046 26.7849 19.086 26.7849 20.9167Z" fill="#3D3D3C"/>
<path d="M16.6409 20.9167C16.6409 22.8411 15.1669 24.1226 13.2497 24.1226C11.3325 24.1226 9.85846 22.8411 9.85846 20.9167C9.85846 18.9924 11.3325 17.8046 13.2497 17.8046C15.1669 17.8046 16.6409 19.086 16.6409 20.9167Z" fill="#3D3D3C"/>
<path d="M47.2218 30.4619C47.2218 32.3862 45.7477 33.6677 43.8305 33.6677C41.9134 33.6677 40.4393 32.3862 40.4393 30.4619C40.4393 28.5375 41.9134 27.3497 43.8305 27.3497C45.7477 27.3497 47.2218 28.6312 47.2218 30.4619Z" fill="#3D3D3C"/>
<path d="M37.0779 30.4619C37.0779 32.3862 35.6038 33.6677 33.6866 33.6677C31.7695 33.6677 30.2954 32.3862 30.2954 30.4619C30.2954 28.5375 31.7695 27.3497 33.6866 27.3497C35.6038 27.3497 37.0779 28.6312 37.0779 30.4619Z" fill="#3D3D3C"/>
<path d="M6.78249 20.9167C6.78249 22.8411 5.3084 24.1226 3.39124 24.1226C1.47408 24.1226 0 22.8411 0 20.9167C0 18.9924 1.47408 17.8046 3.39124 17.8046C5.3084 17.8046 6.78249 19.086 6.78249 20.9167Z" fill="#3D3D3C"/>
</g>
<defs>
<clipPath id="clip0_1_2">
<rect width="180" height="43" fill="white"/>
</clipPath>
</defs>
</svg>
