<svg width="165" height="62" viewBox="0 0 165 62" fill="none" xmlns="http://www.w3.org/2000/svg">
<path d="M11.5195 40.1575C11.6257 40.8039 11.6092 42.3248 11.4698 44.7201C11.3703 46.3371 11.3194 47.4381 11.3173 48.0233L11.9507 47.738C12.6631 47.5404 13.0735 47.6367 13.1817 48.0268C13.2523 48.2813 13.1353 48.5512 12.8309 48.8366C12.5217 49.105 12.0109 49.3381 11.2984 49.5357C11.323 51.9951 11.4913 54.1498 11.8035 55.9996C12.1157 57.8495 12.0936 58.8239 11.7374 58.9227C11.4321 59.0074 11.1692 58.9159 10.9488 58.6482C10.7406 58.3588 10.5519 57.9088 10.3825 57.2981C10.1849 56.5856 10.0382 55.6946 9.94246 54.6251C9.89082 54.1096 9.82728 52.6292 9.75185 50.1839L5.1274 52.9738C4.53494 54.8554 4.02117 56.7243 3.58609 58.5805C3.16797 60.4319 2.6875 61.433 2.14468 61.5835C1.89023 61.6541 1.72301 61.5452 1.64302 61.2568C1.48774 60.6971 1.72571 59.3157 2.35691 57.1128C2.62014 56.2177 2.8895 55.3118 3.16499 54.395C2.7003 54.7614 2.33175 55.0463 2.05935 55.2498C1.79921 55.4316 1.57584 55.5483 1.38924 55.6001C1.09332 55.7187 0.898299 55.6084 0.804191 55.2691C0.691263 54.862 1.09336 54.3029 2.01049 53.5918C2.73532 53.0436 3.46864 52.4931 4.21044 51.9402C5.10475 49.1711 6.20164 46.4737 7.5011 43.848C8.85714 41.0969 9.87443 39.6273 10.553 39.4391C11.0279 39.3073 11.3501 39.5468 11.5195 40.1575ZM9.96813 42.369C9.4393 42.8993 8.70853 44.2164 7.77582 46.3202C6.96383 48.1348 6.38283 49.6296 6.0328 50.8045L9.77077 48.6715C9.73895 48.0958 9.80591 46.6248 9.97168 44.2588C10.0446 43.2703 10.0434 42.6404 9.96813 42.369Z" fill="white"/>
<path d="M14.7179 53.3004C15.0078 51.7768 15.4192 50.3291 15.9521 48.9573C16.0039 48.815 16.0751 48.6766 16.1657 48.5418C16.2731 48.4024 16.4032 48.3115 16.5559 48.2692C16.8367 48.2278 17.0195 48.3598 17.1041 48.6651C17.1794 48.9366 17.1468 49.247 17.0063 49.5966C16.7724 50.1364 16.5492 51.0113 16.3368 52.2211C16.349 52.1995 16.3721 52.1839 16.406 52.1745C16.9498 51.8958 17.5054 51.6595 18.0728 51.4656C18.3484 50.2199 18.7022 49.0257 19.1342 47.8828C19.1908 47.7575 19.2728 47.6252 19.3803 47.4857C19.483 47.3293 19.6107 47.23 19.7634 47.1876C20.0442 47.1463 20.227 47.2783 20.3117 47.5836C20.387 47.855 20.3544 48.1655 20.2138 48.515C19.9799 49.0549 19.7582 49.902 19.5486 51.0562C19.6381 51.0496 19.7469 51.0469 19.8751 51.0478C20.0079 51.0658 20.1417 51.12 20.2764 51.2105C20.495 51.4057 20.5538 51.6177 20.4529 51.8467C20.3548 52.02 20.1677 52.1358 19.8916 52.1942C19.7342 52.2195 19.5477 52.2713 19.3318 52.3494C19.0372 54.185 18.9236 55.4222 18.9913 56.0611C19.0636 56.7169 18.9146 57.0688 18.5442 57.1168C18.4085 57.1544 18.2639 57.094 18.1103 56.9357C17.9521 56.7604 17.84 56.5539 17.7742 56.3165C17.5624 55.5531 17.5647 54.4746 17.781 53.0811L17.3074 53.3494C16.7853 53.6404 16.3564 53.9055 16.0209 54.1447C15.8187 55.5892 15.7481 56.5862 15.8092 57.1356C15.8768 57.7745 15.7193 58.1287 15.3367 58.1983C15.201 58.236 15.054 58.1671 14.8957 57.9918C14.7375 57.8165 14.6278 57.6185 14.5666 57.398C14.4066 56.8213 14.3702 56.0641 14.4572 55.1265C14.3922 55.0898 14.3357 55.0506 14.2876 55.0092C14.1746 54.9309 14.1068 54.7853 14.0843 54.5723C14.0617 54.3593 14.0934 54.177 14.1792 54.0253C14.2923 53.7747 14.4719 53.5331 14.7179 53.3004Z" fill="white"/>
<path d="M26.9494 45.4684C27.02 45.7228 27.0312 45.9937 26.983 46.2811C27.1036 46.3207 27.1875 46.4254 27.2345 46.595C27.3286 46.9343 27.2704 47.7451 27.0598 49.0275C26.8492 50.3099 26.798 51.1462 26.9062 51.5363C27.0615 52.0961 27.3709 52.4213 27.8345 52.512C28.2981 52.6026 28.5769 52.8176 28.671 53.1568C28.7134 53.3095 28.6785 53.4471 28.5663 53.5695C28.4541 53.692 28.2878 53.7838 28.0672 53.845C27.6601 53.9579 27.2639 53.9125 26.8786 53.7088C26.4066 53.4561 26.0882 53.0329 25.9235 52.4392C25.8953 52.3374 25.8723 52.1885 25.8544 51.9925C25.8536 51.7918 25.8498 51.6467 25.8433 51.5572C25.3904 53.2173 24.7229 54.1698 23.8408 54.4145C23.0605 54.6309 22.4689 54.2104 22.0659 53.153C21.7036 51.8468 21.8526 50.2435 22.5129 48.3431C23.2251 46.3005 24.1664 45.1168 25.3369 44.7921C25.744 44.6792 26.0922 44.6831 26.3814 44.8038C26.666 44.9076 26.8553 45.1291 26.9494 45.4684ZM26.2253 46.7105C25.9842 46.3024 25.694 46.1454 25.3547 46.2395C24.761 46.4042 24.2189 47.2488 23.7283 48.7733C23.2331 50.2808 23.0937 51.4247 23.3101 52.205C23.4042 52.5443 23.5757 52.7342 23.8244 52.7748C24.2305 52.7901 24.611 52.2187 24.9657 51.0607C25.3856 49.6107 25.8054 48.1606 26.2253 46.7105Z" fill="white"/>
<path d="M35.022 46.8737C35.2009 47.5183 34.874 48.5133 34.0414 49.8586C33.1476 51.3122 32.2342 52.1685 31.3012 52.4272C30.6905 52.5966 30.218 52.5724 29.8835 52.3546C29.5444 52.1199 29.2948 51.7141 29.1348 51.1374C28.7066 49.5937 28.933 47.8411 29.8138 45.8796C30.638 44.0433 31.5251 42.9934 32.4751 42.7299C33.0179 42.5793 33.407 42.9281 33.6422 43.7763C33.8069 44.37 33.7596 45.0225 33.5002 45.7339C33.2577 46.4405 32.9584 46.8433 32.6022 46.9421C32.3308 47.0174 32.1598 46.9278 32.0892 46.6733C32.0515 46.5376 32.1916 46.0877 32.5095 45.3236C32.6623 44.9524 32.7175 44.6905 32.6751 44.5378C32.614 44.3173 32.5071 44.2282 32.3544 44.2705C31.9303 44.3882 31.4221 45.2233 30.8298 46.7761C30.2054 48.4107 29.9967 49.6013 30.2037 50.3476C30.3872 51.0092 30.7419 51.2671 31.2678 51.1212C31.7258 50.9942 32.1966 50.6169 32.6802 49.9895C33.2176 49.2924 33.65 48.4143 33.9773 47.3553C34.0651 46.9473 34.2532 46.7033 34.5416 46.6233C34.7621 46.5622 34.9222 46.6456 35.022 46.8737Z" fill="white"/>
<path d="M44.7578 40.7752C44.2569 42.0651 43.8296 43.2249 43.4759 44.2547C43.0825 45.4051 42.9823 46.3281 43.1752 47.0236C43.2646 47.3459 43.527 47.6659 43.9622 47.9836C44.193 48.1571 44.3225 48.2947 44.3507 48.3965C44.4072 48.6 44.3803 48.7993 44.27 48.9943C44.1596 49.1893 44.0027 49.3151 43.7991 49.3716C43.4768 49.461 43.1141 49.3058 42.7109 48.9061C42.32 48.4848 42.0469 47.9942 41.8917 47.4344C41.7599 46.9594 41.7144 46.4331 41.7551 45.8555C41.8128 45.2732 41.9851 44.5769 42.2718 43.7666C41.4601 44.9235 40.8815 46.0979 40.5362 47.2897C40.0418 48.998 39.6759 49.885 39.4384 49.9509C39.15 50.0309 38.9541 49.8843 38.8506 49.5111C38.7188 49.0361 38.7356 48.2733 38.9009 47.2227C39.0435 46.288 39.2445 45.465 39.5039 44.7536C38.8846 45.4187 38.3905 46.3047 38.0216 47.4118C37.6971 48.4152 37.5078 49.4451 37.4537 50.5014C37.4648 50.9368 37.2961 51.1845 36.9474 51.2447C36.5742 51.3482 36.317 51.1455 36.1759 50.6367C36.0312 49.3249 36.1874 47.5826 36.6442 45.4098C37.1134 43.2154 37.5939 42.0499 38.0858 41.9135C38.442 41.8146 38.6484 41.867 38.7049 42.0706C38.7425 42.2063 38.616 42.7711 38.3254 43.7652C38.1122 44.4454 37.9895 44.991 37.9573 45.4018C38.4787 44.5813 39.0063 43.7499 39.5399 42.9076C39.9849 42.2727 40.4194 41.8964 40.8435 41.7788C41.1828 41.6847 41.3807 41.7394 41.4371 41.9429C41.4936 42.1465 41.3973 42.5568 41.1483 43.174C40.8673 43.8731 40.7262 44.2867 40.7252 44.4148C40.9817 44.0879 41.3767 43.5034 41.9104 42.6612C42.7354 41.3545 43.4108 40.6282 43.9367 40.4823C44.1911 40.4118 44.381 40.4048 44.5063 40.4613C44.6316 40.5179 44.7154 40.6226 44.7578 40.7752Z" fill="white"/>
<path d="M51.0028 38.7963C51.0734 39.0508 51.0846 39.3217 51.0364 39.6091C51.157 39.6487 51.2408 39.7533 51.2879 39.923C51.382 40.2622 51.3238 41.0731 51.1132 42.3555C50.9026 43.6379 50.8514 44.4741 50.9596 44.8643C51.1149 45.4241 51.4243 45.7493 51.8879 45.8399C52.3515 45.9306 52.6303 46.1455 52.7244 46.4848C52.7668 46.6374 52.7318 46.775 52.6197 46.8975C52.5075 47.0199 52.3411 47.1117 52.1206 47.1729C51.7135 47.2858 51.3173 47.2405 50.9319 47.0368C50.4599 46.7841 50.1416 46.3609 49.9769 45.7671C49.9487 45.6654 49.9256 45.5165 49.9078 45.3205C49.9069 45.1198 49.9032 44.9746 49.8967 44.8851C49.4437 46.5453 48.7762 47.4977 47.8942 47.7424C47.1138 47.9589 46.5222 47.5384 46.1193 46.481C45.757 45.1748 45.906 43.5715 46.5663 41.6711C47.2785 39.6284 48.2198 38.4448 49.3903 38.1201C49.7974 38.0072 50.1456 38.0111 50.4348 38.1318C50.7194 38.2355 50.9087 38.4571 51.0028 38.7963ZM50.2786 40.0385C50.0376 39.6304 49.7474 39.4734 49.4081 39.5675C48.8144 39.7322 48.2723 40.5768 47.7817 42.1012C47.2865 43.6088 47.1471 44.7527 47.3635 45.533C47.4576 45.8722 47.629 46.0622 47.8778 46.1028C48.2839 46.118 48.6644 45.5466 49.0191 44.3887C49.4389 42.9386 49.8588 41.4886 50.2786 40.0385Z" fill="white"/>
<path d="M59.0754 40.2017C59.2542 40.8463 58.9274 41.8412 58.0948 43.1865C57.201 44.6402 56.2876 45.4964 55.3546 45.7552C54.7439 45.9246 54.2713 45.9004 53.9369 45.6826C53.5978 45.4478 53.3482 45.0421 53.1882 44.4653C52.76 42.9217 52.9863 41.1691 53.8672 39.2075C54.6914 37.3712 55.5785 36.3214 56.5285 36.0579C57.0713 35.9073 57.4603 36.2561 57.6956 37.1043C57.8603 37.698 57.8129 38.3505 57.5535 39.0618C57.3111 39.7685 57.0118 40.1712 56.6556 40.27C56.3841 40.3453 56.2131 40.2557 56.1426 40.0013C56.1049 39.8656 56.245 39.4157 56.5629 38.6516C56.7156 38.2804 56.7709 38.0184 56.7285 37.8658C56.6673 37.6452 56.5604 37.5561 56.4078 37.5985C55.9837 37.7161 55.4755 38.5513 54.8831 40.104C54.2587 41.7387 54.05 42.9292 54.2571 43.6756C54.4406 44.3372 54.7953 44.595 55.3211 44.4492C55.7791 44.3221 56.25 43.9449 56.7336 43.3175C57.271 42.6204 57.7033 41.7423 58.0307 40.6833C58.1185 40.2753 58.3066 40.0313 58.5949 39.9513C58.8155 39.8901 58.9756 39.9736 59.0754 40.2017Z" fill="white"/>
<path d="M67.1742 42.23C67.2495 42.5014 66.9988 42.7171 66.422 42.8771C65.8792 43.0277 65.3864 42.9634 64.9436 42.6843C64.5008 42.4052 64.1971 41.9688 64.0324 41.3751L63.952 40.9864C63.636 41.823 63.3191 42.459 63.0014 42.8942C62.6837 43.3294 62.3552 43.5941 62.016 43.6882C61.6597 43.787 61.3168 43.736 60.987 43.5352C60.6573 43.3344 60.4265 42.9965 60.2948 42.5215C60.036 41.5885 60.15 40.2872 60.6369 38.6176C61.136 36.9264 61.6908 35.996 62.3015 35.8266C62.6917 35.7184 62.9126 35.7576 62.9644 35.9442C63.0114 36.1138 62.8143 36.7531 62.3729 37.8621C61.8673 39.1349 61.5993 40.1775 61.5689 40.9898C61.5659 41.3742 61.5903 41.6597 61.6421 41.8463C61.7127 42.1008 61.8073 42.2115 61.9261 42.1786C62.2144 42.0986 62.5633 41.5451 62.9726 40.5182C63.4216 39.3706 63.7259 38.1627 63.8856 36.8944C63.9546 36.4185 64.0541 36.053 64.1843 35.7976C64.3314 35.5376 64.4812 35.3864 64.6339 35.3441C65.0241 35.2359 65.2944 35.4532 65.445 35.996C65.5203 36.2674 65.5046 36.5732 65.398 36.9133C65.1527 37.6755 65.0074 38.337 64.9619 38.8977C64.9335 39.4536 64.9781 39.9436 65.0957 40.3677C65.1945 40.7239 65.3494 41.0189 65.5604 41.2527C65.7837 41.4648 66.0197 41.5912 66.2684 41.6318C66.7876 41.7252 67.0895 41.9246 67.1742 42.23Z" fill="white"/>
<path d="M70.4914 37.5557C70.7797 37.4757 71.1072 37.3392 71.4739 37.1462L72.2595 34.051L71.7619 34.1342C71.0834 34.3224 70.4862 34.7712 69.9705 35.4805C69.4548 36.1899 69.2379 36.7251 69.3198 37.086C69.4562 37.5779 69.8467 37.7345 70.4914 37.5557ZM72.6289 32.7154C72.7486 32.5543 72.8763 32.4549 73.012 32.4173C73.2589 32.3853 73.4224 32.5135 73.5023 32.8019C73.5165 32.8528 73.5329 32.9122 73.5518 32.98C73.7589 33.3975 73.9095 33.7759 74.0036 34.1152C74.1966 34.8107 74.1488 35.1984 73.8605 35.2784C73.8265 35.2878 73.7794 35.2826 73.7191 35.2628C73.5335 35.1864 73.4054 35.021 73.3348 34.7666L73.2431 34.4358C73.1335 35.1604 73.0155 35.8873 72.8889 36.6166C73.1943 36.5319 73.3822 36.6168 73.4528 36.8712C73.5234 37.1257 73.3848 37.3834 73.037 37.6443L72.6609 37.9678C72.2964 40.0784 72.1381 41.3189 72.186 41.6893C72.2452 42.1661 72.1476 42.4398 71.8931 42.5104C71.7744 42.5433 71.6514 42.4952 71.5243 42.3661C71.4141 42.2322 71.3331 42.072 71.2813 41.8854C71.1166 41.2917 71.1108 40.4804 71.2638 39.4514C69.8686 41.0076 69.0673 42.0702 68.8598 42.6393C68.7391 42.9286 68.5939 43.0967 68.4242 43.1438C68.1868 43.2096 68.0327 43.1154 67.9621 42.8609C67.7363 42.0467 68.5509 40.6698 70.4061 38.7303C69.4204 38.9306 68.7934 38.5473 68.5252 37.5804C68.3277 36.5391 68.6452 35.5102 69.4776 34.4938C70.178 33.6601 71.0032 33.1115 71.9532 32.848C72.1907 32.7821 72.4159 32.7379 72.6289 32.7154Z" fill="white"/>
<path d="M93.4045 17.0601C93.5833 17.7047 93.4382 18.9598 92.9692 20.8254C92.3606 23.2413 92.0487 24.4879 92.0336 24.5651C91.8674 25.415 91.6828 26.4619 91.4798 27.7056C91.2286 29.2368 91.0613 30.5437 90.978 31.6264C90.8653 33.0643 90.8644 34.115 90.9754 34.7784L91.2408 35.6365C91.3585 36.0606 91.4229 36.3258 91.4342 36.4323C91.4745 36.8413 91.3336 37.0905 91.0113 37.1799C90.9095 37.2081 90.8308 37.2208 90.7752 37.218C90.2136 37.3007 89.8128 36.9095 89.5728 36.0444C89.3705 35.3149 89.2813 34.3349 89.3053 33.1043C89.3255 32.0574 89.4073 31.1669 89.5508 30.4329C89.7898 28.9234 90.04 27.5204 90.3015 26.2239C90.495 25.2751 90.7404 24.184 91.0377 22.9506C91.2151 22.2072 91.4708 21.1863 91.8049 19.8879C91.3146 20.7546 90.703 22.1391 89.9701 24.0414C89.3731 25.5771 88.7713 27.2603 88.1647 29.091C88.0854 29.3322 87.6458 30.6782 86.8459 33.1288C86.6874 33.6112 86.4898 33.9857 86.2532 34.2523C86.0336 34.5142 85.805 34.6781 85.5675 34.7439C85.33 34.8098 85.1114 34.7791 84.9117 34.6518C84.7242 34.5029 84.5905 34.2842 84.5105 33.9958C84.2141 32.9271 84.084 31.7666 84.1202 30.5143C84.1433 29.4118 84.3044 28.1157 84.6037 26.6261C84.8368 25.5566 85.0114 24.7044 85.1276 24.0693C85.2815 23.2411 85.3749 22.7219 85.408 22.5118C84.9338 23.1731 84.3641 24.6099 83.699 26.8222C83.1404 28.6944 82.5846 30.8398 82.0316 33.2585C81.5483 35.4021 81.1953 37.1259 80.9724 38.43C80.8742 38.9322 80.7845 39.4321 80.7033 39.9296C80.5882 40.4365 80.327 40.7464 79.9199 40.8593C79.5637 40.9582 79.3385 40.8379 79.2444 40.4987C79.1644 40.2103 79.1825 39.7486 79.2986 39.1135C79.4666 38.3361 79.5809 37.7929 79.6413 37.4839C79.9406 35.6653 80.3965 33.6207 81.0089 31.35C81.7034 28.7824 82.434 26.5428 83.2008 24.6312C83.8393 23.0474 84.1991 22.1712 84.2802 22.0025C84.716 21.0048 85.0672 20.2953 85.334 19.8742C85.7036 19.2967 86.0581 18.9609 86.3973 18.8668C86.8553 18.7398 87.1432 18.8883 87.2608 19.3124C87.306 19.4094 87.3271 19.6502 87.3241 20.0347C86.6916 23.3523 86.2275 25.993 85.9318 27.9566C85.6107 30.0918 85.5771 31.6174 85.8312 32.5334C86.0095 31.9907 86.3595 30.9802 86.8811 29.5019C87.2594 28.4287 87.6376 27.3556 88.0159 26.2824C88.4658 25.0067 88.8134 23.9877 89.0587 23.2255C89.8454 20.9247 90.5599 19.2193 91.202 18.1095C91.746 17.1731 92.2301 16.646 92.6542 16.5284C92.8408 16.4766 92.9953 16.5068 93.1178 16.619C93.2525 16.7095 93.3481 16.8566 93.4045 17.0601Z" fill="white"/>
<path d="M101.465 32.7182C101.54 32.9896 101.29 33.2053 100.713 33.3653C100.17 33.5158 99.6774 33.4516 99.2346 33.1725C98.7918 32.8934 98.4881 32.457 98.3234 31.8633L98.2429 31.4746C97.927 32.3112 97.6101 32.9472 97.2924 33.3824C96.9747 33.8176 96.6462 34.0823 96.3069 34.1764C95.9507 34.2752 95.6077 34.2242 95.278 34.0234C94.9483 33.8225 94.7175 33.4846 94.5858 33.0097C94.327 32.0767 94.441 30.7754 94.9278 29.1058C95.4269 27.4146 95.9818 26.4842 96.5925 26.3148C96.9826 26.2066 97.2036 26.2458 97.2554 26.4324C97.3024 26.602 97.1052 27.2413 96.6638 28.3503C96.1583 29.6231 95.8903 30.6657 95.8599 31.4779C95.8569 31.8624 95.8813 32.1479 95.933 32.3345C96.0036 32.589 96.0983 32.6997 96.217 32.6668C96.5054 32.5868 96.8543 32.0333 97.2636 31.0064C97.7126 29.8588 98.0169 28.6509 98.1766 27.3826C98.2456 26.9067 98.3451 26.5412 98.4752 26.2858C98.6223 26.0258 98.7722 25.8746 98.9249 25.8323C99.315 25.7241 99.5854 25.9414 99.736 26.4842C99.8113 26.7556 99.7956 27.0614 99.689 27.4015C99.4437 28.1637 99.2984 28.8252 99.2529 29.3858C99.2244 29.9418 99.269 30.4318 99.3867 30.8559C99.4855 31.2121 99.6404 31.5071 99.8514 31.7409C100.075 31.953 100.311 32.0794 100.559 32.12C101.079 32.2134 101.38 32.4128 101.465 32.7182Z" fill="white"/>
<path d="M107.673 26.6117C107.854 27 107.607 27.9545 106.933 29.4751C106.271 30.9741 105.652 31.8035 105.075 31.9635C104.719 32.0623 104.394 31.8785 104.1 31.4119C103.801 30.9284 103.553 30.3304 103.356 29.618C103.047 30.416 102.699 31.1702 102.312 31.8805C101.851 32.7209 101.533 33.1561 101.358 33.1862C101.162 33.2041 101.021 33.1885 100.934 33.1394C100.848 33.0904 100.799 33.0126 100.788 32.9062C100.679 32.516 101.03 31.6059 101.839 30.1757C102.383 29.2393 102.759 28.5869 102.967 28.2185C102.572 26.7936 102.298 25.7734 102.146 25.1581C102.006 24.521 102.105 24.1554 102.444 24.0613C102.919 23.9296 103.244 24.1775 103.418 24.8052C103.46 24.9578 103.526 25.2594 103.614 25.7098C103.698 26.1433 103.752 26.4025 103.775 26.4873C103.884 26.2197 104.04 25.8933 104.243 25.5079C104.761 24.5423 105.074 23.9256 105.183 23.6581C105.291 23.3905 105.481 23.2191 105.752 23.1438C106.075 23.0544 106.273 23.1454 106.349 23.4168C106.41 23.6373 105.998 24.5554 105.112 26.1712C104.627 27.0549 104.329 27.6946 104.22 28.0903C104.247 28.3203 104.267 28.5248 104.28 28.7038C104.306 28.8612 104.349 29.0501 104.41 29.2706C104.575 29.8644 104.81 30.1189 105.115 30.0342C105.387 29.9589 105.671 29.6334 105.968 29.0578C106.277 28.4605 106.522 27.7623 106.702 26.9633C106.814 26.6401 106.988 26.4456 107.225 26.3797C107.446 26.3186 107.595 26.3959 107.673 26.6117Z" fill="white"/>
<path d="M113.571 21.4407C113.642 21.6952 113.653 21.9661 113.605 22.2535C113.726 22.2931 113.809 22.3977 113.856 22.5674C113.951 22.9066 113.892 23.7175 113.682 24.9999C113.471 26.2823 113.42 27.1186 113.528 27.5087C113.683 28.0685 113.993 28.3937 114.456 28.4843C114.92 28.575 115.199 28.7899 115.293 29.1292C115.335 29.2818 115.3 29.4194 115.188 29.5419C115.076 29.6643 114.91 29.7561 114.689 29.8173C114.282 29.9302 113.886 29.8849 113.501 29.6812C113.029 29.4285 112.71 29.0053 112.545 28.4116C112.517 28.3098 112.494 28.1609 112.476 27.9649C112.476 27.7642 112.472 27.619 112.465 27.5295C112.012 29.1897 111.345 30.1421 110.463 30.3868C109.682 30.6033 109.091 30.1828 108.688 29.1254C108.326 27.8192 108.475 26.2159 109.135 24.3155C109.847 22.2728 110.788 21.0892 111.959 20.7645C112.366 20.6516 112.714 20.6555 113.003 20.7762C113.288 20.88 113.477 21.1015 113.571 21.4407ZM112.847 22.6829C112.606 22.2748 112.316 22.1178 111.977 22.2119C111.383 22.3766 110.841 23.2212 110.35 24.7456C109.855 26.2532 109.716 27.3971 109.932 28.1774C110.026 28.5166 110.198 28.7066 110.446 28.7472C110.853 28.7624 111.233 28.191 111.588 27.0331C112.008 25.583 112.427 24.133 112.847 22.6829Z" fill="white"/>
<path d="M118.301 27.3905C117.898 28.1782 117.307 28.6802 116.526 28.8966C116.153 29.0002 115.929 28.9162 115.854 28.6448C115.826 28.543 115.854 28.4163 115.94 28.2646C116.043 28.1082 116.356 27.8205 116.879 27.4013C117.402 26.9822 118.157 24.9278 119.143 21.238C119.669 19.7767 120.272 18.9519 120.95 18.7637C121.221 18.6884 121.388 18.7611 121.449 18.9816C121.505 19.1851 121.502 19.5333 121.437 20.0261C121.141 21.7891 120.994 22.7431 120.998 22.8882C121.018 24.0152 121.111 24.8756 121.276 25.4693C121.506 26.3005 121.774 26.6738 122.079 26.5891C122.402 26.4997 122.67 25.9867 122.886 25.0501C122.988 24.693 123.166 24.4792 123.42 24.4086C123.641 24.3474 123.789 24.4525 123.864 24.724C123.967 25.0971 123.861 25.7661 123.544 26.7309C123.199 27.7947 122.807 28.3877 122.366 28.5101C122.23 28.5477 122.089 28.5321 121.942 28.4633C121.034 28.2217 120.397 27.4394 120.03 26.1162C119.729 25.0306 119.586 23.9558 119.602 22.892C119.352 24.8245 118.919 26.3241 118.301 27.3905Z" fill="white"/>
<path d="M125.877 23.782C125.849 23.8809 125.83 23.9775 125.82 24.0718C126.049 24.1727 126.248 24.1996 126.418 24.1525C126.825 24.0396 127.27 23.5691 127.753 22.741C128.252 21.9082 128.439 21.2627 128.312 20.8047C128.232 20.5164 128.064 20.4075 127.81 20.478C127.556 20.5486 127.266 20.8208 126.94 21.2947C126.759 21.5641 126.533 21.965 126.26 22.4973C126.121 22.9194 125.994 23.3477 125.877 23.782ZM126.737 19.8713C126.891 19.7008 127.068 19.5147 127.268 19.3132C127.484 19.1069 127.695 18.9755 127.898 18.919C128.153 18.8484 128.38 18.8768 128.579 19.0041C128.774 19.1144 128.917 19.3307 129.006 19.653C129.27 20.603 129.131 21.7832 128.591 23.1936C128.067 24.5993 127.475 25.3939 126.813 25.5775C126.457 25.6763 126.092 25.613 125.719 25.3877C125.763 25.9417 125.624 26.2635 125.302 26.3529C125.115 26.4047 124.945 26.3513 124.792 26.193C124.655 26.0299 124.556 25.8381 124.495 25.6176C124.294 24.76 124.415 23.4842 124.858 21.7901C125.222 20.3372 125.694 18.9733 126.272 17.6986C126.35 17.5856 126.437 17.4702 126.532 17.3524C126.622 17.2177 126.727 17.1339 126.846 17.1009C127.151 17.0162 127.344 17.1181 127.424 17.4065C127.504 17.6948 127.463 18.0077 127.301 18.3449C127.126 18.7039 126.938 19.2127 126.737 19.8713Z" fill="white"/>
<path d="M135.361 23.3161L135.166 23.2058C134.723 22.9267 134.419 22.4903 134.254 21.8966L134.174 21.5079C133.562 23.1209 132.916 24.0215 132.238 24.2097C131.882 24.3085 131.539 24.2575 131.209 24.0567C130.879 23.8558 130.648 23.5179 130.517 23.043C130.258 22.11 130.372 20.8087 130.859 19.1391C131.358 17.4478 131.913 16.5175 132.523 16.3481C132.914 16.2399 133.135 16.2791 133.186 16.4657C133.233 16.6353 133.036 17.2746 132.595 18.3835C131.872 20.1916 131.629 21.5197 131.864 22.3678C131.935 22.6223 132.029 22.733 132.148 22.7001C132.436 22.6201 132.785 22.0666 133.195 21.0397C133.644 19.8921 133.948 18.6842 134.108 17.4159C134.25 16.4812 134.5 15.9644 134.856 15.8656C135.246 15.7573 135.516 15.9746 135.667 16.5175C135.742 16.7889 135.727 17.0947 135.62 17.4348C135.169 18.8387 135.068 19.9901 135.318 20.8892L135.36 21.0419C135.474 21.3208 135.634 21.5687 135.84 21.7855C136.042 21.9854 136.267 22.1056 136.516 22.1462C137.04 22.2566 137.337 22.4391 137.407 22.6935C137.525 23.1176 137.457 23.6297 137.203 24.2299C136.95 24.83 136.611 25.1889 136.187 25.3066L136.136 25.3207C135.881 25.3913 135.721 25.3078 135.655 25.0703C135.622 24.9516 135.705 24.6911 135.904 24.2888C135.944 24.1682 135.947 24.0485 135.914 23.9298C135.867 23.7601 135.683 23.5556 135.361 23.3161Z" fill="white"/>
<path d="M144.334 16.6071C144.498 17.2008 144.1 18.1698 143.14 19.5141C142.113 20.9498 141.074 21.8136 140.022 22.1053C139.496 22.2512 138.976 22.1855 138.46 21.9083C137.957 21.6094 137.626 21.1715 137.466 20.5948C137.263 19.8654 137.263 19.0069 137.464 18.0195C137.63 17.1696 137.887 16.4497 138.235 15.86C138.716 14.9593 139.171 14.2942 139.6 13.8647C140.024 13.4182 140.406 13.1479 140.745 13.0537C141.067 12.9643 141.358 12.9932 141.618 13.1403C141.878 13.2874 142.048 13.5051 142.128 13.7935C142.279 14.3363 142.172 15.0694 141.807 15.9927C141.543 16.6871 141.194 17.3409 140.761 17.9542C140.578 18.2793 140.281 18.6264 139.872 18.9956C139.58 19.2594 139.249 19.5156 138.879 19.7642C138.992 20.1713 139.162 20.4531 139.388 20.6096C139.626 20.7445 139.907 20.7672 140.229 20.6778C140.755 20.5319 141.329 20.0987 141.951 19.378C142.59 18.6527 143.108 17.8514 143.504 16.9743C143.686 16.5767 143.845 16.3591 143.98 16.3214C144.15 16.2744 144.268 16.3696 144.334 16.6071ZM141.054 14.8588C140.997 14.6553 140.863 14.5648 140.65 14.5873C140.378 14.6626 140.108 14.9386 139.838 15.4153C139.625 15.7667 139.4 16.2401 139.163 16.8356C138.939 17.4094 138.783 17.9003 138.695 18.3082C139.255 18.153 139.818 17.6495 140.386 16.7979C140.953 15.9462 141.176 15.2999 141.054 14.8588Z" fill="white"/>
<path d="M149.782 12.9311C149.631 12.3883 149.378 12.1663 149.021 12.2651C148.665 12.3639 148.282 12.8265 147.872 13.6527C147.641 14.137 147.362 14.8446 147.036 15.7754C146.854 16.7026 146.679 17.6189 146.51 18.5244C146.849 18.7592 147.155 18.8389 147.426 18.7636C148.02 18.5989 148.621 17.802 149.229 16.3727C149.833 14.9265 150.017 13.7793 149.782 12.9311ZM151.965 3.11826C151.903 2.89774 151.763 2.81806 151.542 2.87923C150.931 3.04862 150.204 4.31011 149.358 6.66369C148.696 8.49152 148.248 10.0042 148.014 11.2018C148.522 10.5311 148.918 9.98281 149.202 9.55699C149.588 8.97478 150.051 8.20697 150.591 7.25355C151.007 6.51682 151.365 5.73247 151.664 4.90053C151.959 4.05161 152.059 3.45753 151.965 3.11826ZM146.541 12.7066L146.545 12.6232C146.807 11.5274 147.097 10.433 147.415 9.34008C148.526 5.50623 149.704 2.90495 150.95 1.53622C151.216 1.24327 151.497 1.03748 151.793 0.918849C152.37 0.758868 152.766 1.06903 152.983 1.84934C153.27 2.8841 153.029 4.32103 152.26 6.16014C151.628 7.63274 150.727 9.1613 149.559 10.7458C149.857 10.6998 150.114 10.738 150.331 10.8606C150.591 11.0077 150.784 11.3103 150.911 11.7683C151.278 13.0914 151.1 14.7211 150.377 16.6572C149.653 18.5934 148.825 19.6909 147.892 19.9497C147.366 20.0956 146.862 19.9889 146.378 19.6297C146.381 19.903 146.3 20.172 146.136 20.4367C145.972 20.7014 145.788 20.862 145.585 20.9185C145.355 20.9457 145.193 20.7897 145.099 20.4505C145.035 19.9567 145.174 18.8768 145.516 17.211L146.233 13.9701C146.333 13.5405 146.436 13.1193 146.541 12.7066Z" fill="white"/>
<path d="M159.238 16.6929C159.313 16.9643 159.063 17.18 158.486 17.34C157.943 17.4905 157.45 17.4263 157.007 17.1472C156.565 16.8681 156.261 16.4317 156.096 15.838L156.016 15.4493C155.7 16.2859 155.383 16.9219 155.065 17.3571C154.748 17.7923 154.419 18.057 154.08 18.1511C153.724 18.2499 153.381 18.1989 153.051 17.9981C152.721 17.7972 152.49 17.4593 152.359 16.9844C152.1 16.0514 152.214 14.7501 152.701 13.0805C153.2 11.3892 153.755 10.4589 154.365 10.2895C154.755 10.1813 154.976 10.2205 155.028 10.4071C155.075 10.5767 154.878 11.216 154.437 12.3249C153.931 13.5978 153.663 14.6404 153.633 15.4526C153.63 15.8371 153.654 16.1226 153.706 16.3092C153.776 16.5637 153.871 16.6744 153.99 16.6415C154.278 16.5615 154.627 16.008 155.036 14.981C155.485 13.8335 155.79 12.6256 155.949 11.3573C156.018 10.8814 156.118 10.5158 156.248 10.2605C156.395 10.0005 156.545 9.84932 156.698 9.80696C157.088 9.69874 157.358 9.91604 157.509 10.4589C157.584 10.7303 157.568 11.0361 157.462 11.3762C157.217 12.1384 157.071 12.7999 157.026 13.3605C156.997 13.9165 157.042 14.4065 157.159 14.8306C157.258 15.1868 157.413 15.4818 157.624 15.7156C157.847 15.9277 158.083 16.054 158.332 16.0946C158.851 16.1881 159.153 16.3875 159.238 16.6929Z" fill="white"/>
<path d="M163.307 15.1256C162.409 15.9046 161.694 16.3223 161.161 16.3786C160.617 16.4566 160.299 16.1338 160.208 15.41C160.142 14.8437 160.17 14.1874 160.292 13.4411L160.549 11.9995L160.084 12.1011C159.927 12.1265 159.764 12.0986 159.595 12.0175C159.065 11.8175 158.75 11.2746 158.65 10.3888C158.593 9.98457 158.606 9.40553 158.689 8.65171C158.776 7.71415 159.058 7.21577 159.535 7.15658C159.697 7.14815 159.794 7.26739 159.826 7.51429C159.842 7.63773 159.829 7.78756 159.786 7.96376C159.669 8.39812 159.644 8.8344 159.711 9.27259C159.735 9.55812 159.803 9.80409 159.916 10.0105C160.028 10.2169 160.154 10.3098 160.294 10.2891C160.435 10.2684 160.576 10.1196 160.718 9.84259C160.919 9.18399 161.101 8.62197 161.265 8.15653C161.428 7.69108 161.607 7.44945 161.803 7.43162C161.91 7.42035 162.06 7.4336 162.253 7.47136C162.441 7.49216 162.557 7.67925 162.6 8.03263C162.651 8.34738 162.37 9.64012 161.758 11.9109C161.463 13.2168 161.332 13.9654 161.367 14.1567C161.41 14.5101 161.581 14.6638 161.879 14.6177C162.109 14.5904 162.599 14.217 163.349 13.4974C163.515 13.3052 163.696 13.2002 163.892 13.1823C164.194 13.1532 164.355 13.2367 164.372 13.4327C164.416 13.7861 164.061 14.3504 163.307 15.1256Z" fill="white"/>
</svg>
