<svg width="348" height="130" viewBox="0 0 348 130" fill="none" xmlns="http://www.w3.org/2000/svg">
<path d="M23.5882 83.7588C23.8135 85.1298 23.7783 88.3552 23.4827 93.435C23.2716 96.8642 23.1639 99.1993 23.1594 100.44L24.5026 99.8353C26.0135 99.4162 26.8837 99.6204 27.1133 100.448C27.2629 100.987 27.0149 101.56 26.3692 102.165C25.7135 102.734 24.6302 103.229 23.1193 103.648C23.1713 108.864 23.5284 113.433 24.1904 117.356C24.8525 121.279 24.8057 123.346 24.0503 123.555C23.4027 123.735 22.8452 123.541 22.3778 122.973C21.9364 122.359 21.5361 121.405 21.1768 120.11C20.7577 118.599 20.4466 116.709 20.2436 114.441C20.1341 113.348 19.9994 110.208 19.8394 105.022L10.032 110.939C8.77559 114.93 7.68601 118.893 6.76331 122.83C5.87658 126.756 4.85762 128.879 3.70642 129.198C3.1668 129.348 2.81216 129.117 2.64252 128.505C2.31322 127.318 2.81788 124.389 4.15652 119.717C4.71477 117.819 5.28601 115.898 5.87026 113.953C4.88476 114.73 4.10316 115.335 3.52547 115.766C2.97376 116.151 2.50005 116.399 2.10433 116.509C1.47673 116.76 1.06315 116.526 0.863571 115.807C0.624077 114.944 1.47683 113.758 3.42183 112.25C4.95903 111.087 6.51422 109.92 8.08739 108.747C9.98402 102.875 12.3103 97.154 15.0661 91.5854C17.9419 85.7511 20.0993 82.6344 21.5383 82.2353C22.5456 81.9559 23.2289 82.4637 23.5882 83.7588ZM20.2981 88.4489C19.1766 89.5735 17.6268 92.3668 15.6487 96.8285C13.9267 100.677 12.6945 103.847 11.9522 106.339L19.8795 101.815C19.812 100.594 19.954 97.4745 20.3056 92.4567C20.4602 90.3604 20.4577 89.0245 20.2981 88.4489Z" fill="white"/>
<path d="M30.3713 111.632C30.986 108.401 31.8584 105.33 32.9886 102.421C33.0986 102.119 33.2496 101.826 33.4415 101.54C33.6694 101.244 33.9453 101.052 34.2691 100.962C34.8646 100.874 35.2522 101.154 35.4318 101.802C35.5915 102.377 35.5223 103.036 35.2243 103.777C34.7283 104.922 34.255 106.777 33.8044 109.343C33.8304 109.297 33.8794 109.264 33.9513 109.244C35.1046 108.653 36.2828 108.152 37.486 107.741C38.0705 105.099 38.8209 102.566 39.737 100.142C39.857 99.8767 40.031 99.596 40.2589 99.3003C40.4769 98.9686 40.7477 98.7579 41.0715 98.6681C41.667 98.5804 42.0546 98.8603 42.2343 99.5079C42.3939 100.083 42.3247 100.742 42.0267 101.483C41.5307 102.628 41.0604 104.425 40.6159 106.872C40.8057 106.858 41.0365 106.853 41.3083 106.855C41.5901 106.893 41.8738 107.008 42.1595 107.2C42.623 107.614 42.7477 108.063 42.5337 108.549C42.3258 108.916 41.929 109.162 41.3434 109.286C41.0096 109.34 40.6139 109.449 40.1562 109.615C39.5313 113.508 39.2905 116.132 39.4339 117.487C39.5873 118.877 39.2713 119.624 38.4859 119.725C38.1981 119.805 37.8914 119.677 37.5657 119.341C37.2301 118.97 36.9925 118.532 36.8528 118.028C36.4037 116.409 36.4086 114.122 36.8673 111.167L35.8629 111.736C34.7555 112.353 33.846 112.915 33.1344 113.422C32.7057 116.486 32.556 118.6 32.6855 119.765C32.8289 121.12 32.4949 121.871 31.6835 122.019C31.3957 122.099 31.084 121.953 30.7484 121.581C30.4128 121.209 30.1801 120.79 30.0504 120.322C29.7111 119.099 29.6337 117.493 29.8183 115.505C29.6805 115.427 29.5606 115.344 29.4587 115.256C29.2189 115.09 29.0752 114.781 29.0274 114.329C28.9796 113.878 29.0467 113.491 29.2286 113.169C29.4686 112.638 29.8495 112.125 30.3713 111.632Z" fill="white"/>
<path d="M56.3113 95.022C56.461 95.5616 56.4847 96.1361 56.3826 96.7456C56.6383 96.8296 56.8161 97.0515 56.9159 97.4113C57.1155 98.1308 56.992 99.8504 56.5453 102.57C56.0987 105.29 55.9901 107.063 56.2196 107.891C56.549 109.078 57.2052 109.768 58.1883 109.96C59.1715 110.152 59.7628 110.608 59.9624 111.327C60.0522 111.651 59.9782 111.943 59.7403 112.203C59.5024 112.462 59.1496 112.657 58.6819 112.787C57.8185 113.026 56.9782 112.93 56.161 112.498C55.16 111.962 54.4849 111.065 54.1356 109.805C54.0757 109.59 54.0269 109.274 53.9891 108.858C53.9872 108.432 53.9793 108.125 53.9654 107.935C53.0049 111.456 51.5893 113.476 49.7186 113.994C48.0638 114.453 46.8091 113.562 45.9546 111.319C45.1862 108.549 45.5022 105.149 46.9025 101.119C48.4129 96.7867 50.4092 94.2764 52.8915 93.5878C53.7549 93.3484 54.4933 93.3566 55.1067 93.6126C55.7102 93.8327 56.1117 94.3025 56.3113 95.022ZM54.7755 97.6563C54.2643 96.7908 53.6489 96.4578 52.9294 96.6574C51.6702 97.0067 50.5205 98.7978 49.4802 102.031C48.4298 105.228 48.1342 107.654 48.5932 109.309C48.7928 110.028 49.1564 110.431 49.6839 110.517C50.5452 110.549 51.352 109.338 52.1043 106.882C52.9947 103.807 53.8851 100.732 54.7755 97.6563Z" fill="white"/>
<path d="M73.4314 98.0023C73.8106 99.3694 73.1173 101.479 71.3517 104.333C69.4561 107.415 67.519 109.231 65.5404 109.78C64.2453 110.139 63.2431 110.088 62.5338 109.626C61.8146 109.128 61.2853 108.268 60.946 107.045C60.0379 103.771 60.5179 100.054 62.3859 95.894C64.134 91.9997 66.0153 89.7732 68.0299 89.2144C69.1811 88.895 70.0062 89.6347 70.5051 91.4335C70.8544 92.6926 70.7539 94.0765 70.2038 95.5851C69.6897 97.0837 69.0549 97.9378 68.2994 98.1473C67.7238 98.307 67.3612 98.117 67.2115 97.5774C67.1316 97.2896 67.4288 96.3355 68.1028 94.715C68.4268 93.9277 68.544 93.3722 68.4541 93.0485C68.3244 92.5808 68.0977 92.3918 67.7739 92.4817C66.8745 92.7311 65.7967 94.5023 64.5405 97.7952C63.2163 101.262 62.7737 103.787 63.2128 105.37C63.602 106.773 64.3542 107.32 65.4694 107.01C66.4408 106.741 67.4392 105.941 68.4649 104.61C69.6045 103.132 70.5215 101.27 71.2158 99.0237C71.4019 98.1585 71.8008 97.641 72.4124 97.4714C72.8801 97.3416 73.2197 97.5186 73.4314 98.0023Z" fill="white"/>
<path d="M94.0785 85.0689C93.0163 87.8044 92.1102 90.2641 91.36 92.4481C90.5257 94.8878 90.3132 96.8452 90.7223 98.3201C90.9119 99.0037 91.4682 99.6823 92.3912 100.356C92.8807 100.724 93.1554 101.016 93.2153 101.232C93.335 101.663 93.2779 102.086 93.0439 102.5C92.81 102.913 92.4771 103.18 92.0454 103.3C91.3619 103.489 90.5927 103.16 89.7376 102.313C88.9086 101.419 88.3295 100.379 88.0002 99.1915C87.7208 98.1842 87.6242 97.068 87.7106 95.843C87.833 94.608 88.1982 93.1314 88.8064 91.4129C87.0848 93.8664 85.8579 96.3569 85.1256 98.8846C84.0771 102.507 83.301 104.389 82.7974 104.528C82.1858 104.698 81.7702 104.387 81.5507 103.596C81.2713 102.588 81.3069 100.971 81.6574 98.7425C81.9599 96.7602 82.3862 95.0147 82.9363 93.5061C81.6228 94.9165 80.575 96.7957 79.7927 99.1435C79.1045 101.272 78.703 103.456 78.5883 105.696C78.6119 106.619 78.254 107.145 77.5146 107.272C76.7231 107.492 76.1777 107.062 75.8783 105.983C75.5716 103.201 75.9027 99.5058 76.8716 94.8978C77.8665 90.2439 78.8856 87.7722 79.9289 87.4828C80.6843 87.2733 81.122 87.3844 81.2417 87.8161C81.3215 88.1039 81.0533 89.3018 80.437 91.4099C79.9849 92.8526 79.7247 94.0096 79.6564 94.8808C80.7621 93.1406 81.8809 91.3774 83.0127 89.5913C83.9564 88.2447 84.8779 87.4467 85.7773 87.1972C86.4968 86.9976 86.9164 87.1137 87.0362 87.5454C87.1559 87.9771 86.9518 88.8473 86.4237 90.1561C85.8277 91.6387 85.5286 92.5159 85.5265 92.7877C86.0703 92.0944 86.9081 90.8547 88.0398 89.0685C89.7894 86.2974 91.2219 84.7571 92.3371 84.4478C92.8767 84.2981 93.2794 84.2833 93.5451 84.4033C93.8109 84.5233 93.9887 84.7451 94.0785 85.0689Z" fill="white"/>
<path d="M107.323 80.8722C107.472 81.4118 107.496 81.9863 107.394 82.5958C107.65 82.6798 107.828 82.9017 107.927 83.2615C108.127 83.981 108.003 85.7006 107.557 88.4202C107.11 91.1399 107.002 92.9134 107.231 93.7409C107.56 94.928 108.217 95.6177 109.2 95.8099C110.183 96.0021 110.774 96.458 110.974 97.1775C111.064 97.5013 110.99 97.793 110.752 98.0527C110.514 98.3124 110.161 98.5071 109.693 98.6369C108.83 98.8764 107.99 98.7801 107.172 98.3482C106.171 97.8122 105.496 96.9147 105.147 95.6556C105.087 95.4397 105.038 95.124 105 94.7083C104.999 94.2826 104.991 93.9749 104.977 93.785C104.016 97.3059 102.601 99.3257 100.73 99.8446C99.0752 100.304 97.8205 99.4119 96.966 97.1694C96.1976 94.3993 96.5136 90.9991 97.9139 86.9689C99.4243 82.6369 101.421 80.1266 103.903 79.4381C104.766 79.1986 105.505 79.2068 106.118 79.4628C106.722 79.6829 107.123 80.1527 107.323 80.8722ZM105.787 83.5065C105.276 82.641 104.66 82.308 103.941 82.5076C102.682 82.8569 101.532 84.648 100.492 87.8811C99.4412 91.0782 99.1456 93.5041 99.6046 95.159C99.8042 95.8785 100.168 96.2813 100.695 96.3674C101.557 96.3997 102.363 95.1879 103.116 92.7322C104.006 89.6569 104.897 86.5817 105.787 83.5065Z" fill="white"/>
<path d="M124.443 83.8525C124.822 85.2196 124.129 87.3296 122.363 90.1827C120.467 93.2656 118.53 95.0814 116.552 95.6303C115.257 95.9895 114.254 95.9382 113.545 95.4763C112.826 94.9784 112.297 94.1179 111.957 92.8948C111.049 89.621 111.529 85.9042 113.397 81.7442C115.145 77.8499 117.027 75.6234 119.041 75.0646C120.192 74.7452 121.018 75.4849 121.516 77.2837C121.866 78.5428 121.765 79.9267 121.215 81.4353C120.701 82.9339 120.066 83.788 119.311 83.9975C118.735 84.1572 118.373 83.9672 118.223 83.4276C118.143 83.1398 118.44 82.1857 119.114 80.5652C119.438 79.7779 119.555 79.2224 119.466 78.8987C119.336 78.431 119.109 78.242 118.785 78.3319C117.886 78.5813 116.808 80.3525 115.552 83.6454C114.228 87.1122 113.785 89.637 114.224 91.2199C114.613 92.6229 115.366 93.1698 116.481 92.8604C117.452 92.591 118.451 91.791 119.476 90.4604C120.616 88.982 121.533 87.1199 122.227 84.8739C122.413 84.0087 122.812 83.4912 123.424 83.3216C123.891 83.1918 124.231 83.3688 124.443 83.8525Z" fill="white"/>
<path d="M141.618 88.1541C141.778 88.7297 141.246 89.1872 140.023 89.5264C138.872 89.8458 137.827 89.7095 136.888 89.1176C135.949 88.5258 135.305 87.6003 134.955 86.3411L134.785 85.5167C134.115 87.2911 133.443 88.6398 132.769 89.5628C132.095 90.4858 131.398 91.0471 130.679 91.2467C129.923 91.4562 129.196 91.348 128.497 90.9221C127.798 90.4962 127.308 89.7796 127.029 88.7723C126.48 86.7937 126.722 84.034 127.754 80.4932C128.813 76.9064 129.989 74.9334 131.285 74.5742C132.112 74.3447 132.581 74.4278 132.69 74.8235C132.79 75.1832 132.372 76.539 131.436 78.8908C130.364 81.5903 129.795 83.8013 129.731 85.5239C129.724 86.3392 129.776 86.9448 129.886 87.3405C130.036 87.8801 130.236 88.115 130.488 88.0452C131.1 87.8755 131.84 86.7017 132.708 84.5238C133.66 82.0901 134.305 79.5283 134.644 76.8386C134.79 75.8295 135.001 75.0541 135.277 74.5127C135.589 73.9612 135.907 73.6406 136.231 73.5508C137.058 73.3213 137.632 73.7821 137.951 74.9333C138.111 75.5089 138.078 76.1574 137.851 76.8787C137.331 78.4953 137.023 79.898 136.927 81.087C136.866 82.2661 136.961 83.3053 137.21 84.2047C137.42 84.9601 137.748 85.5858 138.196 86.0815C138.669 86.5313 139.17 86.7993 139.697 86.8854C140.798 87.0837 141.439 87.5066 141.618 88.1541Z" fill="white"/>
<path d="M148.653 78.2411C149.265 78.0714 149.959 77.7819 150.737 77.3725L152.403 70.8084L151.348 70.9848C149.909 71.384 148.642 72.3358 147.549 73.8402C146.455 75.3446 145.995 76.4795 146.169 77.245C146.458 78.2882 147.286 78.6203 148.653 78.2411ZM153.186 67.9759C153.44 67.6343 153.711 67.4235 153.999 67.3437C154.523 67.276 154.869 67.5479 155.039 68.1594C155.069 68.2674 155.104 68.3933 155.144 68.5372C155.583 69.4226 155.902 70.2251 156.102 70.9446C156.511 72.4196 156.41 73.2419 155.798 73.4115C155.726 73.4315 155.626 73.4205 155.499 73.3785C155.105 73.2164 154.833 72.8656 154.684 72.326L154.489 71.6245C154.257 73.1612 154.006 74.7029 153.738 76.2495C154.385 76.0699 154.784 76.2499 154.934 76.7895C155.083 77.3292 154.789 77.8756 154.052 78.4289L153.254 79.1151C152.481 83.5912 152.146 86.222 152.247 87.0074C152.373 88.0187 152.166 88.5991 151.626 88.7488C151.374 88.8187 151.113 88.7166 150.844 88.4428C150.61 88.1589 150.438 87.8191 150.329 87.4234C149.979 86.1643 149.967 84.4436 150.291 82.2615C147.333 85.5618 145.633 87.8154 145.193 89.0222C144.937 89.6357 144.629 89.9922 144.269 90.092C143.766 90.2317 143.439 90.0318 143.289 89.4922C142.81 87.7654 144.538 84.8453 148.472 80.732C146.382 81.1569 145.052 80.3441 144.483 78.2935C144.065 76.0851 144.738 73.9031 146.503 71.7475C147.989 69.9794 149.739 68.816 151.753 68.2572C152.257 68.1175 152.735 68.0237 153.186 67.9759Z" fill="white"/>
<path d="M197.247 34.775C197.626 36.142 197.318 38.8038 196.323 42.7603C195.032 47.8837 194.371 50.5274 194.339 50.6912C193.987 52.4937 193.595 54.7137 193.165 57.3515C192.632 60.5987 192.277 63.3704 192.1 65.6665C191.861 68.7159 191.86 70.9442 192.095 72.3511L192.658 74.1709C192.907 75.0703 193.044 75.6329 193.068 75.8587C193.153 76.726 192.855 77.2545 192.171 77.4441C191.955 77.504 191.788 77.5309 191.67 77.5249C190.479 77.7003 189.629 76.8706 189.12 75.0359C188.691 73.489 188.502 71.4106 188.553 68.8007C188.596 66.5805 188.769 64.692 189.074 63.1354C189.58 59.9341 190.111 56.9587 190.666 54.2091C191.076 52.1968 191.596 49.8829 192.227 47.2672C192.603 45.6906 193.146 43.5255 193.854 40.7719C192.814 42.6101 191.517 45.5463 189.963 49.5805C188.697 52.8374 187.42 56.4071 186.134 60.2896C185.966 60.8011 185.034 63.6555 183.337 68.8527C183.001 69.8758 182.582 70.67 182.08 71.2354C181.614 71.7908 181.13 72.1383 180.626 72.278C180.122 72.4177 179.659 72.3526 179.235 72.0827C178.838 71.7668 178.554 71.303 178.384 70.6915C177.756 68.425 177.48 65.9639 177.557 63.308C177.606 60.9699 177.947 58.2212 178.582 55.062C179.076 52.794 179.447 50.9865 179.693 49.6397C180.019 47.8832 180.218 46.7822 180.288 46.3366C179.282 47.7391 178.074 50.7862 176.663 55.478C175.479 59.4484 174.3 63.9983 173.127 69.1278C172.102 73.6738 171.354 77.3296 170.881 80.0952C170.673 81.1603 170.483 82.2204 170.31 83.2755C170.066 84.3505 169.512 85.0078 168.649 85.2473C167.893 85.4569 167.416 85.2019 167.216 84.4824C167.047 83.8708 167.085 82.8916 167.331 81.5448C167.688 79.8962 167.93 78.7442 168.058 78.0888C168.693 74.2321 169.66 69.8959 170.958 65.0802C172.431 59.6351 173.981 54.8854 175.607 50.8313C176.961 47.4724 177.724 45.6142 177.896 45.2565C178.82 43.1406 179.565 41.636 180.131 40.743C180.915 39.5182 181.666 38.8061 182.386 38.6065C183.357 38.3371 183.968 38.652 184.217 39.5514C184.313 39.7573 184.358 40.2679 184.351 41.0832C183.01 48.1191 182.026 53.7193 181.399 57.8838C180.718 62.4119 180.646 65.6473 181.185 67.59C181.563 66.439 182.306 64.296 183.412 61.1609C184.214 58.885 185.016 56.6091 185.818 54.3332C186.773 51.6277 187.51 49.4667 188.03 47.8502C189.699 42.9707 191.214 39.3541 192.575 37.0005C193.729 35.0145 194.756 33.8967 195.655 33.6473C196.051 33.5375 196.379 33.6016 196.638 33.8395C196.924 34.0314 197.127 34.3433 197.247 34.775Z" fill="white"/>
<path d="M214.341 67.9819C214.501 68.5575 213.969 69.0149 212.746 69.3542C211.595 69.6735 210.55 69.5373 209.611 68.9454C208.672 68.3535 208.027 67.428 207.678 66.1689L207.508 65.3445C206.837 67.1188 206.166 68.4675 205.492 69.3905C204.818 70.3136 204.121 70.8749 203.402 71.0744C202.646 71.284 201.919 71.1758 201.22 70.7499C200.52 70.324 200.031 69.6074 199.752 68.6001C199.203 66.6215 199.445 63.8617 200.477 60.3209C201.536 56.7342 202.712 54.7612 204.007 54.4019C204.835 54.1724 205.303 54.2555 205.413 54.6513C205.513 55.011 205.095 56.3668 204.159 58.7186C203.087 61.418 202.518 63.6291 202.454 65.3517C202.447 66.167 202.499 66.7725 202.609 67.1683C202.759 67.7079 202.959 67.9428 203.211 67.8729C203.823 67.7033 204.563 66.5295 205.431 64.3515C206.383 61.9178 207.028 59.3561 207.367 56.6664C207.513 55.6572 207.724 54.8819 208 54.3404C208.312 53.789 208.63 53.4684 208.954 53.3786C209.781 53.149 210.355 53.6099 210.674 54.7611C210.834 55.3367 210.8 55.9852 210.574 56.7065C210.054 58.323 209.746 59.7258 209.65 60.9148C209.589 62.0939 209.684 63.1331 209.933 64.0324C210.143 64.7879 210.471 65.4135 210.919 65.9093C211.392 66.3591 211.893 66.6271 212.42 66.7132C213.521 66.9114 214.162 67.3343 214.341 67.9819Z" fill="white"/>
<path d="M227.507 55.0315C227.891 55.855 227.367 57.8792 225.937 61.1041C224.533 64.2831 223.22 66.0422 221.997 66.3815C221.241 66.591 220.552 66.2011 219.929 65.2116C219.295 64.1862 218.769 62.918 218.35 61.4071C217.696 63.0995 216.958 64.699 216.136 66.2055C215.158 67.9877 214.485 68.9107 214.115 68.9745C213.699 69.0123 213.399 68.9792 213.216 68.8753C213.032 68.7713 212.928 68.6064 212.904 68.3805C212.675 67.5531 213.418 65.6229 215.133 62.59C216.287 60.604 217.085 59.2204 217.527 58.4392C216.689 55.4173 216.108 53.2538 215.785 51.9487C215.487 50.5977 215.699 49.8224 216.418 49.6228C217.425 49.3434 218.114 49.8692 218.483 51.2003C218.573 51.524 218.711 52.1636 218.899 53.1189C219.076 54.0382 219.19 54.5878 219.24 54.7677C219.47 54.2002 219.801 53.5079 220.233 52.6907C221.331 50.6428 221.995 49.335 222.225 48.7676C222.455 48.2001 222.858 47.8365 223.433 47.6769C224.117 47.4873 224.538 47.6803 224.698 48.2559C224.828 48.7236 223.954 50.6707 222.076 54.0973C221.046 55.9714 220.415 57.3281 220.183 58.1673C220.241 58.655 220.284 59.0886 220.311 59.4683C220.365 59.8021 220.457 60.2028 220.587 60.6705C220.936 61.9296 221.434 62.4694 222.082 62.2897C222.658 62.1301 223.26 61.4399 223.89 60.2191C224.546 58.9523 225.065 57.4717 225.448 55.7772C225.684 55.0918 226.054 54.6793 226.557 54.5396C227.025 54.4098 227.342 54.5738 227.507 55.0315Z" fill="white"/>
<path d="M240.016 44.0651C240.165 44.6048 240.189 45.1793 240.087 45.7888C240.343 45.8728 240.52 46.0947 240.62 46.4545C240.82 47.174 240.696 48.8935 240.25 51.6132C239.803 54.3329 239.694 56.1064 239.924 56.9339C240.253 58.121 240.909 58.8107 241.893 59.0029C242.876 59.1951 243.467 59.651 243.667 60.3705C243.756 60.6943 243.682 60.986 243.445 61.2457C243.207 61.5054 242.854 61.7001 242.386 61.8299C241.523 62.0693 240.682 61.9731 239.865 61.5412C238.864 61.0052 238.189 60.1077 237.84 58.8486C237.78 58.6327 237.731 58.317 237.693 57.9013C237.691 57.4756 237.684 57.1678 237.67 56.978C236.709 60.4988 235.294 62.5187 233.423 63.0376C231.768 63.4966 230.513 62.6049 229.659 60.3624C228.89 57.5923 229.206 54.1921 230.607 50.1618C232.117 45.8299 234.113 43.3196 236.596 42.631C237.459 42.3915 238.198 42.3998 238.811 42.6558C239.414 42.8759 239.816 43.3456 240.016 44.0651ZM238.48 46.6995C237.969 45.834 237.353 45.501 236.634 45.7006C235.374 46.0499 234.225 47.841 233.184 51.0741C232.134 54.2711 231.838 56.6971 232.297 58.3519C232.497 59.0714 232.861 59.4743 233.388 59.5604C234.249 59.5927 235.056 58.3809 235.809 55.9252C236.699 52.8499 237.589 49.7747 238.48 46.6995Z" fill="white"/>
<path d="M250.046 56.6832C249.192 58.3536 247.937 59.4183 246.283 59.8773C245.491 60.0969 245.016 59.9188 244.856 59.3432C244.796 59.1274 244.857 58.8586 245.039 58.5369C245.257 58.2053 245.921 57.595 247.03 56.7061C248.14 55.8172 249.74 51.4603 251.831 43.6353C252.947 40.5362 254.225 38.787 255.664 38.3879C256.24 38.2282 256.592 38.3822 256.722 38.8499C256.842 39.2816 256.833 40.02 256.697 41.0651C256.068 44.8039 255.758 46.8272 255.766 47.1349C255.809 49.525 256.005 51.3497 256.354 52.6088C256.843 54.3716 257.411 55.1631 258.059 54.9835C258.742 54.7939 259.312 53.706 259.769 51.7197C259.985 50.9624 260.363 50.5089 260.902 50.3592C261.37 50.2295 261.684 50.4525 261.843 51.0281C262.063 51.8195 261.837 53.2383 261.164 55.2844C260.434 57.5404 259.601 58.798 258.666 59.0575C258.378 59.1373 258.078 59.1042 257.767 58.9582C255.842 58.446 254.491 56.7868 253.713 53.9807C253.074 51.6783 252.771 49.399 252.804 47.1428C252.275 51.2414 251.356 54.4215 250.046 56.6832Z" fill="white"/>
<path d="M266.112 49.0304C266.054 49.2402 266.014 49.4451 265.992 49.6449C266.477 49.8589 266.9 49.916 267.26 49.8162C268.123 49.5767 269.067 48.5789 270.091 46.8227C271.15 45.0564 271.546 43.6877 271.276 42.7163C271.106 42.1048 270.752 41.8738 270.212 42.0235C269.673 42.1732 269.058 42.7505 268.368 43.7555C267.984 44.3269 267.503 45.177 266.925 46.3059C266.631 47.2011 266.36 48.1093 266.112 49.0304ZM267.937 40.7367C268.263 40.3751 268.638 39.9806 269.062 39.5531C269.522 39.1156 269.968 38.837 270.399 38.7172C270.939 38.5675 271.42 38.6277 271.844 38.8976C272.258 39.1316 272.559 39.5903 272.749 40.2738C273.308 42.2884 273.014 44.7913 271.868 47.7825C270.758 50.7638 269.501 52.449 268.098 52.8381C267.342 53.0477 266.569 52.9135 265.778 52.4356C265.871 53.6107 265.576 54.2931 264.893 54.4826C264.497 54.5924 264.136 54.4794 263.811 54.1435C263.521 53.7977 263.312 53.3909 263.182 52.9233C262.755 51.1046 263.012 48.3988 263.952 44.806C264.725 41.7248 265.724 38.8324 266.95 36.129C267.116 35.8893 267.3 35.6445 267.502 35.3948C267.694 35.1091 267.916 34.9313 268.167 34.8615C268.815 34.6819 269.224 34.8978 269.393 35.5094C269.563 36.121 269.476 36.7844 269.132 37.4997C268.762 38.261 268.364 39.34 267.937 40.7367Z" fill="white"/>
<path d="M286.225 48.0424L285.811 47.8084C284.872 47.2165 284.228 46.291 283.879 45.0319L283.708 44.2075C282.41 47.6283 281.042 49.5383 279.603 49.9375C278.847 50.147 278.12 50.0388 277.421 49.6129C276.721 49.187 276.232 48.4704 275.952 47.4631C275.404 45.4845 275.645 42.7248 276.678 39.184C277.736 35.5972 278.913 33.6242 280.208 33.265C281.036 33.0354 281.504 33.1185 281.614 33.5143C281.714 33.874 281.296 35.2298 280.36 37.5816C278.827 41.416 278.311 44.2325 278.81 46.0313C278.959 46.5709 279.16 46.8058 279.412 46.7359C280.024 46.5663 280.763 45.3925 281.632 43.2145C282.584 40.7808 283.229 38.2191 283.568 35.5294C283.87 33.5471 284.399 32.4511 285.155 32.2416C285.982 32.0121 286.556 32.4729 286.875 33.6241C287.034 34.1997 287.001 34.8482 286.775 35.5695C285.819 38.5468 285.605 40.9888 286.134 42.8954L286.224 43.2192C286.465 43.8108 286.805 44.3365 287.242 44.7963C287.67 45.2201 288.148 45.4751 288.675 45.5612C289.786 45.7955 290.416 46.1824 290.566 46.722C290.816 47.6214 290.671 48.7075 290.133 49.9803C289.595 51.2531 288.877 52.0142 287.977 52.2637L287.869 52.2936C287.33 52.4433 286.99 52.2663 286.85 51.7626C286.78 51.5108 286.956 50.9583 287.378 50.1052C287.462 49.8494 287.47 49.5956 287.4 49.3438C287.3 48.984 286.908 48.5502 286.225 48.0424Z" fill="white"/>
<path d="M305.255 33.8142C305.604 35.0733 304.76 37.1283 302.723 39.9793C300.545 43.0241 298.341 44.8558 296.111 45.4745C294.996 45.7839 293.892 45.6446 292.799 45.0566C291.732 44.4228 291.029 43.4942 290.689 42.2711C290.26 40.7242 290.259 38.9036 290.685 36.8094C291.038 35.007 291.583 33.4804 292.321 32.2297C293.341 30.3196 294.305 28.9091 295.215 27.9981C296.115 27.0512 296.924 26.478 297.644 26.2784C298.327 26.0888 298.945 26.1499 299.496 26.4619C300.048 26.7739 300.408 27.2356 300.578 27.8472C300.897 28.9984 300.67 30.5531 299.896 32.5112C299.336 33.9838 298.597 35.3705 297.679 36.6711C297.289 37.3604 296.66 38.0966 295.793 38.8797C295.173 39.439 294.471 39.9823 293.688 40.5096C293.927 41.373 294.287 41.9706 294.766 42.3026C295.272 42.5885 295.866 42.6367 296.55 42.4471C297.665 42.1377 298.882 41.2189 300.202 39.6906C301.557 38.1523 302.655 36.4531 303.495 34.5929C303.881 33.7497 304.218 33.2882 304.506 33.2084C304.865 33.1086 305.115 33.3105 305.255 33.8142ZM298.299 30.1066C298.179 29.6749 297.893 29.4829 297.442 29.5307C296.866 29.6904 296.292 30.2757 295.72 31.2867C295.269 32.0319 294.792 33.036 294.29 34.2988C293.813 35.5156 293.482 36.5567 293.296 37.4219C294.483 37.0926 295.679 36.0249 296.882 34.2188C298.086 32.4126 298.558 31.0419 298.299 30.1066Z" fill="white"/>
<path d="M316.808 26.0183C316.489 24.8671 315.952 24.3963 315.196 24.6059C314.441 24.8154 313.628 25.7964 312.758 27.5486C312.268 28.5757 311.677 30.0762 310.985 32.0504C310.6 34.0167 310.229 35.96 309.871 37.8804C310.59 38.3782 311.237 38.5473 311.813 38.3877C313.072 38.0384 314.347 36.3482 315.637 33.3171C316.917 30.25 317.307 27.8171 316.808 26.0183ZM321.438 5.20762C321.309 4.73994 321.01 4.57097 320.542 4.70069C319.247 5.05993 317.703 7.73524 315.911 12.7266C314.507 16.603 313.556 19.8111 313.06 22.3509C314.137 20.9284 314.977 19.7657 315.579 18.8626C316.399 17.6279 317.381 15.9995 318.524 13.9776C319.408 12.4151 320.167 10.7517 320.801 8.98737C321.426 7.18703 321.638 5.92711 321.438 5.20762ZM309.935 25.5422L309.944 25.3654C310.501 23.0414 311.116 20.7205 311.79 18.4026C314.145 10.2719 316.644 4.75522 319.287 1.8525C319.851 1.23121 320.447 0.794771 321.074 0.5432C322.297 0.203921 323.139 0.861694 323.598 2.51654C324.206 4.71102 323.696 7.7584 322.065 11.6587C320.723 14.7817 318.814 18.0234 316.336 21.3839C316.968 21.2862 317.514 21.3673 317.973 21.6273C318.525 21.9392 318.935 22.5809 319.204 23.5522C319.983 26.3582 319.605 29.8143 318.071 33.9205C316.536 38.0267 314.78 40.3542 312.801 40.903C311.686 41.2124 310.616 40.9862 309.591 40.2244C309.597 40.8039 309.426 41.3744 309.078 41.9358C308.73 42.4973 308.34 42.8378 307.908 42.9576C307.421 43.0154 307.077 42.6845 306.878 41.965C306.742 40.9178 307.037 38.6277 307.761 35.0948L309.284 28.2218C309.496 27.3106 309.713 26.4174 309.935 25.5422Z" fill="white"/>
<path d="M336.863 33.9961C337.023 34.5717 336.491 35.0291 335.268 35.3684C334.117 35.6877 333.072 35.5515 332.133 34.9596C331.194 34.3677 330.55 33.4422 330.2 32.1831L330.03 31.3587C329.36 33.133 328.688 34.4817 328.014 35.4047C327.34 36.3277 326.643 36.889 325.924 37.0886C325.168 37.2982 324.441 37.19 323.742 36.7641C323.043 36.3382 322.553 35.6216 322.274 34.6143C321.725 32.6356 321.967 29.8759 322.999 26.3351C324.058 22.7484 325.234 20.7754 326.53 20.4161C327.357 20.1866 327.826 20.2697 327.935 20.6654C328.035 21.0252 327.617 22.3809 326.681 24.7327C325.609 27.4322 325.04 29.6432 324.976 31.3658C324.97 32.1812 325.021 32.7867 325.131 33.1824C325.281 33.7221 325.481 33.9569 325.733 33.8871C326.345 33.7175 327.085 32.5437 327.953 30.3657C328.905 27.932 329.55 25.3703 329.889 22.6805C330.035 21.6714 330.246 20.8961 330.522 20.3546C330.834 19.8032 331.152 19.4826 331.476 19.3927C332.303 19.1632 332.877 19.6241 333.196 20.7753C333.356 21.3509 333.323 21.9993 333.097 22.7207C332.576 24.3372 332.268 25.74 332.172 26.929C332.111 28.108 332.206 29.1472 332.455 30.0466C332.665 30.8021 332.993 31.4277 333.441 31.9235C333.914 32.3733 334.415 32.6413 334.942 32.7274C336.043 32.9256 336.684 33.3485 336.863 33.9961Z" fill="white"/>
<path d="M345.494 30.6724C343.588 32.3244 342.071 33.2101 340.942 33.3296C339.787 33.495 339.113 32.8103 338.92 31.2755C338.78 30.0744 338.84 28.6825 339.098 27.0999L339.645 24.0425L338.658 24.258C338.325 24.3118 337.979 24.2527 337.621 24.0807C336.496 23.6567 335.828 22.5053 335.617 20.6268C335.495 19.7694 335.523 18.5414 335.699 16.9427C335.884 14.9544 336.482 13.8974 337.493 13.7719C337.837 13.754 338.043 14.0069 338.11 14.5305C338.144 14.7923 338.116 15.1101 338.026 15.4837C337.778 16.4049 337.725 17.3302 337.866 18.2595C337.918 18.865 338.063 19.3866 338.3 19.8244C338.538 20.2621 338.806 20.4591 339.103 20.4152C339.401 20.3713 339.701 20.0557 340.003 19.4683C340.429 18.0716 340.815 16.8796 341.161 15.8926C341.507 14.9055 341.888 14.393 342.304 14.3552C342.53 14.3313 342.848 14.3594 343.257 14.4395C343.657 14.4836 343.903 14.8804 343.994 15.6298C344.102 16.2973 343.506 19.0389 342.208 23.8546C341.581 26.6242 341.305 28.2118 341.379 28.6175C341.47 29.3669 341.832 29.6928 342.463 29.5951C342.951 29.5373 343.99 28.7454 345.582 27.2191C345.934 26.8116 346.317 26.5889 346.733 26.5511C347.375 26.4894 347.714 26.6664 347.752 27.082C347.844 27.8315 347.091 29.0283 345.494 30.6724Z" fill="white"/>
</svg>
