<svg width="64" height="64" viewBox="0 0 64 64" fill="none" xmlns="http://www.w3.org/2000/svg">
<circle cx="32" cy="32" r="32" fill="white"/>
<path d="M22.3261 50.0077L12.5663 55.2793C11.9936 55.5885 11.4789 55.9686 11 56.3829C16.6902 61.1338 24.0356 64 32.0611 64C40.0274 64 47.3259 61.1766 53 56.4905C52.4767 56.0529 51.9089 55.6594 51.2794 55.3489L40.8284 50.1751C39.4781 49.5066 38.6252 48.1401 38.6252 46.6453V42.585C38.9189 42.2537 39.2547 41.8284 39.6139 41.3261C41.0383 39.3338 42.1158 37.1423 42.8626 34.8432C44.203 34.4338 45.1905 33.2079 45.1905 31.7509V27.4169C45.1905 26.4635 44.7622 25.6116 44.0969 25.0151V18.7499C44.0969 18.7499 45.3966 9 32.0623 9C18.728 9 20.0278 18.7499 20.0278 18.7499V25.0151C19.3612 25.6116 18.9342 26.4635 18.9342 27.4169V31.7509C18.9342 32.8925 19.5402 33.8972 20.4474 34.4778C21.541 39.192 24.4047 42.585 24.4047 42.585V46.5451C24.4034 47.9873 23.606 49.3159 22.3261 50.0077Z" fill="#EDF7FD"/>
</svg>
