<svg width="201" height="201" viewBox="0 0 201 201" fill="none" xmlns="http://www.w3.org/2000/svg">
<circle opacity="0.4" cx="100.058" cy="100.058" r="81.3112" transform="rotate(-15.4743 100.058 100.058)" fill="white"/>
<circle opacity="0.6" cx="100.058" cy="100.058" r="70.6582" transform="rotate(-15.4743 100.058 100.058)" fill="white"/>
<circle cx="100.058" cy="100.058" r="61.4659" transform="rotate(-15.4743 100.058 100.058)" fill="url(#paint0_linear_15_502)"/>
<path d="M73.9398 101.969L78.3942 85.3445L85.2338 87.1771C86.7062 87.5717 87.9012 88.1464 88.8189 88.9014C89.7524 89.6606 90.3853 90.5599 90.7177 91.5992C91.0501 92.6385 91.053 93.7678 90.7264 94.9868C90.3997 96.2059 89.8326 97.1824 89.0251 97.9163C88.2175 98.6502 87.2197 99.1125 86.0317 99.3033C84.8595 99.4983 83.5372 99.3985 82.0648 99.004L76.9351 97.6295L78.7007 96.5499L77.0271 102.796L73.9398 101.969ZM78.6116 96.8823L77.6351 95.0171L82.6223 96.3534C83.9839 96.7183 85.0814 96.7069 85.9149 96.3194C86.7685 95.9202 87.3353 95.1982 87.6153 94.1532C87.8995 93.0925 87.7697 92.1838 87.2258 91.4271C86.6977 90.6748 85.7529 90.1161 84.3913 89.7513L79.4041 88.415L81.1888 87.2642L78.6116 96.8823Z" fill="white"/>
<path d="M90.9395 106.524L95.3939 89.8995L102.661 91.8468C104.466 92.3304 105.956 93.1029 107.131 94.1644C108.306 95.2258 109.108 96.4758 109.537 97.9144C109.966 99.353 109.955 100.911 109.506 102.59C109.06 104.252 108.29 105.607 107.195 106.654C106.104 107.685 104.785 108.367 103.236 108.699C101.688 109.03 100.011 108.954 98.2066 108.471L90.9395 106.524ZM94.7268 104.738L98.7641 105.82C100.015 106.155 101.155 106.206 102.185 105.973C103.23 105.744 104.113 105.268 104.833 104.545C105.569 103.825 106.089 102.896 106.395 101.756C106.704 100.6 106.718 99.5349 106.437 98.56C106.175 97.5736 105.648 96.7198 104.857 95.9988C104.082 95.282 103.069 94.7561 101.818 94.4209L97.7812 93.3391L94.7268 104.738Z" fill="white"/>
<path d="M115.791 103.561L124.08 105.782L123.38 108.394L115.091 106.173L115.791 103.561ZM113.647 112.608L110.56 111.781L115.014 95.1568L127.15 98.4085L126.456 100.997L117.408 98.5727L113.647 112.608Z" fill="white"/>
<path d="M146.212 91.308C146.107 90.7813 146.097 90.2774 146.181 89.7962C146.272 89.3137 146.445 88.8772 146.7 88.4868C146.955 88.0963 147.28 87.7646 147.676 87.4915C148.074 87.2252 148.529 87.0408 149.043 86.9385C149.556 86.8361 150.047 86.8318 150.516 86.9254C150.987 87.0256 151.415 87.2072 151.8 87.4701C152.186 87.7396 152.511 88.0804 152.773 88.4925C153.042 88.9032 153.229 89.3719 153.334 89.8986C153.435 90.4052 153.443 90.8991 153.359 91.3803C153.282 91.8602 153.103 92.2874 152.824 92.6618L152.261 92.2855C152.497 91.9404 152.644 91.5819 152.701 91.21C152.766 90.8367 152.758 90.4501 152.678 90.0501C152.594 89.6302 152.443 89.2548 152.225 88.9241C152.013 88.592 151.747 88.3192 151.427 88.1057C151.114 87.8909 150.766 87.742 150.382 87.6592C150.006 87.5816 149.608 87.5847 149.188 87.6684C148.768 87.7522 148.396 87.9026 148.072 88.1197C147.756 88.3421 147.491 88.6132 147.278 88.933C147.071 89.2515 146.93 89.6054 146.855 89.9946C146.787 90.3825 146.795 90.7864 146.878 91.2064C146.958 91.6064 147.099 91.9664 147.302 92.2865C147.504 92.6065 147.781 92.8807 148.131 93.1088L147.755 93.6725C147.354 93.4336 147.022 93.1082 146.759 92.6961C146.497 92.284 146.315 91.8213 146.212 91.308Z" fill="white"/>
<path d="M146.932 95.336L152.279 95.0831L152.506 99.8903L147.159 100.143L147.125 99.4201L152.034 99.1879L151.849 99.3804L151.673 95.6527L151.875 95.8269L146.966 96.0591L146.932 95.336Z" fill="white"/>
<path d="M146.802 104.92C146.848 104.461 146.995 104.055 147.242 103.704C147.496 103.354 147.834 103.087 148.255 102.904C148.683 102.728 149.187 102.67 149.769 102.728C150.35 102.787 150.83 102.944 151.207 103.201C151.591 103.458 151.869 103.783 152.042 104.176C152.214 104.569 152.277 104.999 152.23 105.466C152.179 105.973 152.018 106.415 151.748 106.791C151.484 107.174 151.135 107.46 150.699 107.648C150.27 107.838 149.788 107.905 149.254 107.852C148.713 107.797 148.251 107.635 147.868 107.364C147.486 107.093 147.2 106.743 147.011 106.315C146.821 105.892 146.751 105.428 146.802 104.92ZM145.161 101.978L152.455 102.711L152.386 103.401L150.783 103.24L149.725 103.062L148.639 103.056L145.089 102.699L145.161 101.978ZM147.446 104.934C147.408 105.313 147.459 105.659 147.598 105.974C147.744 106.289 147.964 106.55 148.257 106.757C148.557 106.965 148.914 107.09 149.326 107.131C149.739 107.173 150.11 107.121 150.438 106.977C150.767 106.832 151.034 106.62 151.24 106.34C151.446 106.06 151.568 105.731 151.606 105.352C151.644 104.973 151.59 104.623 151.445 104.301C151.299 103.985 151.079 103.724 150.786 103.517C150.492 103.317 150.139 103.196 149.726 103.154C149.313 103.113 148.94 103.161 148.605 103.298C148.276 103.443 148.009 103.655 147.803 103.935C147.603 104.222 147.484 104.555 147.446 104.934Z" fill="white"/>
<path d="M145.564 112.035L146.714 112.309L146.91 112.324L148.834 112.783C149.277 112.888 149.648 112.844 149.946 112.649C150.242 112.462 150.448 112.123 150.565 111.634C150.645 111.296 150.666 110.962 150.626 110.631C150.586 110.3 150.499 110.007 150.364 109.751L150.965 109.559C151.127 109.877 151.223 110.236 151.254 110.634C151.291 111.035 151.261 111.44 151.163 111.85C151.003 112.524 150.71 113.003 150.286 113.286C149.868 113.578 149.318 113.642 148.636 113.48L145.403 112.709L145.564 112.035ZM145.942 110.228C146.035 109.838 146.179 109.512 146.374 109.251C146.574 108.998 146.805 108.823 147.066 108.724C147.334 108.627 147.616 108.614 147.914 108.685C148.185 108.75 148.414 108.871 148.603 109.048C148.796 109.234 148.924 109.488 148.987 109.811C149.055 110.142 149.03 110.555 148.912 111.051L148.484 112.846L147.958 112.721L148.381 110.945C148.501 110.443 148.495 110.071 148.364 109.83C148.231 109.596 148.033 109.447 147.768 109.384C147.47 109.313 147.205 109.372 146.971 109.561C146.737 109.75 146.571 110.053 146.472 110.469C146.377 110.866 146.385 111.228 146.496 111.555C146.612 111.89 146.826 112.164 147.138 112.378L146.614 112.421C146.302 112.207 146.083 111.91 145.957 111.531C145.829 111.158 145.824 110.724 145.942 110.228Z" fill="white"/>
<path d="M144.791 114.774L149.79 116.691L148.943 118.899C148.726 119.464 148.448 119.867 148.108 120.108C147.766 120.356 147.385 120.399 146.966 120.238C146.56 120.083 146.305 119.807 146.202 119.41C146.106 119.017 146.155 118.566 146.35 118.058L146.498 118.268C146.27 118.865 145.991 119.26 145.662 119.454C145.332 119.648 144.958 119.665 144.539 119.504C144.108 119.339 143.832 119.051 143.713 118.641C143.597 118.24 143.666 117.71 143.919 117.05L144.791 114.774ZM145.073 115.636L144.463 117.226C144.3 117.651 144.244 117.997 144.294 118.264C144.349 118.539 144.528 118.736 144.833 118.853C145.138 118.969 145.397 118.956 145.613 118.813C145.828 118.67 146.017 118.385 146.18 117.96L146.815 116.304L145.073 115.636ZM147.319 116.497L146.743 118.001C146.594 118.389 146.554 118.712 146.622 118.971C146.688 119.236 146.86 119.422 147.14 119.529C147.419 119.637 147.668 119.612 147.888 119.456C148.106 119.307 148.289 119.038 148.437 118.651L149.014 117.147L147.319 116.497Z" fill="white"/>
<path d="M141.42 122.342C141.665 121.887 141.987 121.531 142.387 121.276C142.79 121.029 143.227 120.898 143.699 120.881C144.177 120.868 144.649 120.987 145.116 121.239C145.589 121.493 145.949 121.822 146.195 122.224C146.442 122.627 146.57 123.063 146.58 123.531C146.591 124 146.472 124.465 146.224 124.926C145.973 125.393 145.649 125.751 145.252 126.001C144.852 126.256 144.418 126.389 143.949 126.4C143.477 126.416 143.005 126.297 142.532 126.043C142.065 125.791 141.705 125.463 141.453 125.057C141.203 124.66 141.072 124.223 141.059 123.745C141.051 123.27 141.172 122.803 141.42 122.342ZM141.986 122.646C141.802 122.987 141.714 123.33 141.722 123.674C141.736 124.021 141.841 124.343 142.035 124.641C142.233 124.948 142.514 125.2 142.88 125.396C143.251 125.596 143.616 125.692 143.975 125.684C144.331 125.683 144.654 125.591 144.946 125.408C145.243 125.228 145.482 124.971 145.662 124.635C145.843 124.3 145.926 123.959 145.912 123.612C145.904 123.268 145.804 122.944 145.612 122.64C145.421 122.336 145.139 122.085 144.768 121.885C144.403 121.689 144.038 121.593 143.673 121.597C143.314 121.604 142.986 121.698 142.688 121.878C142.397 122.061 142.163 122.317 141.986 122.646Z" fill="white"/>
<path d="M139.357 129.847C139.43 129.514 139.526 129.194 139.647 128.887C139.769 128.59 139.921 128.314 140.104 128.06C140.474 127.548 140.882 127.226 141.328 127.095C141.78 126.968 142.251 127.081 142.742 127.435L144.165 128.46L143.747 129.039L142.358 128.038C142.027 127.799 141.701 127.728 141.381 127.824C141.06 127.92 140.769 128.15 140.507 128.514C140.348 128.734 140.208 128.986 140.089 129.268C139.974 129.555 139.883 129.862 139.815 130.189L139.357 129.847ZM137.557 128.474L141.9 131.604L141.476 132.191L137.133 129.062L137.557 128.474Z" fill="white"/>
<path d="M135.865 130.666L139.746 134.353L139.248 134.878L137.533 133.248L135.208 135.695L136.923 137.324L136.425 137.849L132.544 134.162L133.042 133.637L134.757 135.267L137.082 132.82L135.367 131.191L135.865 130.666Z" fill="white"/>
<path d="M131.147 135.461L134.457 139.669L133.888 140.116L131.259 136.774L131.075 142.329L130.57 142.726L127.26 138.518L127.829 138.071L130.464 141.421L130.634 135.865L131.147 135.461Z" fill="white"/>
<path d="M122.377 141.51L125.618 142.681L125.28 143.293L121.638 141.944L122.377 141.51ZM125.762 139.523L128.472 144.139L127.848 144.505L125.138 139.889L125.762 139.523ZM126.539 141.833L126.854 142.369L125.368 143.242L125.053 142.705L126.539 141.833ZM125.021 142.973L125.653 142.72L125.158 146.085L124.481 146.483L125.021 142.973Z" fill="white"/>
<path d="M118.221 143.516L120.023 148.557L115.492 150.177L113.69 145.137L114.371 144.893L116.026 149.521L115.788 149.4L119.302 148.144L119.194 148.388L117.54 143.76L118.221 143.516Z" fill="white"/>
<path d="M109.47 146.091C109.976 145.986 110.456 146.005 110.909 146.147C111.356 146.297 111.738 146.547 112.054 146.898C112.371 147.256 112.583 147.694 112.691 148.214C112.8 148.739 112.78 149.226 112.629 149.674C112.479 150.122 112.228 150.5 111.876 150.809C111.523 151.118 111.091 151.326 110.578 151.432C110.059 151.54 109.576 151.522 109.13 151.378C108.677 151.236 108.296 150.989 107.987 150.637C107.671 150.286 107.459 149.847 107.35 149.321C107.242 148.802 107.263 148.315 107.411 147.861C107.555 147.415 107.805 147.033 108.163 146.716C108.522 146.406 108.958 146.197 109.47 146.091ZM109.601 146.72C109.222 146.798 108.903 146.951 108.644 147.179C108.387 147.412 108.207 147.7 108.105 148.04C107.996 148.389 107.984 148.766 108.069 149.172C108.154 149.585 108.315 149.926 108.552 150.197C108.782 150.468 109.06 150.657 109.388 150.763C109.716 150.875 110.067 150.893 110.44 150.815C110.813 150.738 111.127 150.582 111.384 150.349C111.643 150.121 111.827 149.837 111.936 149.495C112.046 149.153 112.058 148.775 111.972 148.363C111.888 147.957 111.727 147.615 111.489 147.338C111.252 147.068 110.97 146.877 110.641 146.764C110.314 146.659 109.967 146.644 109.601 146.72Z" fill="white"/>
<path d="M106.612 146.756L106.607 147.38C106.559 147.377 106.514 147.37 106.473 147.359C106.425 147.356 106.384 147.355 106.35 147.358C106.133 147.374 105.966 147.468 105.85 147.64C105.726 147.813 105.64 148.038 105.593 148.314C105.545 148.59 105.52 148.899 105.518 149.239C105.517 149.587 105.519 149.935 105.524 150.282L105.573 152.19L101.658 152.48L101.263 147.142L101.985 147.088L102.349 152.01L102.151 151.81L105.059 151.594L104.902 151.831L104.869 150.279C104.855 149.817 104.86 149.373 104.883 148.949C104.899 148.525 104.95 148.15 105.035 147.823C105.113 147.497 105.237 147.236 105.406 147.039C105.576 146.85 105.804 146.744 106.088 146.723C106.17 146.717 106.255 146.717 106.344 146.724C106.426 146.732 106.516 146.742 106.612 146.756Z" fill="white"/>
<path d="M97.0394 150.485C96.3677 150.443 95.8662 150.268 95.5349 149.958C95.1969 149.648 95.042 149.218 95.0702 148.668C95.0995 148.098 95.3121 147.67 95.7079 147.384C96.0969 147.098 96.6477 146.976 97.3602 147.02L99.5184 147.141L99.244 152.487L98.521 152.45L98.6167 150.586L97.0394 150.485ZM97.3727 147.572C96.8774 147.539 96.499 147.619 96.2374 147.809C95.9686 148.007 95.824 148.306 95.8034 148.706C95.7828 149.107 95.8935 149.405 96.1352 149.601C96.3766 149.804 96.7484 149.922 97.2504 149.954L98.6444 150.046L98.7667 147.664L97.3727 147.572Z" fill="white"/>
<path d="M92.6329 146.455C93.015 146.519 93.3846 146.637 93.7418 146.808C94.0991 146.978 94.4031 147.199 94.654 147.468L94.3327 147.962C94.1097 147.732 93.8391 147.538 93.521 147.38C93.2017 147.23 92.8779 147.127 92.5494 147.072C92.2199 147.023 91.9271 147.022 91.6711 147.068C91.4151 147.114 91.207 147.203 91.0469 147.335C90.8868 147.466 90.7904 147.629 90.7576 147.824C90.71 148.105 90.8006 148.345 91.0292 148.542C91.2567 148.746 91.5917 148.885 92.0341 148.96L92.9389 149.112L92.8506 149.635L91.996 149.491C91.7346 149.447 91.4977 149.441 91.2853 149.474C91.0729 149.507 90.9024 149.579 90.7736 149.688C90.6381 149.796 90.5557 149.937 90.5263 150.111C90.4946 150.299 90.5344 150.471 90.6458 150.628C90.7505 150.783 90.9112 150.914 91.1277 151.019C91.3443 151.125 91.5967 151.202 91.8849 151.251C92.1474 151.288 92.4257 151.294 92.7196 151.268C93.0125 151.248 93.3082 151.191 93.6068 151.097L93.7144 151.684C93.3789 151.793 93.0536 151.862 92.7384 151.891C92.4154 151.926 92.0997 151.918 91.7914 151.866C91.3668 151.808 90.9966 151.694 90.6808 151.523C90.3582 151.351 90.1144 151.141 89.9496 150.893C89.7836 150.651 89.7255 150.383 89.7753 150.088C89.8195 149.826 89.9384 149.612 90.1321 149.445C90.3258 149.278 90.5658 149.163 90.852 149.101C91.1382 149.039 91.4522 149.037 91.7941 149.095L91.7316 149.281C91.1284 149.179 90.679 148.982 90.3835 148.691C90.0813 148.399 89.9642 148.052 90.0321 147.649C90.0853 147.334 90.2362 147.074 90.4847 146.868C90.7321 146.668 91.0448 146.531 91.4227 146.457C91.7938 146.382 92.1973 146.381 92.6329 146.455Z" fill="white"/>
<path d="M86.5625 145.069C87.0571 145.218 87.4696 145.463 87.7998 145.804C88.1216 146.15 88.3375 146.552 88.4475 147.011C88.5556 147.477 88.533 147.964 88.3799 148.471C88.2249 148.985 87.9746 149.403 87.629 149.725C87.2835 150.047 86.8821 150.26 86.4249 150.363C85.9677 150.467 85.4885 150.443 84.9874 150.292C84.4798 150.139 84.0641 149.893 83.7404 149.553C83.4101 149.212 83.1932 148.813 83.0897 148.356C82.9797 147.897 83.0022 147.41 83.1573 146.896C83.3104 146.389 83.5607 145.971 83.9082 145.642C84.2472 145.319 84.6496 145.103 85.1153 144.995C85.579 144.893 86.0614 144.918 86.5625 145.069ZM86.377 145.684C86.0061 145.572 85.6529 145.554 85.3175 145.631C84.9801 145.714 84.6849 145.88 84.4319 146.13C84.1705 146.385 83.9799 146.711 83.8601 147.108C83.7385 147.512 83.7171 147.889 83.796 148.239C83.8684 148.587 84.0233 148.886 84.2605 149.135C84.4959 149.391 84.7957 149.574 85.1602 149.683C85.5246 149.793 85.8756 149.807 86.2129 149.724C86.5484 149.648 86.8458 149.485 87.1053 149.237C87.3648 148.989 87.5554 148.663 87.6771 148.259C87.7968 147.862 87.8182 147.485 87.7412 147.128C87.6623 146.778 87.5052 146.475 87.2699 146.22C87.0326 145.97 86.735 145.792 86.377 145.684Z" fill="white"/>
<path d="M82.8516 143.889L80.6649 148.775L78.5057 147.809C77.9535 147.562 77.5664 147.262 77.3444 146.91C77.1162 146.554 77.0937 146.172 77.2769 145.762C77.4547 145.365 77.7441 145.126 78.1453 145.045C78.5437 144.97 78.9911 145.044 79.4875 145.266L79.2697 145.403C78.6865 145.142 78.307 144.842 78.1312 144.503C77.9554 144.163 77.9591 143.789 78.1424 143.379C78.3312 142.957 78.6334 142.698 79.0492 142.601C79.4559 142.508 79.982 142.605 80.6272 142.894L82.8516 143.889ZM81.9762 144.123L80.4219 143.428C80.0062 143.242 79.6637 143.166 79.3945 143.202C79.1162 143.242 78.9105 143.41 78.7772 143.708C78.6439 144.006 78.6429 144.266 78.7741 144.489C78.9054 144.711 79.1789 144.916 79.5946 145.102L81.2139 145.826L81.9762 144.123ZM80.9932 146.32L79.5227 145.662C79.1442 145.492 78.8238 145.434 78.5614 145.488C78.2928 145.539 78.0974 145.701 77.9752 145.974C77.853 146.247 77.8638 146.498 78.0074 146.726C78.1449 146.951 78.4029 147.149 78.7813 147.318L80.2518 147.976L80.9932 146.32Z" fill="white"/>
<path d="M74.476 139.543L73.8561 140.551L73.7806 140.732L72.7439 142.416C72.5052 142.804 72.4318 143.17 72.5235 143.514C72.6095 143.854 72.8666 144.156 73.295 144.42C73.5903 144.601 73.9013 144.725 74.2282 144.79C74.5551 144.856 74.861 144.864 75.146 144.816L75.1407 145.448C74.788 145.502 74.4175 145.481 74.0291 145.386C73.6373 145.297 73.2618 145.141 72.9029 144.921C72.3124 144.557 71.9488 144.13 71.8121 143.639C71.666 143.15 71.7765 142.607 72.1434 142.011L73.8855 139.18L74.476 139.543ZM76.0745 140.467C76.4161 140.677 76.6804 140.916 76.8674 141.183C77.0451 141.451 77.1399 141.725 77.1519 142.004C77.1604 142.289 77.0845 142.561 76.9242 142.822C76.7781 143.059 76.5913 143.239 76.3637 143.363C76.1268 143.488 75.8454 143.531 75.5194 143.49C75.1841 143.451 74.7993 143.298 74.3651 143.031L72.7934 142.064L73.0766 141.603L74.631 142.56C75.071 142.831 75.4259 142.941 75.6957 142.892C75.9598 142.839 76.1631 142.697 76.3056 142.465C76.4659 142.205 76.4929 141.934 76.3864 141.653C76.28 141.372 76.0444 141.119 75.6797 140.895C75.3324 140.681 74.9861 140.576 74.641 140.579C74.2865 140.584 73.9588 140.702 73.6577 140.931L73.7807 140.42C74.0817 140.191 74.4322 140.075 74.8321 140.074C75.2262 140.069 75.6403 140.2 76.0745 140.467Z" fill="white"/>
<path d="M71.3332 137.311L68.2883 141.169L68.2643 140.903L70.001 142.274L69.6094 142.77L65.8557 139.808L66.2473 139.311L67.9841 140.682L67.72 140.721L70.7649 136.863L71.3332 137.311Z" fill="white"/>
<path d="M66.8291 133.288C67.2247 133.68 67.4905 134.107 67.6267 134.568C67.7582 135.034 67.7646 135.495 67.646 135.952C67.5227 136.414 67.2742 136.833 66.9006 137.21C66.5271 137.586 66.117 137.84 65.6704 137.971C65.2191 138.097 64.7721 138.104 64.3295 137.99C63.8772 137.876 63.4751 137.645 63.123 137.295C62.766 136.941 62.5315 136.545 62.4194 136.108C62.2977 135.671 62.3033 135.226 62.4363 134.774C62.5645 134.326 62.8178 133.912 63.1962 133.531C63.2201 133.507 63.2489 133.483 63.2825 133.459C63.3064 133.435 63.3327 133.408 63.3615 133.379L66.668 136.662L66.2872 137.046L63.2557 134.036L63.6091 134.085C63.3361 134.36 63.1545 134.663 63.0644 134.995C62.9646 135.327 62.9561 135.654 63.039 135.976C63.1218 136.298 63.2959 136.59 63.5612 136.854C63.8217 137.112 64.1155 137.284 64.4426 137.37C64.7698 137.455 65.099 137.447 65.4303 137.345C65.7616 137.242 66.0661 137.051 66.3439 136.772L66.423 136.692C66.7103 136.403 66.9015 136.085 66.9964 135.738C67.0817 135.392 67.0732 135.044 66.9711 134.693C66.8593 134.343 66.6563 134.021 66.362 133.729C66.1305 133.499 65.8752 133.327 65.596 133.213C65.312 133.093 65.0138 133.046 64.7014 133.072L64.7425 132.451C65.1125 132.416 65.478 132.473 65.839 132.621C66.1952 132.764 66.5252 132.986 66.8291 133.288Z" fill="white"/>
<path d="M64.7073 131.287L64.1831 131.625C64.1595 131.584 64.1407 131.542 64.1266 131.502C64.103 131.46 64.0808 131.425 64.0601 131.398C63.9276 131.226 63.7573 131.138 63.5492 131.135C63.337 131.127 63.1024 131.179 62.8454 131.29C62.5884 131.402 62.3169 131.551 62.0308 131.736C61.7394 131.926 61.45 132.118 61.1627 132.314L59.595 133.403L57.2028 130.29L61.4472 127.028L61.8883 127.602L57.9755 130.609L58.0334 130.333L59.8104 132.646L59.5269 132.645L60.8055 131.765C61.1844 131.5 61.5575 131.26 61.9248 131.046C62.2879 130.827 62.6293 130.663 62.9489 130.555C63.2644 130.441 63.5508 130.401 63.8081 130.435C64.0601 130.473 64.2731 130.605 64.447 130.831C64.4967 130.896 64.5431 130.967 64.5862 131.046C64.6251 131.118 64.6655 131.199 64.7073 131.287Z" fill="white"/>
<path d="M58.7931 122.689L57.1276 123.658L57.1931 123.467L58.1061 125.035C58.4515 125.629 58.5924 126.168 58.5288 126.653C58.4652 127.139 58.1867 127.525 57.6932 127.812C57.1645 128.12 56.6666 128.17 56.1995 127.962C55.7265 127.757 55.3157 127.356 54.9669 126.756L53.8333 124.809L58.4597 122.116L58.7931 122.689ZM60.7628 126.073L58.2441 125.84L57.8645 125.188L60.3678 125.394L60.7628 126.073ZM56.9426 123.766L54.528 125.171L54.6464 124.949L55.503 126.421C55.7526 126.85 56.0298 127.137 56.3345 127.282C56.6357 127.421 56.9714 127.383 57.3415 127.167C58.0289 126.767 58.1178 126.13 57.6083 125.254L56.7261 123.739L56.9426 123.766Z" fill="white"/>
<path d="M49.5987 117.836L50.8493 118.86L50.6972 118.919L50.9294 117.32L51.4135 117.383L51.1644 118.968L51.0763 118.882L52.5306 118.317L52.7004 118.754L51.2424 119.309L51.253 119.196L52.5021 120.187L52.1914 120.571L50.9371 119.537L51.0892 119.478L50.8607 121.087L50.3729 121.014L50.6257 119.439L50.7101 119.516L49.2595 120.09L49.0898 119.653L50.544 119.088L50.5371 119.211L49.2843 118.21L49.5987 117.836Z" fill="white"/>
<path d="M53.9408 109.012C54.0478 109.538 54.0601 110.042 53.9777 110.523C53.8886 111.006 53.7174 111.443 53.4641 111.835C53.2107 112.226 52.8865 112.559 52.4915 112.834C52.0951 113.102 51.6404 113.288 51.1275 113.392C50.6146 113.496 50.1234 113.503 49.6538 113.411C49.1829 113.313 48.7544 113.133 48.3683 112.871C47.9808 112.603 47.6551 112.264 47.3911 111.853C47.1205 111.443 46.9317 110.975 46.8247 110.449C46.7217 109.942 46.7114 109.448 46.7939 108.967C46.8696 108.487 47.0462 108.059 47.3236 107.683L47.8887 108.058C47.6539 108.404 47.5084 108.763 47.4523 109.135C47.3895 109.508 47.3988 109.895 47.4801 110.295C47.5654 110.714 47.7179 111.089 47.9376 111.419C48.1507 111.75 48.4175 112.022 48.7381 112.234C49.0521 112.448 49.4012 112.595 49.7854 112.677C50.1616 112.753 50.5595 112.748 50.9792 112.663C51.3988 112.577 51.7703 112.426 52.0935 112.207C52.4087 111.984 52.6725 111.711 52.8847 111.391C53.0903 111.072 53.2298 110.717 53.3032 110.328C53.3699 109.939 53.3606 109.536 53.2753 109.116C53.194 108.716 53.0515 108.357 52.8478 108.038C52.6442 107.718 52.3667 107.445 52.0153 107.218L52.3894 106.653C52.7915 106.891 53.1245 107.215 53.3884 107.626C53.6524 108.037 53.8365 108.499 53.9408 109.012Z" fill="white"/>
<path d="M53.2043 105.031L47.8583 105.304L47.6126 100.497L52.9587 100.224L52.9956 100.947L48.0874 101.198L48.2715 101.005L48.462 104.732L48.2592 104.558L53.1674 104.308L53.2043 105.031Z" fill="white"/>
<path d="M53.2712 95.6039C53.2285 96.0642 53.0849 96.4707 52.8405 96.8235C52.5893 97.1756 52.2537 97.4448 51.8336 97.6311C51.4074 97.8099 50.9032 97.8723 50.3211 97.8182C49.739 97.7641 49.2584 97.6103 48.8792 97.3566C48.4932 97.1023 48.2126 96.7792 48.0374 96.3875C47.8621 95.9957 47.7962 95.5663 47.8396 95.0993C47.8868 94.5917 48.044 94.1489 48.3112 93.7709C48.5723 93.3856 48.9199 93.097 49.3542 92.9053C49.7817 92.7129 50.2628 92.6415 50.7975 92.6912C51.3389 92.7415 51.802 92.9006 52.1868 93.1684C52.5715 93.4363 52.86 93.7839 53.0524 94.2114C53.2455 94.6321 53.3184 95.0963 53.2712 95.6039ZM54.9344 98.5336L47.6347 97.8554L47.6989 97.165L49.303 97.314L50.3624 97.4841L51.448 97.4826L55.0014 97.8127L54.9344 98.5336ZM52.6269 95.5953C52.6621 95.2162 52.6089 94.87 52.4674 94.5564C52.3191 94.2423 52.0974 93.9827 51.8024 93.7778C51.5007 93.5723 51.1434 93.4504 50.7305 93.412C50.3176 93.3736 49.9473 93.428 49.6196 93.575C49.292 93.7221 49.0263 93.9364 48.8226 94.2178C48.619 94.4993 48.4996 94.8295 48.4643 95.2085C48.4291 95.5876 48.4854 95.9376 48.633 96.2585C48.7814 96.5726 49.003 96.8322 49.298 97.0371C49.5936 97.2352 49.9479 97.3535 50.3607 97.3918C50.7736 97.4302 51.147 97.3795 51.4808 97.2399C51.8085 97.0928 52.0742 96.8786 52.2778 96.5971C52.4753 96.3082 52.5917 95.9743 52.6269 95.5953Z" fill="white"/>
<path d="M54.4733 88.3877L53.3218 88.1177L53.1262 88.1033L51.2003 87.6517C50.7569 87.5477 50.3866 87.5935 50.0894 87.7892C49.7937 87.9782 49.5885 88.3175 49.4737 88.8073C49.3945 89.1448 49.3755 89.4789 49.4166 89.8098C49.4577 90.1406 49.5461 90.4336 49.6818 90.6888L49.0812 90.8831C48.9182 90.5656 48.8206 90.2076 48.7884 89.8091C48.7496 89.409 48.7783 89.0038 48.8745 88.5935C49.0328 87.9184 49.3233 87.4385 49.7462 87.1536C50.164 86.8606 50.7137 86.794 51.3954 86.9539L54.6316 87.7127L54.4733 88.3877ZM54.1016 90.1962C54.0101 90.5866 53.8673 90.9127 53.6733 91.1744C53.4742 91.428 53.2443 91.6045 52.9836 91.7039C52.7162 91.8018 52.4337 91.8158 52.1359 91.746C51.8645 91.6824 51.6344 91.5621 51.4455 91.3851C51.2515 91.2 51.1225 90.9463 51.0584 90.6241C50.9893 90.2937 51.0129 89.8803 51.1293 89.384L51.5506 87.5872L52.0767 87.7106L51.6601 89.4875C51.5421 89.9905 51.5492 90.3622 51.6814 90.6026C51.815 90.8364 52.0142 90.9844 52.279 91.0465C52.5768 91.1163 52.8422 91.0563 53.0752 90.8666C53.3082 90.6769 53.4736 90.3736 53.5713 89.9566C53.6644 89.5595 53.655 89.1978 53.5431 88.8713C53.426 88.5366 53.211 88.2628 52.8979 88.0497L53.4215 88.005C53.7346 88.218 53.955 88.5141 54.0825 88.8931C54.2117 89.2654 54.218 89.6998 54.1016 90.1962Z" fill="white"/>
<path d="M55.2571 85.5371L50.2518 83.639L51.0906 81.4272C51.3051 80.8615 51.5819 80.4576 51.9209 80.2154C52.2623 79.9668 52.6428 79.9221 53.0623 80.0812C53.4691 80.2354 53.7246 80.5105 53.829 80.9063C53.927 81.2996 53.8796 81.7506 53.6867 82.259L53.5371 82.0496C53.7637 81.4522 54.0413 81.0558 54.3698 80.8605C54.6983 80.6652 55.0723 80.6471 55.4917 80.8062C55.9239 80.9701 56.2006 81.2567 56.3216 81.6661C56.4386 82.0667 56.3718 82.5975 56.1212 83.2586L55.2571 85.5371ZM54.9726 84.6768L55.5764 83.0847C55.7379 82.6589 55.7929 82.3126 55.7414 82.0459C55.6859 81.7704 55.5056 81.5748 55.2005 81.4591C54.8955 81.3434 54.6356 81.3576 54.4211 81.5016C54.2065 81.6456 54.0185 81.9305 53.857 82.3563L53.228 84.0152L54.9726 84.6768ZM52.7227 83.8236L53.2939 82.3173C53.4409 81.9296 53.4799 81.6063 53.4109 81.3475C53.3442 81.0823 53.1711 80.8967 52.8914 80.7906C52.6117 80.6846 52.3622 80.7099 52.1429 80.8666C51.9259 81.017 51.7439 81.286 51.5969 81.6737L51.0257 83.1801L52.7227 83.8236Z" fill="white"/>
<path d="M58.5351 78.0714C58.292 78.5273 57.9709 78.8838 57.5719 79.1409C57.1701 79.3888 56.7332 79.5218 56.2614 79.5399C55.7836 79.5547 55.3107 79.4374 54.8429 79.1879C54.369 78.9352 54.0082 78.608 53.7602 78.2061C53.5123 77.8043 53.3823 77.3691 53.3703 76.9004C53.3582 76.4318 53.4754 75.9666 53.7216 75.5047C53.9711 75.0369 54.2938 74.6774 54.6896 74.4262C55.0886 74.1691 55.5225 74.0345 55.9911 74.0225C56.4629 74.0045 56.9358 74.1218 57.4096 74.3745C57.8775 74.6239 58.2384 74.9512 58.4923 75.3562C58.7434 75.7521 58.8764 76.1889 58.8912 76.6667C58.9001 77.1413 58.7813 77.6096 58.5351 78.0714ZM57.9682 77.7692C58.1506 77.4273 58.2371 77.0844 58.2279 76.7405C58.2127 76.3935 58.1071 76.0714 57.9111 75.7743C57.7124 75.468 57.4301 75.2173 57.0642 75.0222C56.6923 74.8239 56.3268 74.7292 55.9678 74.738C55.6119 74.7409 55.2886 74.8342 54.9979 75.0182C54.7013 75.1989 54.4634 75.4573 54.2843 75.7932C54.1051 76.1291 54.0232 76.4705 54.0384 76.8176C54.0476 77.1615 54.1486 77.485 54.3414 77.788C54.5341 78.0911 54.8164 78.3418 55.1883 78.5401C55.5542 78.7352 55.9197 78.8299 56.2847 78.8243C56.6438 78.8155 56.9717 78.7207 57.2684 78.5399C57.559 78.356 57.7923 78.0991 57.9682 77.7692Z" fill="white"/>
<path d="M60.6219 70.4498C60.5506 70.7832 60.4553 71.1036 60.3358 71.4109C60.2147 71.7088 60.0633 71.9849 59.8814 72.2392C59.5137 72.7534 59.107 73.0768 58.6612 73.2093C58.2099 73.3379 57.7383 73.2262 57.2461 72.8743L55.8196 71.8542L56.2347 71.2737L57.6281 72.27C57.9599 72.5073 58.2858 72.5774 58.6059 72.4803C58.926 72.3833 59.2165 72.1523 59.4774 71.7874C59.6356 71.5662 59.774 71.3142 59.8927 71.0314C60.0058 70.7446 60.0961 70.4373 60.1634 70.1094L60.6219 70.4498ZM62.4276 71.8162L58.0733 68.7025L58.4944 68.1137L62.8487 71.2273L62.4276 71.8162Z" fill="white"/>
<path d="M64.0622 69.661L60.1677 65.9883L60.6644 65.4617L62.3854 67.0846L64.7009 64.6293L62.9799 63.0063L63.4766 62.4796L67.3711 66.1523L66.8744 66.679L65.1534 65.056L62.8379 67.5114L64.5589 69.1343L64.0622 69.661Z" fill="white"/>
<path d="M68.5635 64.9997L65.2228 60.8171L65.7884 60.3653L68.4419 63.6875L68.5848 58.1318L69.0868 57.7309L72.4275 61.9135L71.8618 62.3653L69.202 59.0351L69.0734 64.5925L68.5635 64.9997Z" fill="white"/>
<path d="M77.4189 58.7863L74.1729 57.6276L74.5087 57.014L78.1558 58.3498L77.4189 58.7863ZM74.0412 60.7867L71.3134 56.1809L71.9362 55.812L74.6641 60.4178L74.0412 60.7867ZM73.2553 58.4793L72.9383 57.9441L74.421 57.066L74.7379 57.6011L73.2553 58.4793ZM74.7692 57.3338L74.1382 57.589L74.6208 54.222L75.2963 53.8219L74.7692 57.3338Z" fill="white"/>
<path d="M81.4261 56.7779L79.6045 51.7443L84.1299 50.1066L85.9515 55.1402L85.2708 55.3866L83.5984 50.7653L83.8369 50.885L80.3278 52.1549L80.4344 51.9103L82.1068 56.5316L81.4261 56.7779Z" fill="white"/>
<path d="M90.2145 54.1151C89.709 54.222 89.2296 54.2052 88.7761 54.0649C88.3278 53.9165 87.9452 53.6674 87.628 53.3175C87.3095 52.9611 87.0954 52.5235 86.9857 52.0047C86.8746 51.4793 86.8933 50.9925 87.0417 50.5443C87.1901 50.096 87.4399 49.7167 87.7912 49.4062C88.1424 49.0957 88.5741 48.8863 89.0861 48.7781C89.6049 48.6684 90.0877 48.6845 90.5345 48.8262C90.988 48.9666 91.37 49.2124 91.6805 49.5636C91.9976 49.9134 92.2117 50.351 92.3228 50.8764C92.4324 51.3951 92.4138 51.882 92.2668 52.3368C92.125 52.7837 91.8759 53.1664 91.5194 53.4849C91.1615 53.7968 90.7266 54.0069 90.2145 54.1151ZM90.0816 53.4866C90.4607 53.4065 90.779 53.2524 91.0364 53.0242C91.2925 52.7895 91.4713 52.5015 91.5729 52.1605C91.6797 51.8113 91.6903 51.4339 91.6045 51.0282C91.5173 50.6159 91.3549 50.2751 91.1174 50.0057C90.8864 49.7349 90.6071 49.5473 90.2793 49.4429C89.9501 49.3319 89.5993 49.3157 89.2269 49.3945C88.8544 49.4732 88.5402 49.63 88.2841 49.8647C88.0267 50.0929 87.8438 50.3782 87.7356 50.7207C87.6273 51.0631 87.6168 51.4405 87.704 51.8529C87.7897 52.2586 87.9521 52.5994 88.1911 52.8754C88.4287 53.1448 88.7121 53.335 89.0413 53.446C89.369 53.5504 89.7158 53.564 90.0816 53.4866Z" fill="white"/>
<path d="M93.1539 53.3993L93.1564 52.7752C93.2044 52.7783 93.2492 52.785 93.291 52.7954C93.3389 52.7985 93.3799 52.7987 93.4137 52.7961C93.6306 52.7792 93.7971 52.6844 93.9132 52.5117C94.036 52.3385 94.1208 52.1137 94.1674 51.8373C94.2141 51.561 94.2377 51.2523 94.2384 50.9114C94.2386 50.5636 94.2354 50.2161 94.2288 49.8689L94.1721 47.9609L98.0858 47.6558L98.5018 52.9927L97.78 53.0489L97.3965 48.1289L97.5962 48.3281L94.6888 48.5547L94.8442 48.3176L94.8833 49.869C94.8989 50.3315 94.896 50.7749 94.8745 51.1993C94.8598 51.6231 94.8107 51.9986 94.7271 52.3255C94.6502 52.652 94.5275 52.9138 94.3587 53.1111C94.1895 53.3015 93.9626 53.4078 93.6779 53.43C93.5966 53.4364 93.5114 53.4362 93.4222 53.4295C93.3398 53.4223 93.2504 53.4122 93.1539 53.3993Z" fill="white"/>
<path d="M102.817 49.6174C103.488 49.6562 103.991 49.8297 104.323 50.1382C104.662 50.4469 104.819 50.8763 104.793 51.4263C104.765 51.9966 104.554 52.4255 104.16 52.713C103.772 53.0008 103.221 53.1243 102.509 53.0836L100.35 52.9708L100.604 47.6238L101.327 47.6582L101.239 49.522L102.817 49.6174ZM102.494 52.5317C102.99 52.5621 103.368 52.4814 103.629 52.2896C103.897 52.0914 104.04 51.792 104.059 51.3914C104.078 50.9908 103.967 50.6929 103.724 50.4976C103.482 50.2955 103.11 50.1792 102.608 50.1485L101.213 50.0618L101.1 52.445L102.494 52.5317Z" fill="white"/>
<path d="M107.101 53.5994C106.718 53.5363 106.348 53.4201 105.99 53.2508C105.632 53.0814 105.328 52.8623 105.076 52.5934L105.395 52.0984C105.619 52.3283 105.89 52.5212 106.209 52.6771C106.529 52.8264 106.853 52.9281 107.182 52.9824C107.511 53.0299 107.804 53.0301 108.06 52.9827C108.316 52.9354 108.524 52.8457 108.683 52.7136C108.843 52.5815 108.939 52.4182 108.971 52.2237C109.017 51.942 108.926 51.703 108.696 51.5066C108.468 51.3036 108.133 51.1655 107.69 51.0925L106.785 50.943L106.871 50.4199L107.726 50.561C107.988 50.6042 108.225 50.6089 108.437 50.575C108.649 50.5412 108.819 50.4694 108.948 50.3597C109.083 50.2511 109.165 50.1096 109.194 49.9352C109.225 49.7474 109.184 49.5754 109.072 49.4191C108.967 49.2639 108.806 49.134 108.589 49.0293C108.372 48.9246 108.119 48.8484 107.831 48.8008C107.568 48.7643 107.29 48.7597 106.996 48.787C106.703 48.8076 106.408 48.8656 106.109 48.961L106 48.3745C106.335 48.2645 106.66 48.1941 106.975 48.1635C107.298 48.1272 107.613 48.1345 107.922 48.1855C108.347 48.2418 108.717 48.3547 109.034 48.5241C109.357 48.6945 109.602 48.9037 109.767 49.1515C109.934 49.3926 109.993 49.6608 109.945 49.9559C109.901 50.2174 109.783 50.4322 109.59 50.6001C109.397 50.768 109.158 50.8835 108.872 50.9465C108.586 51.0095 108.272 51.0128 107.93 50.9563L107.991 50.7702C108.595 50.8698 109.045 51.0647 109.342 51.3548C109.645 51.646 109.763 51.9928 109.697 52.3952C109.645 52.7104 109.495 52.9716 109.247 53.1787C109.001 53.3791 108.688 53.517 108.311 53.5925C107.94 53.6691 107.536 53.6714 107.101 53.5994Z" fill="white"/>
<path d="M113.357 54.9894C112.862 54.8421 112.448 54.5985 112.117 54.2587C111.794 53.9143 111.576 53.5128 111.465 53.054C111.355 52.5887 111.376 52.102 111.527 51.5938C111.68 51.0791 111.929 50.6602 112.273 50.3372C112.618 50.0141 113.018 49.8 113.475 49.6948C113.932 49.5897 114.411 49.6117 114.913 49.761C115.421 49.9122 115.838 50.1568 116.163 50.4946C116.494 50.8344 116.712 51.2327 116.818 51.6895C116.929 52.1483 116.909 52.635 116.755 53.1497C116.604 53.6579 116.355 54.0768 116.009 54.4063C115.671 54.7313 115.27 54.9487 114.804 55.0585C114.341 55.1617 113.859 55.1387 113.357 54.9894ZM113.54 54.3737C113.911 54.4842 114.265 54.5007 114.6 54.4231C114.937 54.3391 115.231 54.1714 115.484 53.9202C115.744 53.6644 115.933 53.3378 116.052 52.9403C116.172 52.5364 116.192 52.1594 116.112 51.8093C116.038 51.4611 115.882 51.1629 115.644 50.9147C115.408 50.66 115.107 50.4784 114.742 50.3698C114.377 50.2612 114.026 50.249 113.689 50.3331C113.354 50.4107 113.057 50.5741 112.799 50.8234C112.54 51.0727 112.351 51.3993 112.231 51.8032C112.112 52.2006 112.092 52.5777 112.171 52.9343C112.251 53.2844 112.409 53.5868 112.645 53.8415C112.884 54.0897 113.182 54.2671 113.54 54.3737Z" fill="white"/>
<path d="M116.964 56.1027L119.133 51.2087L121.295 52.1672C121.848 52.4123 122.237 52.7107 122.46 53.0625C122.689 53.417 122.713 53.7993 122.531 54.2095C122.355 54.6072 122.067 54.8474 121.666 54.9299C121.268 55.0063 120.82 54.9343 120.323 54.7139L120.54 54.576C121.124 54.8349 121.505 55.1337 121.682 55.4724C121.859 55.8111 121.857 56.1855 121.675 56.5957C121.487 57.0183 121.186 57.2788 120.771 57.3772C120.364 57.4722 119.838 57.3765 119.192 57.0901L116.964 56.1027ZM117.838 55.8658L119.395 56.5557C119.811 56.7402 120.154 56.814 120.423 56.7771C120.701 56.7368 120.907 56.5675 121.039 56.2692C121.171 55.9709 121.171 55.7107 121.039 55.4886C120.907 55.2665 120.633 55.0632 120.216 54.8787L118.594 54.1599L117.838 55.8658ZM118.813 53.6658L120.286 54.3185C120.665 54.4865 120.986 54.5431 121.248 54.4883C121.516 54.4363 121.711 54.2735 121.832 54.0001C121.954 53.7266 121.942 53.4761 121.797 53.2485C121.659 53.0236 121.401 52.8272 121.021 52.6592L119.549 52.0065L118.813 53.6658Z" fill="white"/>
<path d="M125.23 60.3156L125.843 59.3038L125.917 59.1222L126.942 57.4301C127.177 57.0405 127.248 56.6741 127.154 56.331C127.066 55.9914 126.806 55.6914 126.376 55.4309C126.079 55.2513 125.767 55.13 125.44 55.0669C125.113 55.0039 124.807 54.9974 124.522 55.0476L124.523 54.4163C124.875 54.3594 125.246 54.3772 125.635 54.4697C126.027 54.5563 126.404 54.7088 126.764 54.9271C127.358 55.2861 127.724 55.7108 127.865 56.201C128.014 56.6888 127.908 57.2323 127.545 57.8312L125.824 60.6747L125.23 60.3156ZM123.625 59.4034C123.282 59.1957 123.016 58.9592 122.827 58.6938C122.648 58.4261 122.551 58.1529 122.537 57.8743C122.526 57.5898 122.6 57.3167 122.759 57.055C122.903 56.8166 123.088 56.6349 123.315 56.5099C123.551 56.3826 123.832 56.3383 124.158 56.3769C124.494 56.4132 124.88 56.5633 125.316 56.8274L126.895 57.7831L126.615 58.2454L125.054 57.3002C124.612 57.0326 124.256 56.9246 123.986 56.976C123.723 57.0309 123.521 57.1746 123.38 57.4072C123.221 57.6689 123.196 57.9398 123.305 58.2201C123.413 58.5003 123.651 58.7513 124.017 58.9731C124.366 59.1843 124.713 59.2871 125.058 59.2815C125.412 59.2735 125.739 59.1536 126.039 58.9216L125.919 59.4335C125.62 59.6655 125.27 59.7836 124.871 59.7878C124.477 59.7956 124.061 59.6674 123.625 59.4034Z" fill="white"/>
<path d="M128.422 62.5299L131.439 58.65L131.465 58.9156L129.718 57.5575L130.106 57.0584L133.881 59.9937L133.493 60.4927L131.747 59.1346L132.01 59.0943L128.994 62.9742L128.422 62.5299Z" fill="white"/>
<path d="M133.055 66.6004C132.658 66.2092 132.39 65.7833 132.252 65.3228C132.119 64.8576 132.111 64.3962 132.228 63.9387C132.349 63.4764 132.596 63.0564 132.969 62.6788C133.341 62.3012 133.75 62.0459 134.196 61.9129C134.647 61.7847 135.094 61.7766 135.537 61.8888C135.989 62.0009 136.392 62.2311 136.746 62.5794C137.104 62.9326 137.34 63.3274 137.454 63.764C137.577 64.2005 137.573 64.6452 137.442 65.0979C137.315 65.5459 137.064 65.9611 136.687 66.3435C136.663 66.3677 136.634 66.392 136.601 66.4162C136.577 66.4404 136.55 66.4671 136.522 66.4961L133.203 63.2251L133.583 62.8402L136.625 65.8393L136.272 65.7913C136.544 65.5154 136.724 65.2113 136.813 64.879C136.911 64.5466 136.919 64.2197 136.835 63.8982C136.751 63.5768 136.576 63.2849 136.309 63.0224C136.048 62.7647 135.753 62.5938 135.426 62.5097C135.098 62.4255 134.769 62.4351 134.438 62.5384C134.107 62.6417 133.804 62.8338 133.527 63.1146L133.448 63.1945C133.162 63.4849 132.972 63.8035 132.878 64.1503C132.794 64.497 132.804 64.8454 132.907 65.1956C133.02 65.5456 133.225 65.8662 133.52 66.1573C133.752 66.3863 134.008 66.5575 134.288 66.6709C134.572 66.789 134.871 66.8349 135.183 66.8086L135.144 67.4289C134.774 67.4653 134.409 67.4102 134.047 67.2638C133.69 67.1222 133.36 66.9011 133.055 66.6004Z" fill="white"/>
<path d="M135.134 68.5177L135.656 68.1752C135.68 68.2169 135.699 68.258 135.713 68.2985C135.737 68.3402 135.76 68.3745 135.781 68.4013C135.914 68.5727 136.085 68.6592 136.294 68.6606C136.506 68.6674 136.74 68.614 136.996 68.5003C137.252 68.3865 137.523 68.2358 137.807 68.0482C138.097 67.8563 138.385 67.6617 138.671 67.4645L140.231 66.3637L142.646 69.4582L138.426 72.7519L137.981 72.1812L141.871 69.1447L141.815 69.4212L140.021 67.1224L140.304 67.121L139.032 68.0103C138.656 68.2786 138.284 68.521 137.919 68.7374C137.557 68.9592 137.217 69.1256 136.898 69.2364C136.584 69.3526 136.297 69.3948 136.04 69.3631C135.788 69.3271 135.574 69.1966 135.398 68.9716C135.348 68.9073 135.301 68.8361 135.257 68.7581C135.218 68.6854 135.177 68.6053 135.134 68.5177Z" fill="white"/>
<path d="M141.202 77.2162L142.864 76.2404L142.8 76.4322L141.881 74.8671C141.533 74.275 141.39 73.7362 141.452 73.2507C141.513 72.7651 141.791 72.3778 142.283 72.0887C142.811 71.7789 143.308 71.7271 143.776 71.9332C144.25 72.1359 144.662 72.5362 145.013 73.1341L146.154 75.0773L141.538 77.7877L141.202 77.2162ZM139.22 73.8398L141.74 74.0631L142.122 74.7137L139.618 74.5168L139.22 73.8398ZM143.049 76.132L145.458 74.7174L145.341 74.9402L144.478 73.4718C144.227 73.0439 143.949 72.7579 143.644 72.614C143.342 72.4759 143.006 72.5152 142.637 72.7321C141.951 73.1348 141.865 73.7728 142.378 74.6462L143.266 76.1586L143.049 76.132Z" fill="white"/>
<path d="M150.439 82.065L149.184 81.0459L149.336 80.9863L149.11 82.5867L148.626 82.525L148.869 80.9398L148.957 81.0256L147.505 81.5958L147.334 81.1592L148.789 80.5985L148.779 80.712L147.526 79.7252L147.835 79.3409L149.094 80.3694L148.942 80.429L149.164 78.8191L149.652 78.8904L149.406 80.4661L149.321 80.3898L150.769 79.8101L150.941 80.2467L149.489 80.8169L149.495 80.6938L150.752 81.6902L150.439 82.065Z" fill="white"/>
<defs>
<linearGradient id="paint0_linear_15_502" x1="38.5923" y1="38.5922" x2="180.85" y2="67.9843" gradientUnits="userSpaceOnUse">
<stop stop-color="#2FC7F7"/>
<stop offset="1" stop-color="#409EEF"/>
</linearGradient>
</defs>
</svg>
