<svg width="665" height="475" viewBox="0 0 665 475" fill="none" xmlns="http://www.w3.org/2000/svg">
<path d="M524.799 134.377C517.949 63.4639 457.586 8 384.108 8C327.36 8 278.447 41.0985 255.949 88.8297C240.87 83.4055 224.599 80.4401 207.624 80.4401C129.552 80.4401 66.263 143.048 66.263 220.283C66.263 223.937 66.448 227.545 66.7254 231.129C57.166 228.768 47.354 227.576 37.5056 227.578C-29.049 227.578 -83 280.95 -83 346.791C-83 412.63 -29.05 466.003 37.5056 466.003H487.108C580.85 466.003 656.842 390.821 656.842 298.086C656.842 218.171 600.395 151.343 524.799 134.377Z" stroke="white" stroke-width="16"/>
</svg>
