<svg width="344" height="599" viewBox="0 0 344 599" fill="none" xmlns="http://www.w3.org/2000/svg">
<path d="M779.49 168.738C770.794 78.5443 694.174 8 600.908 8C528.877 8 466.79 50.0978 438.233 110.807C419.093 103.908 398.44 100.136 376.894 100.136C277.795 100.136 197.462 179.767 197.462 278.002C197.462 282.649 197.697 287.239 198.049 291.797C185.915 288.795 173.46 287.278 160.96 287.281C76.4809 287.281 8 355.164 8 438.907C8 522.647 76.4797 590.532 160.96 590.532H731.648C850.636 590.532 947.093 494.909 947.093 376.96C947.093 275.315 875.444 190.318 779.49 168.738Z" stroke="white" stroke-width="16"/>
</svg>
