<svg width="653" height="410" viewBox="0 0 653 410" fill="none" xmlns="http://www.w3.org/2000/svg">
<path d="M531.312 116.716C525.414 55.7132 473.442 8 410.177 8C361.318 8 319.204 36.4732 299.833 77.5343C286.85 72.8681 272.841 70.3171 258.226 70.3171C191.006 70.3171 136.515 124.176 136.515 190.618C136.515 193.761 136.674 196.865 136.913 199.948C128.682 197.918 120.234 196.892 111.755 196.894C54.4516 196.894 8 242.807 8 299.447C8 356.086 54.4507 402 111.755 402H498.86C579.572 402 645 337.325 645 257.549C645 188.801 596.399 131.312 531.312 116.716Z" stroke="white" stroke-width="16"/>
</svg>
