<svg width="601" height="412" viewBox="0 0 601 412" fill="none" xmlns="http://www.w3.org/2000/svg">
<path d="M478.777 117.268C472.851 55.9554 420.634 8 357.072 8C307.982 8 265.669 36.6177 246.208 77.8873C233.163 73.1974 219.088 70.6334 204.405 70.6334C136.868 70.6334 82.12 124.765 82.12 191.545C82.12 194.704 82.28 197.824 82.52 200.922C74.2506 198.882 65.7627 197.851 57.2434 197.853C-0.329679 197.853 -47 243.999 -47 300.927C-47 357.853 -0.330528 404 57.2434 404H446.172C527.264 404 593 338.996 593 258.816C593 189.719 544.171 131.938 478.777 117.268Z" stroke="white" stroke-width="16"/>
</svg>
