<svg width="255" height="441" viewBox="0 0 255 441" fill="none" xmlns="http://www.w3.org/2000/svg">
<path d="M581.425 119.478C574.962 52.4361 518.013 0 448.691 0C395.152 0 349.005 31.2916 327.779 76.4172C313.553 71.289 298.203 68.4856 282.188 68.4856C208.531 68.4856 148.821 127.675 148.821 200.695C148.821 204.148 148.996 207.56 149.258 210.948C140.239 208.717 130.982 207.589 121.69 207.591C58.8998 207.591 8 258.05 8 320.296C8 382.541 58.8989 433 121.69 433H545.866C634.306 433 706 361.923 706 274.25C706 198.697 652.745 135.518 581.425 119.478Z" stroke="white" stroke-width="16"/>
</svg>
