<svg width="228" height="84" viewBox="0 0 228 84" fill="none" xmlns="http://www.w3.org/2000/svg">
<path d="M186.665 39.6302C184.572 17.9539 166.133 1 143.688 1C126.353 1 111.411 11.1174 104.539 25.7076C99.9327 24.0496 94.9625 23.1431 89.7773 23.1431C65.9283 23.1431 46.5955 42.2807 46.5955 65.8897C46.5955 67.0064 46.652 68.1095 46.7367 69.2049C43.8166 68.4834 40.8193 68.119 37.8109 68.1196C17.4805 68.1196 1 84.4341 1 104.56C1 124.685 17.4802 141 37.8109 141H175.151C203.787 141 227 118.019 227 89.6722C227 65.244 209.757 44.8164 186.665 39.6302Z" stroke="#2FC7F7" stroke-width="2"/>
</svg>
