<svg width="381" height="243" viewBox="0 0 381 243" fill="none" xmlns="http://www.w3.org/2000/svg">
<path d="M73.0171 70.3718C76.3902 35.3736 106.113 8 142.293 8C170.235 8 194.32 24.3354 205.398 47.8926C212.823 45.2155 220.835 43.752 229.193 43.752C267.635 43.752 298.799 74.6513 298.799 112.77C298.799 114.573 298.707 116.354 298.571 118.123C303.278 116.958 308.109 116.369 312.959 116.37C345.73 116.37 372.295 142.712 372.295 175.207C372.295 207.701 345.73 234.042 312.959 234.042H91.576C45.4179 234.042 8 196.937 8 151.169C8 111.728 35.7943 78.7455 73.0171 70.3718Z" stroke="white" stroke-width="16"/>
</svg>
