<svg width="369" height="234" viewBox="0 0 369 234" fill="none" xmlns="http://www.w3.org/2000/svg">
<path d="M297.999 68.1528C294.73 34.3997 265.929 8 230.871 8C203.795 8 180.457 23.7542 169.722 46.4733C162.528 43.8915 154.764 42.48 146.665 42.48C109.415 42.48 79.2178 72.28 79.2178 109.043C79.2178 110.781 79.306 112.499 79.4384 114.205C74.8773 113.081 70.1957 112.514 65.4967 112.515C33.7416 112.515 8 137.919 8 169.258C8 200.596 33.7411 226 65.4967 226H280.015C324.742 226 361 190.215 361 146.075C361 108.037 334.067 76.2285 297.999 68.1528Z" stroke="white" stroke-width="16"/>
</svg>
