<svg width="239" height="239" viewBox="0 0 239 239" fill="none" xmlns="http://www.w3.org/2000/svg">
<circle opacity="0.4" cx="119.058" cy="119.058" r="96.7514" transform="rotate(-15.4743 119.058 119.058)" fill="white"/>
<circle opacity="0.6" cx="119.058" cy="119.058" r="84.0755" transform="rotate(-15.4743 119.058 119.058)" fill="white"/>
<circle cx="119" cy="118.973" r="73.1376" transform="rotate(-15.4743 119 118.973)" fill="url(#paint0_linear_140_133)"/>
<path d="M95.3 117.8C108.2 112.28 116.78 108.65 121.1 106.91C133.31 101.9 135.86 101 137.54 101C137.9 101 138.74 101.09 139.25 101.51C139.59 101.81 139.805 102.228 139.85 102.68C139.94 103.01 140 103.79 139.94 104.39C139.28 111.23 136.4 127.85 134.93 135.53C134.33 138.8 133.1 139.88 131.93 139.97C129.35 140.21 127.43 138.32 124.91 136.73C121.01 134.21 118.82 132.65 115.04 130.22C110.69 127.4 113.54 125.87 116 123.32C116.66 122.66 127.97 112.58 128.18 111.65C128.21 111.56 128.24 111.11 127.97 110.9C127.73 110.66 127.34 110.75 127.07 110.81C126.68 110.9 120.47 114.92 108.41 122.9C106.67 124.1 105.05 124.64 103.61 124.61C102.05 124.61 99.02 123.74 96.77 123.02C93.98 122.12 91.79 121.67 91.97 120.17C92.09 119.39 93.17 118.61 95.27 117.77L95.3 117.8Z" fill="white"/>
<path d="M170.538 105.028L171.393 105.283C171.082 105.807 170.88 106.368 170.786 106.965C170.704 107.57 170.71 108.158 170.805 108.73C170.91 109.301 171.089 109.807 171.343 110.248C171.598 110.7 171.915 111.043 172.294 111.279C172.683 111.512 173.113 111.586 173.585 111.499C174.185 111.389 174.603 111.064 174.839 110.522C175.077 109.99 175.119 109.302 174.964 108.456L174.558 106.243L175.443 106.08L175.838 108.234C175.972 108.962 176.228 109.5 176.607 109.847C176.997 110.203 177.468 110.33 178.019 110.229C178.412 110.157 178.725 109.977 178.957 109.691C179.201 109.412 179.359 109.058 179.433 108.627C179.518 108.205 179.521 107.747 179.44 107.254C179.37 106.758 179.212 106.258 178.967 105.754C178.734 105.258 178.42 104.792 178.024 104.356L178.86 103.837C179.335 104.38 179.702 104.969 179.961 105.603C180.229 106.234 180.396 106.865 180.46 107.493C180.525 108.122 180.484 108.704 180.338 109.239C180.194 109.784 179.957 110.239 179.628 110.605C179.298 110.97 178.868 111.202 178.337 111.299C177.845 111.389 177.389 111.341 176.968 111.153C176.549 110.976 176.195 110.68 175.906 110.266C175.628 109.859 175.433 109.351 175.321 108.741L175.656 108.74C175.783 109.429 175.784 110.044 175.659 110.585C175.537 111.136 175.299 111.587 174.946 111.936C174.605 112.293 174.169 112.521 173.638 112.618C173.136 112.71 172.665 112.664 172.225 112.481C171.796 112.305 171.408 112.021 171.062 111.627C170.727 111.241 170.45 110.788 170.233 110.269C170.026 109.748 169.893 109.188 169.834 108.588C169.774 107.989 169.796 107.385 169.898 106.777C170.01 106.167 170.223 105.584 170.538 105.028Z" fill="white"/>
<path d="M170.974 120.432L172.714 120.416L172.998 120.369L175.908 120.342C176.578 120.336 177.091 120.141 177.448 119.758C177.805 119.384 177.979 118.828 177.973 118.088C177.968 117.578 177.878 117.093 177.704 116.635C177.53 116.177 177.301 115.789 177.018 115.471L177.809 114.984C178.153 115.381 178.417 115.858 178.602 116.417C178.797 116.975 178.898 117.564 178.903 118.184C178.913 119.204 178.665 119.991 178.16 120.546C177.665 121.111 176.903 121.398 175.873 121.407L170.983 121.452L170.974 120.432ZM170.874 117.718C170.868 117.128 170.959 116.612 171.145 116.171C171.341 115.739 171.608 115.406 171.945 115.173C172.293 114.94 172.692 114.821 173.142 114.817C173.552 114.813 173.923 114.905 174.255 115.092C174.597 115.289 174.869 115.606 175.074 116.044C175.288 116.492 175.398 117.091 175.405 117.841L175.43 120.556L174.635 120.564L174.61 117.879C174.603 117.119 174.464 116.59 174.191 116.292C173.918 116.005 173.582 115.863 173.182 115.867C172.732 115.871 172.373 116.049 172.107 116.402C171.84 116.754 171.709 117.245 171.715 117.875C171.721 118.475 171.861 118.989 172.135 119.417C172.419 119.854 172.822 120.17 173.343 120.365L172.611 120.612C172.089 120.417 171.671 120.071 171.356 119.574C171.041 119.087 170.881 118.468 170.874 117.718Z" fill="white"/>
<path d="M169.896 129.782L174.253 127.188L174.634 128.144L169.7 131.026L169.896 129.782ZM170.794 124.077L178.574 125.302L178.408 126.354L170.629 125.129L170.794 124.077ZM174.147 125.349L175.051 125.491L174.657 127.995L173.753 127.853L174.147 125.349ZM174.027 128.139L174.329 127.185L177.694 130.888L177.514 132.029L174.027 128.139Z" fill="white"/>
<path d="M167.956 136.138C168.174 135.494 168.518 134.961 168.987 134.539C169.467 134.121 170.039 133.849 170.703 133.726C171.374 133.615 172.117 133.697 172.932 133.972C173.746 134.247 174.382 134.631 174.838 135.123C175.304 135.618 175.596 136.176 175.714 136.796C175.831 137.417 175.78 138.054 175.559 138.707C175.319 139.418 174.943 139.998 174.432 140.448C173.927 140.911 173.332 141.206 172.645 141.333C171.968 141.463 171.255 141.401 170.506 141.148C169.748 140.892 169.14 140.507 168.68 139.993C168.221 139.479 167.926 138.883 167.796 138.206C167.663 137.538 167.716 136.849 167.956 136.138ZM166.572 131.379L176.789 134.832L176.463 135.799L174.217 135.04L172.759 134.436L171.205 134.069L166.231 132.388L166.572 131.379ZM168.875 136.37C168.696 136.9 168.654 137.414 168.75 137.911C168.856 138.411 169.085 138.858 169.437 139.251C169.799 139.648 170.269 139.944 170.847 140.139C171.425 140.335 171.974 140.383 172.493 140.284C173.012 140.185 173.465 139.968 173.852 139.635C174.239 139.301 174.522 138.869 174.702 138.339C174.881 137.808 174.92 137.288 174.817 136.779C174.712 136.278 174.483 135.832 174.13 135.438C173.775 135.054 173.308 134.764 172.73 134.569C172.152 134.374 171.6 134.319 171.075 134.405C170.556 134.505 170.103 134.721 169.716 135.054C169.335 135.401 169.055 135.839 168.875 136.37Z" fill="white"/>
<path d="M162.291 147.863L169.1 151.819L168.565 152.74L161.756 148.784L162.291 147.863ZM168.893 146.65C168.387 147.502 167.818 148.044 167.185 148.278C166.552 148.511 165.885 148.425 165.185 148.018C164.458 147.596 164.041 147.03 163.933 146.32C163.825 145.609 164.037 144.807 164.568 143.913L166.148 141.222L172.958 145.178L172.423 146.099L170.049 144.72L168.893 146.65ZM165.306 144.255C164.926 144.89 164.772 145.442 164.846 145.913C164.923 146.397 165.217 146.788 165.727 147.084C166.237 147.38 166.702 147.436 167.121 147.252C167.549 147.073 167.956 146.661 168.341 146.018L169.362 144.321L166.326 142.558L165.306 144.255Z" fill="white"/>
<path d="M159.061 152.049L164.603 156.692L164.211 156.716L166.302 154.221L167.015 154.818L162.496 160.211L161.784 159.613L163.874 157.118L163.919 157.508L158.377 152.865L159.061 152.049Z" fill="white"/>
<path d="M149.977 160.815L155.05 166.838L154.235 167.524L149.162 161.501L149.977 160.815ZM156.601 161.903C155.837 162.533 155.118 162.851 154.443 162.857C153.768 162.864 153.17 162.557 152.648 161.937C152.107 161.295 151.906 160.621 152.044 159.916C152.182 159.211 152.653 158.528 153.454 157.865L155.85 155.867L160.924 161.89L160.109 162.576L158.341 160.476L156.601 161.903ZM154.034 158.437C153.461 158.906 153.13 159.374 153.04 159.842C152.95 160.324 153.094 160.79 153.474 161.242C153.854 161.693 154.273 161.903 154.73 161.871C155.193 161.846 155.715 161.597 156.295 161.121L157.829 159.868L155.567 157.184L154.034 158.437Z" fill="white"/>
<path d="M146.98 162.921L150.706 169.859L149.768 170.363L146.808 164.852L145.13 172.854L144.297 173.301L140.571 166.364L141.509 165.86L144.476 171.383L146.134 163.376L146.98 162.921ZM148.101 172.552C148.682 172.24 149.231 172.132 149.749 172.229C150.262 172.339 150.677 172.667 150.992 173.213L150.318 173.575C150.12 173.227 149.848 173.016 149.501 172.941C149.154 172.866 148.792 172.93 148.413 173.134C148.034 173.337 147.78 173.604 147.651 173.935C147.513 174.27 147.535 174.616 147.715 174.973L147.041 175.335C146.752 174.775 146.707 174.249 146.908 173.755C147.113 173.27 147.51 172.869 148.101 172.552Z" fill="white"/>
<path d="M130.628 169.525C131.386 169.344 132.107 169.346 132.789 169.532C133.464 169.73 134.041 170.08 134.521 170.582C135.004 171.093 135.336 171.728 135.518 172.487C135.702 173.255 135.694 173.972 135.494 174.637C135.293 175.302 134.936 175.871 134.422 176.344C133.899 176.819 133.257 177.147 132.499 177.329C131.847 177.485 131.229 177.5 130.643 177.373C130.057 177.246 129.553 176.966 129.13 176.533L129.778 175.822C130.133 176.148 130.528 176.357 130.961 176.448C131.394 176.54 131.84 176.531 132.297 176.421C132.841 176.291 133.302 176.047 133.679 175.689C134.058 175.341 134.321 174.913 134.466 174.405C134.612 173.897 134.612 173.341 134.468 172.739C134.323 172.136 134.071 171.641 133.711 171.254C133.351 170.867 132.922 170.6 132.423 170.452C131.927 170.314 131.407 170.31 130.863 170.441C130.406 170.55 130.005 170.744 129.66 171.022C129.315 171.3 129.057 171.66 128.886 172.103L127.987 171.763C128.169 171.195 128.492 170.716 128.954 170.328C129.418 169.949 129.976 169.682 130.628 169.525Z" fill="white"/>
<path d="M125.587 170.618L126.079 178.478L119.013 178.92L118.521 171.06L119.584 170.994L120.035 178.21L119.748 177.942L125.227 177.599L124.976 177.9L124.524 170.684L125.587 170.618Z" fill="white"/>
<path d="M112.141 170.407C112.816 170.487 113.408 170.714 113.917 171.087C114.426 171.47 114.809 171.974 115.066 172.599C115.313 173.233 115.385 173.976 115.283 174.83C115.181 175.684 114.936 176.385 114.549 176.933C114.16 177.491 113.674 177.891 113.091 178.134C112.508 178.376 111.874 178.457 111.189 178.375C110.444 178.286 109.799 178.038 109.254 177.63C108.697 177.231 108.286 176.709 108.021 176.063C107.754 175.427 107.668 174.717 107.762 173.932C107.856 173.138 108.108 172.463 108.517 171.907C108.926 171.352 109.448 170.941 110.084 170.675C110.71 170.407 111.396 170.318 112.141 170.407ZM116.513 168.074L115.234 178.782L114.221 178.662L114.502 176.308L114.793 174.757L114.833 173.16L115.456 167.947L116.513 168.074ZM112.103 171.354C111.547 171.287 111.036 171.352 110.569 171.548C110.101 171.754 109.711 172.07 109.398 172.496C109.085 172.932 108.891 173.453 108.819 174.058C108.747 174.664 108.812 175.211 109.016 175.698C109.22 176.186 109.524 176.585 109.931 176.895C110.337 177.206 110.818 177.394 111.374 177.46C111.93 177.527 112.447 177.458 112.924 177.253C113.392 177.047 113.782 176.731 114.095 176.305C114.398 175.878 114.585 175.361 114.658 174.756C114.73 174.15 114.67 173.599 114.477 173.103C114.274 172.615 113.969 172.216 113.563 171.906C113.146 171.604 112.659 171.42 112.103 171.354Z" fill="white"/>
<path d="M102.147 168.153L101.645 169.819L101.606 170.105L100.765 172.891C100.572 173.533 100.605 174.081 100.865 174.535C101.115 174.987 101.595 175.319 102.303 175.533C102.791 175.68 103.28 175.739 103.77 175.709C104.259 175.679 104.698 175.576 105.085 175.4L105.315 176.3C104.834 176.51 104.299 176.62 103.711 176.631C103.12 176.651 102.528 176.572 101.934 176.393C100.958 176.098 100.28 175.628 99.9003 174.98C99.5085 174.34 99.4613 173.527 99.7587 172.541L101.171 167.859L102.147 168.153ZM104.768 168.866C105.333 169.036 105.799 169.276 106.165 169.585C106.519 169.9 106.757 170.254 106.879 170.646C106.998 171.047 106.993 171.464 106.863 171.894C106.745 172.287 106.547 172.614 106.27 172.875C105.98 173.143 105.596 173.309 105.117 173.373C104.625 173.444 104.02 173.372 103.302 173.155L100.703 172.371L100.932 171.61L103.503 172.385C104.231 172.605 104.777 172.628 105.142 172.457C105.498 172.282 105.733 172.003 105.849 171.62C105.979 171.189 105.915 170.794 105.658 170.434C105.401 170.075 104.971 169.804 104.368 169.622C103.793 169.449 103.261 169.429 102.772 169.564C102.27 169.705 101.848 169.995 101.506 170.436L101.488 169.663C101.83 169.222 102.285 168.926 102.853 168.774C103.412 168.618 104.05 168.649 104.768 168.866Z" fill="white"/>
<path d="M98.7842 166.906L95.3337 173.985L92.2056 172.461C91.4055 172.071 90.8508 171.611 90.5413 171.082C90.2229 170.549 90.2082 169.985 90.4974 169.392C90.7778 168.817 91.2149 168.479 91.8087 168.379C92.3982 168.288 93.0525 168.418 93.7716 168.768L93.4448 168.96C92.5998 168.548 92.0563 168.088 91.8141 167.581C91.5719 167.073 91.5954 166.523 91.8846 165.93C92.1826 165.318 92.6395 164.952 93.2554 164.829C93.858 164.711 94.6267 164.88 95.5616 165.336L98.7842 166.906ZM97.4858 167.208L95.234 166.111C94.6317 165.817 94.1318 165.69 93.7341 165.73C93.3231 165.774 93.0125 166.012 92.8022 166.444C92.5919 166.875 92.5778 167.258 92.7601 167.591C92.9424 167.925 93.3346 168.238 93.9369 168.532L96.283 169.676L97.4858 167.208ZM95.9347 170.39L93.8043 169.352C93.256 169.085 92.7876 168.984 92.3992 169.051C92.0018 169.113 91.7067 169.342 91.5139 169.737C91.3211 170.133 91.3248 170.502 91.5251 170.844C91.7163 171.182 92.0861 171.485 92.6345 171.752L94.7648 172.79L95.9347 170.39Z" fill="white"/>
<path d="M88.6809 161.062C89.2959 161.508 89.7503 162.048 90.0441 162.682C90.3239 163.318 90.4292 163.981 90.3599 164.672C90.2846 165.372 90.0179 166.037 89.5596 166.668C89.0954 167.307 88.5454 167.767 87.9097 168.047C87.2739 168.326 86.6134 168.428 85.9281 168.35C85.2429 168.273 84.5887 168.008 83.9656 167.555C83.3345 167.097 82.876 166.554 82.5903 165.927C82.2965 165.293 82.1883 164.634 82.2657 163.948C82.335 163.257 82.6018 162.592 83.066 161.953C83.5243 161.322 84.0743 160.862 84.7159 160.574C85.3435 160.288 86.007 160.183 86.7062 160.258C87.3996 160.342 88.0578 160.609 88.6809 161.062ZM88.1256 161.827C87.6644 161.492 87.1823 161.296 86.6794 161.24C86.1706 161.192 85.6799 161.28 85.2073 161.506C84.7208 161.733 84.2983 162.094 83.9399 162.587C83.5756 163.089 83.3635 163.602 83.3036 164.127C83.2356 164.646 83.3062 165.136 83.5153 165.597C83.7186 166.066 84.0468 166.465 84.4999 166.794C84.9531 167.123 85.434 167.312 85.9428 167.36C86.4458 167.416 86.9376 167.335 87.4182 167.115C87.8989 166.896 88.3214 166.535 88.6857 166.033C89.0441 165.54 89.2562 165.026 89.322 164.493C89.3819 163.968 89.3102 163.471 89.1069 163.003C88.8978 162.542 88.5707 162.15 88.1256 161.827Z" fill="white"/>
<path d="M77.9041 156.01C78.368 156.201 78.8067 156.423 79.2201 156.677C79.6195 156.93 79.9793 157.222 80.2997 157.552C80.9474 158.22 81.3086 158.893 81.3834 159.573C81.4509 160.26 81.1653 160.914 80.5267 161.534L78.6754 163.331L77.944 162.577L79.7523 160.822C80.1829 160.404 80.37 159.951 80.3136 159.462C80.2573 158.973 79.9993 158.492 79.5396 158.018C79.261 157.731 78.9326 157.465 78.5544 157.219C78.169 156.98 77.7478 156.768 77.2909 156.585L77.9041 156.01ZM80.3563 153.756L74.7054 159.24L73.9637 158.476L79.6146 152.991L80.3563 153.756Z" fill="white"/>
<path d="M78.0228 151.105L71.5187 155.545L70.9183 154.665L73.7925 152.703L70.9933 148.603L68.1191 150.565L67.5186 149.685L74.0227 145.245L74.6232 146.125L71.749 148.087L74.5482 152.187L77.4224 150.225L78.0228 151.105Z" fill="white"/>
<path d="M72.9134 143.281L65.6871 146.411L65.2638 145.434L71.0035 142.948L63.1712 140.603L62.7956 139.735L70.0218 136.605L70.4451 137.583L64.6916 140.075L72.5318 142.4L72.9134 143.281Z" fill="white"/>
<path d="M67.7171 127.722L64.6333 131.747L63.925 131L67.4375 126.493L67.7171 127.722ZM68.9986 133.353L61.3199 135.101L61.0836 134.062L68.7623 132.315L68.9986 133.353ZM65.413 133.415L64.5208 133.618L63.9583 131.147L64.8505 130.943L65.413 133.415ZM64.4901 130.779L64.5635 131.778L60.0651 129.587L59.8088 128.46L64.4901 130.779Z" fill="white"/>
<path d="M67.0058 121.231L59.1315 121.125L59.1785 117.645C59.1905 116.755 59.3699 116.057 59.7168 115.552C60.0638 115.037 60.5672 114.783 61.2272 114.792C61.8671 114.801 62.3588 115.053 62.7021 115.547C63.0355 116.042 63.1967 116.689 63.1859 117.489L62.8738 117.275C62.8865 116.335 63.0708 115.647 63.4267 115.212C63.7826 114.777 64.2906 114.564 64.9505 114.573C65.6304 114.582 66.157 114.839 66.5302 115.344C66.8936 115.839 67.0682 116.606 67.0542 117.646L67.0058 121.231ZM66.1798 120.185L66.2136 117.68C66.2227 117.01 66.1245 116.504 65.9191 116.161C65.7039 115.808 65.3563 115.628 64.8763 115.622C64.3964 115.615 64.0443 115.765 63.8201 116.072C63.596 116.379 63.4794 116.868 63.4703 117.538L63.4351 120.148L66.1798 120.185ZM62.6401 120.137L62.6721 117.767C62.6804 117.157 62.5717 116.691 62.346 116.367C62.1205 116.034 61.7878 115.865 61.3478 115.859C60.9078 115.853 60.5756 116.014 60.3512 116.341C60.1269 116.658 60.0106 117.121 60.0024 117.731L59.9704 120.101L62.6401 120.137Z" fill="white"/>
<path d="M68.4417 106.982L59.1954 104.633L58.2869 108.21L57.3564 107.973L59.4468 99.7445L60.3773 99.9809L59.4687 103.557L68.715 105.906L68.4417 106.982Z" fill="white"/>
<path d="M71.5109 98.1044C71.1841 98.8565 70.7413 99.4491 70.1824 99.8823C69.6143 100.311 68.9854 100.567 68.2956 100.649C67.5966 100.727 66.8895 100.61 66.1741 100.3C65.4587 99.9887 64.8916 99.5625 64.4728 99.0207C64.058 98.4698 63.8102 97.8606 63.7295 97.1931C63.6436 96.5125 63.7461 95.8375 64.037 95.1679C64.3319 94.4892 64.7488 93.9562 65.2878 93.5689C65.8216 93.1684 66.4339 92.9384 67.1249 92.8788C67.8067 92.8153 68.5099 92.9409 69.2345 93.2557C69.2803 93.2756 69.3288 93.3021 69.3798 93.3352C69.4257 93.3551 69.4761 93.377 69.5312 93.4009L66.7995 99.6882L66.0704 99.3714L68.5749 93.6069L68.6964 94.1177C68.1736 93.8905 67.6607 93.8039 67.1575 93.8579C66.6491 93.8987 66.1966 94.0619 65.7999 94.3475C65.4033 94.6331 65.0954 95.0281 64.8762 95.5325C64.661 96.0278 64.5824 96.5224 64.6403 97.0165C64.6983 97.5105 64.8858 97.9572 65.2029 98.3566C65.52 98.7561 65.9445 99.0714 66.4764 99.3025L66.6278 99.3682C67.1781 99.6073 67.716 99.6993 68.2415 99.6441C68.7618 99.5758 69.2349 99.3779 69.6606 99.0505C70.0812 98.7098 70.413 98.2598 70.6561 97.7003C70.8474 97.2601 70.9467 96.8181 70.9542 96.3743C70.9656 95.9213 70.8706 95.4875 70.6692 95.0729L71.5411 94.7976C71.7868 95.2859 71.905 95.817 71.8956 96.3908C71.8901 96.9554 71.7619 97.5266 71.5109 98.1044Z" fill="white"/>
<path d="M73.9084 93.1799L64.3046 87.5547L64.8428 86.6357L74.4467 92.2609L73.9084 93.1799Z" fill="white"/>
<path d="M77.7786 87.4823C77.2848 88.137 76.7155 88.6094 76.0707 88.8996C75.4179 89.1838 74.7466 89.2849 74.0568 89.203C73.3591 89.1151 72.6989 88.8362 72.0762 88.3665C71.4535 87.8968 71.002 87.3495 70.7217 86.7247C70.4475 86.0919 70.3493 85.4417 70.4271 84.7739C70.503 84.0921 70.7608 83.4598 71.2004 82.877C71.646 82.2863 72.1762 81.8657 72.7909 81.6154C73.4037 81.3511 74.0529 81.2709 74.7386 81.3749C75.4163 81.4727 76.0705 81.7596 76.7012 82.2353C76.7411 82.2654 76.782 82.3025 76.8239 82.3467C76.8638 82.3768 76.9077 82.4099 76.9556 82.446L72.8274 87.9186L72.1927 87.4398L75.9777 82.4223L75.9762 82.9473C75.5212 82.604 75.0427 82.3997 74.5409 82.3343C74.0371 82.2549 73.559 82.3076 73.1065 82.4923C72.654 82.6771 72.2621 82.989 71.9309 83.4281C71.6057 83.8592 71.4134 84.3216 71.354 84.8155C71.2946 85.3093 71.3723 85.7875 71.587 86.2501C71.8018 86.7127 72.1406 87.1187 72.6037 87.4679L72.7354 87.5673C73.2144 87.9286 73.7158 88.144 74.2396 88.2135C74.7614 88.2689 75.2677 88.1874 75.7583 87.9687C76.2469 87.7361 76.6749 87.3763 77.0423 86.8893C77.3313 86.5061 77.5315 86.0996 77.6427 85.6699C77.7599 85.2323 77.7691 84.7883 77.6704 84.338L78.5826 84.2745C78.7071 84.8069 78.6976 85.3509 78.554 85.9065C78.4165 86.4541 78.158 86.9794 77.7786 87.4823Z" fill="white"/>
<path d="M85.4316 83.3168C84.9058 83.8086 84.3301 84.2033 83.7047 84.5007C83.0792 84.7982 82.4836 84.9446 81.9177 84.9398L81.7588 83.9794C82.2544 83.9676 82.7643 83.8467 83.2885 83.6166C83.8268 83.387 84.3187 83.0638 84.7642 82.6471C85.4945 81.964 85.8708 81.2903 85.893 80.626C85.922 79.969 85.6018 79.2826 84.9324 78.5669L83.5901 77.1318L82.7774 76.0434L81.7786 75.1292L80.1494 73.3874L80.8943 72.6906L85.6179 77.7408C86.5469 78.7341 86.982 79.6896 86.923 80.6074C86.8782 81.5256 86.381 82.4288 85.4316 83.3168ZM83.0452 81.0509C82.4975 81.5632 81.8952 81.9074 81.2384 82.0836C80.5748 82.2524 79.9171 82.2446 79.2653 82.0601C78.6208 81.8688 78.0424 81.4992 77.53 80.9515C77.0177 80.4037 76.691 79.8056 76.55 79.1571C76.4094 78.4944 76.4489 77.8413 76.6685 77.1977C76.8881 76.5541 77.2718 75.9762 77.8195 75.4639C78.3307 74.9857 78.8899 74.6612 79.497 74.4905C80.1041 74.3198 80.7228 74.3298 81.3532 74.5207C81.9835 74.7116 82.5788 75.1064 83.1389 75.7053C83.6991 76.3042 84.0533 76.9244 84.2017 77.5661C84.35 78.2079 84.3222 78.8295 84.1181 79.4312C83.9141 80.0328 83.5565 80.5727 83.0452 81.0509ZM82.4764 80.289C82.9 79.8928 83.1941 79.4533 83.3588 78.9707C83.5167 78.4807 83.5437 77.9899 83.4399 77.4982C83.3292 76.9993 83.0792 76.5417 82.6898 76.1254C82.3004 75.7091 81.8639 75.4327 81.3803 75.2963C80.8967 75.1599 80.4086 75.1577 79.916 75.2898C79.4166 75.4146 78.9551 75.6752 78.5315 76.0714C78.1152 76.4607 77.8245 76.9038 77.6593 77.4006C77.4946 77.8833 77.4642 78.3704 77.568 78.8621C77.6792 79.3469 77.9294 79.7975 78.3188 80.2137C78.7082 80.63 79.1444 80.9135 79.6276 81.064C80.1112 81.2005 80.6027 81.2063 81.1021 81.0815C81.602 80.9425 82.0601 80.6783 82.4764 80.289Z" fill="white"/>
<path d="M88.0756 77.1874L83.5869 70.7169L84.425 70.1355L85.6476 71.8979L85.3476 71.6497C85.1863 71.0313 85.231 70.4465 85.4816 69.8954C85.7264 69.3361 86.1652 68.837 86.7979 68.3981L87.3878 69.2485C87.3549 69.2713 87.3221 69.2941 87.2892 69.3169C87.2506 69.3315 87.2149 69.3502 87.1821 69.373C86.5001 69.8461 86.1114 70.4261 86.0159 71.113C85.9147 71.7917 86.1292 72.5132 86.6593 73.2773L88.9506 76.5803L88.0756 77.1874Z" fill="white"/>
<path d="M97.0342 71.8562L96.2462 70.3049L96.077 70.0712L94.759 67.4767C94.4556 66.8794 94.053 66.5063 93.5511 66.3574C93.0582 66.204 92.4819 66.2949 91.8221 66.63C91.3674 66.861 90.9735 67.1565 90.6404 67.5164C90.3072 67.8763 90.0614 68.2535 89.9029 68.6481L89.1149 68.1567C89.3176 67.6724 89.6278 67.2232 90.0455 66.8091C90.4588 66.386 90.9417 66.0341 91.4945 65.7533C92.4039 65.2914 93.2193 65.1632 93.9406 65.3688C94.6663 65.561 95.2624 66.1162 95.7289 67.0345L97.9436 71.3943L97.0342 71.8562ZM94.6476 73.1527C94.1216 73.4199 93.6194 73.5684 93.141 73.5983C92.6671 73.6148 92.2506 73.5235 91.8915 73.3245C91.528 73.1166 91.2443 72.8121 91.0405 72.4109C90.8548 72.0454 90.7719 71.6725 90.7919 71.2922C90.8162 70.8985 90.9792 70.5128 91.2809 70.1352C91.587 69.7442 92.0744 69.3789 92.7431 69.0392L95.1637 67.8096L95.5237 68.5184L93.1299 69.7344C92.4523 70.0786 92.0409 70.439 91.8957 70.8156C91.7594 71.1876 91.7819 71.552 91.963 71.9086C92.1668 72.3098 92.4859 72.5515 92.9202 72.6337C93.3546 72.7159 93.8526 72.6144 94.4142 72.3291C94.9492 72.0573 95.3472 71.7037 95.6083 71.2682C95.8738 70.8193 95.9779 70.3178 95.9207 69.7636L96.4676 70.3102C96.5248 70.8644 96.4007 71.3929 96.0953 71.8957C95.7988 72.394 95.3162 72.813 94.6476 73.1527Z" fill="white"/>
<path d="M108.052 59.9924C108.674 59.8407 109.243 59.8307 109.759 59.9622C110.282 60.0817 110.729 60.3535 111.1 60.7776C111.481 61.1994 111.761 61.7795 111.941 62.5179L113.025 66.9626L111.991 67.2149L110.932 62.8722C110.735 62.0658 110.393 61.506 109.904 61.1927C109.424 60.8674 108.833 60.79 108.134 60.9606C107.609 61.0885 107.18 61.3116 106.846 61.6298C106.519 61.936 106.3 62.324 106.188 62.7939C106.083 63.2516 106.102 63.772 106.244 64.3549L107.225 68.377L106.191 68.6294L105.132 64.2866C104.935 63.4803 104.592 62.9205 104.104 62.6072C103.614 62.2842 103.019 62.208 102.319 62.3786C101.804 62.5042 101.38 62.7261 101.046 63.0443C100.709 63.3528 100.485 63.742 100.373 64.2119C100.269 64.6697 100.288 65.19 100.43 65.7729L101.411 69.795L100.376 70.0474L98.5102 62.3966L99.5012 62.1549L100.006 64.2243L99.7567 63.8991C99.8548 63.2884 100.123 62.7649 100.562 62.3284C101.009 61.8799 101.587 61.5691 102.296 61.3962C103.044 61.2137 103.727 61.248 104.344 61.4989C104.958 61.7402 105.435 62.2159 105.772 62.9261L105.325 62.8653C105.397 62.189 105.669 61.5927 106.14 61.0764C106.618 60.548 107.256 60.1867 108.052 59.9924Z" fill="white"/>
<path d="M124.735 67.2609L121.73 63.1772L122.644 62.7051L125.993 67.335L124.735 67.2609ZM118.97 66.9214L119.433 59.0601L120.496 59.1227L120.033 66.984L118.97 66.9214ZM119.91 63.4607L119.964 62.5473L122.494 62.6963L122.441 63.6097L119.91 63.4607ZM122.699 63.3094L121.719 63.1014L125.078 59.3925L126.231 59.4604L122.699 63.3094Z" fill="white"/>
<path d="M132.194 68.69L132.579 66.993L132.598 66.7052L133.241 63.8672C133.389 63.2137 133.318 62.6695 133.027 62.2344C132.745 61.8015 132.244 61.5032 131.522 61.3396C131.025 61.2269 130.533 61.2025 130.047 61.2666C129.561 61.3307 129.131 61.4639 128.757 61.6662L128.464 60.7848C128.93 60.5416 129.455 60.3942 130.041 60.3425C130.629 60.281 131.226 60.3188 131.83 60.4558C132.825 60.6814 133.534 61.1036 133.958 61.7226C134.394 62.334 134.497 63.142 134.27 64.1465L133.189 68.9155L132.194 68.69ZM129.529 68.1629C128.954 68.0324 128.473 67.8259 128.086 67.5433C127.711 67.2532 127.448 66.9169 127.299 66.5345C127.152 66.1423 127.129 65.7268 127.228 65.2879C127.319 64.8881 127.493 64.5482 127.751 64.2684C128.022 63.981 128.393 63.7885 128.867 63.6907C129.352 63.5854 129.96 63.6156 130.692 63.7814L133.34 64.3817L133.164 65.157L130.545 64.5634C129.804 64.3954 129.257 64.4099 128.905 64.6068C128.563 64.806 128.347 65.1007 128.259 65.4908C128.159 65.9297 128.25 66.3194 128.532 66.6601C128.814 67.0008 129.262 67.2408 129.876 67.3801C130.461 67.5128 130.993 67.495 131.472 67.3267C131.963 67.151 132.364 66.8316 132.674 66.3687L132.745 67.1386C132.435 67.6015 132.002 67.9288 131.446 68.1206C130.9 68.3146 130.261 68.3287 129.529 68.1629Z" fill="white"/>
<path d="M135.674 69.6427L138.707 62.375L139.69 62.7851L138.349 65.9967L142.932 67.9087L144.272 64.6971L145.255 65.1072L142.222 72.3749L141.239 71.9647L142.579 68.7531L137.997 66.8412L136.657 70.0528L135.674 69.6427Z" fill="white"/>
<path d="M148.406 76.1135L149.339 74.645L149.454 74.3804L151.015 71.9245C151.375 71.359 151.491 70.8225 151.363 70.3148C151.244 69.8125 150.872 69.3629 150.247 68.966C149.817 68.6924 149.362 68.5039 148.883 68.4007C148.403 68.2974 147.953 68.2781 147.533 68.3427L147.555 67.4143C148.075 67.3419 148.619 67.38 149.188 67.5285C149.763 67.6685 150.312 67.9048 150.835 68.2374C151.696 68.7846 152.221 69.4209 152.412 70.1463C152.616 70.8687 152.442 71.6645 151.89 72.5338L149.267 76.6607L148.406 76.1135ZM146.074 74.7204C145.576 74.4039 145.193 74.0475 144.923 73.6511C144.668 73.2517 144.534 72.8468 144.522 72.4365C144.516 72.0177 144.634 71.6184 144.875 71.2387C145.095 70.8926 145.373 70.6313 145.711 70.4548C146.062 70.2751 146.477 70.2189 146.956 70.2861C147.448 70.3503 148.011 70.5835 148.644 70.9858L150.935 72.4422L150.508 73.1132L148.242 71.6729C147.601 71.2652 147.081 71.0948 146.683 71.1618C146.294 71.2341 145.992 71.439 145.777 71.7766C145.536 72.1564 145.49 72.5541 145.641 72.9697C145.791 73.3853 146.133 73.7621 146.664 74.1C147.171 74.4219 147.678 74.5842 148.185 74.587C148.707 74.5867 149.192 74.4208 149.639 74.0892L149.448 74.8383C149 75.1698 148.482 75.3323 147.894 75.3257C147.314 75.3245 146.707 75.1227 146.074 74.7204Z" fill="white"/>
<path d="M150.282 77.1806L150.953 76.554C150.998 76.6085 151.036 76.6633 151.067 76.7185C151.112 76.7729 151.153 76.817 151.19 76.8506C151.427 77.0659 151.697 77.1486 151.999 77.0988C152.308 77.0557 152.634 76.9198 152.977 76.691C153.32 76.4623 153.675 76.1764 154.041 75.8333C154.413 75.4828 154.782 75.1289 155.148 74.7717L157.134 72.7868L161.408 76.6711L156.111 82.4986L155.323 81.7823L160.206 76.4099L160.194 76.8246L157.019 73.9391L157.43 73.8664L155.807 75.4729C155.328 75.9559 154.85 76.3999 154.374 76.8049C153.905 77.2167 153.453 77.5426 153.019 77.7828C152.592 78.0297 152.187 78.1622 151.806 78.1804C151.431 78.1912 151.089 78.0554 150.778 77.7729C150.689 77.6922 150.603 77.6007 150.52 77.4985C150.445 77.403 150.366 77.297 150.282 77.1806Z" fill="white"/>
<path d="M160.252 87.502C159.75 86.8537 159.443 86.1804 159.332 85.482C159.229 84.7775 159.308 84.1032 159.568 83.4591C159.836 82.8089 160.278 82.245 160.895 81.7673C161.511 81.2897 162.158 80.9977 162.834 80.8912C163.517 80.7926 164.17 80.8684 164.794 81.1188C165.432 81.3709 165.975 81.7856 166.422 82.3627C166.875 82.9477 167.141 83.5697 167.222 84.2285C167.316 84.8891 167.223 85.5366 166.943 86.1711C166.67 86.7994 166.222 87.3554 165.597 87.8391C165.558 87.8698 165.511 87.8995 165.458 87.9283C165.418 87.9589 165.375 87.9926 165.327 88.0294L161.13 82.6098L161.758 82.123L165.607 87.0919L165.101 86.9527C165.551 86.6037 165.874 86.1957 166.069 85.7286C166.278 85.2633 166.352 84.7881 166.293 84.3029C166.233 83.8178 166.035 83.3578 165.698 82.923C165.368 82.4961 164.972 82.1892 164.511 82.0023C164.05 81.8154 163.568 81.7649 163.065 81.8507C162.563 81.9365 162.082 82.157 161.623 82.5121L161.493 82.6132C161.019 82.9806 160.679 83.4079 160.475 83.8951C160.284 84.3841 160.23 84.894 160.312 85.4248C160.409 85.9574 160.644 86.4648 161.017 86.9471C161.311 87.3266 161.651 87.6263 162.036 87.8464C162.428 88.0743 162.854 88.1997 163.314 88.2226L163.136 89.1195C162.59 89.0999 162.067 88.948 161.569 88.6637C161.076 88.3873 160.637 88.0001 160.252 87.502Z" fill="white"/>
<path d="M176.624 96.3428L174.669 94.9896L174.885 94.885L174.734 97.258L174.017 97.222L174.194 94.8695L174.334 94.9853L172.268 95.9854L171.967 95.3644L174.04 94.3778L174.037 94.5455L172.088 93.2393L172.499 92.6407L174.46 94.0075L174.244 94.112L174.389 91.7256L175.113 91.7751L174.929 94.1141L174.796 94.0117L176.855 92.9981L177.155 93.6192L175.09 94.6193L175.085 94.4381L177.041 95.7578L176.624 96.3428Z" fill="white"/>
<defs>
<linearGradient id="paint0_linear_140_133" x1="45.8624" y1="45.8352" x2="215.134" y2="80.8086" gradientUnits="userSpaceOnUse">
<stop stop-color="#2FC7F7"/>
<stop offset="1" stop-color="#409EEF"/>
</linearGradient>
</defs>
</svg>
