<svg width="17" height="13" viewBox="0 0 17 13" fill="none" xmlns="http://www.w3.org/2000/svg">
<path d="M2.10002 5.6C6.40002 3.76 9.26002 2.55 10.7 1.97C14.77 0.3 15.62 0 16.18 0C16.3 0 16.58 0.0300001 16.75 0.17C16.8635 0.270128 16.9349 0.409431 16.95 0.56C16.98 0.67 17 0.93 16.98 1.13C16.76 3.41 15.8 8.95 15.31 11.51C15.11 12.6 14.7 12.96 14.31 12.99C13.45 13.07 12.81 12.44 11.97 11.91C10.67 11.07 9.94002 10.55 8.68002 9.74C7.23002 8.8 8.18002 8.29 9.00002 7.44C9.22002 7.22 12.99 3.86 13.06 3.55C13.07 3.52 13.08 3.37 12.99 3.3C12.91 3.22 12.78 3.25 12.69 3.27C12.56 3.3 10.49 4.64 6.47002 7.3C5.89002 7.7 5.35002 7.88 4.87002 7.87C4.35002 7.87 3.34002 7.58 2.59002 7.34C1.66002 7.04 0.930023 6.89 0.990023 6.39C1.03002 6.13 1.39002 5.87 2.09002 5.59L2.10002 5.6Z" fill="url(#paint0_linear_235_149)"/>
<defs>
<linearGradient id="paint0_linear_235_149" x1="0.986572" y1="0" x2="19.1208" y2="4.61289" gradientUnits="userSpaceOnUse">
<stop stop-color="#2FC7F7"/>
<stop offset="1" stop-color="#409EEF"/>
</linearGradient>
</defs>
</svg>
