<svg width="239" height="239" viewBox="0 0 239 239" fill="none" xmlns="http://www.w3.org/2000/svg">
<circle opacity="0.4" cx="119.058" cy="119.058" r="96.7514" transform="rotate(-15.4743 119.058 119.058)" fill="white"/>
<circle opacity="0.6" cx="119.058" cy="119.058" r="84.0755" transform="rotate(-15.4743 119.058 119.058)" fill="white"/>
<circle cx="119" cy="118.973" r="73.1376" transform="rotate(-15.4743 119 118.973)" fill="url(#paint0_linear_67_1225)"/>
<path d="M180.21 108.882C180.453 110.331 180.162 111.551 179.339 112.543C178.52 113.539 177.29 114.174 175.648 114.449C174.006 114.725 172.633 114.525 171.53 113.851C170.428 113.182 169.756 112.123 169.513 110.674C169.269 109.216 169.558 107.988 170.381 106.991C171.204 105.995 172.437 105.359 174.079 105.084C175.721 104.809 177.092 105.011 178.191 105.69C179.295 106.374 179.968 107.438 180.21 108.882ZM179.035 109.079C178.861 108.041 178.348 107.28 177.495 106.797C176.643 106.314 175.577 106.179 174.298 106.393C173.019 106.608 172.052 107.078 171.398 107.804C170.749 108.533 170.512 109.425 170.688 110.477C170.863 111.52 171.378 112.278 172.234 112.751C173.089 113.224 174.154 113.353 175.428 113.14C176.712 112.925 177.677 112.455 178.322 111.731C178.972 111.006 179.209 110.122 179.035 109.079Z" fill="white"/>
<path d="M170.514 117.037L178.25 117.2L178.225 118.377L177.005 118.351L177.002 118.466C177.898 118.897 178.334 119.681 178.31 120.82C178.291 121.686 178.029 122.348 177.521 122.806C177.018 123.265 176.308 123.484 175.389 123.465L170.38 123.359L170.406 122.125L175.114 122.224C175.808 122.239 176.325 122.099 176.666 121.805C177.012 121.515 177.192 121.062 177.205 120.445C177.218 119.823 177.032 119.324 176.648 118.947C176.268 118.575 175.741 118.382 175.066 118.368L170.488 118.271L170.514 117.037Z" fill="white"/>
<path d="M170.061 125.473L180.769 126.955L180.6 128.178L169.892 126.696L170.061 125.473Z" fill="white"/>
<path d="M169.481 129.046L177.052 130.645L176.797 131.853L169.226 130.254L169.481 129.046ZM178.582 132.223C178.453 132.024 178.413 131.808 178.462 131.574C178.512 131.34 178.635 131.158 178.834 131.029C179.037 130.9 179.253 130.86 179.483 130.909C179.712 130.957 179.892 131.081 180.021 131.279C180.155 131.479 180.197 131.696 180.148 131.93C180.098 132.164 179.972 132.345 179.769 132.473C179.57 132.602 179.356 132.643 179.127 132.594C178.897 132.546 178.716 132.422 178.582 132.223Z" fill="white"/>
<path d="M168.798 132.362L176.137 134.812L175.764 135.929L174.607 135.542L174.571 135.651C175.298 136.328 175.481 137.207 175.121 138.287C174.847 139.108 174.399 139.663 173.779 139.95C173.163 140.239 172.419 140.238 171.547 139.947L166.795 138.36L167.186 137.189L171.652 138.68C172.31 138.9 172.846 138.92 173.259 138.74C173.676 138.566 173.981 138.186 174.177 137.601C174.374 137.011 174.345 136.479 174.089 136.005C173.837 135.537 173.39 135.197 172.75 134.983L168.407 133.533L168.798 132.362Z" fill="white"/>
<path d="M170.552 146.116C170.839 145.57 170.89 145.024 170.705 144.479C170.521 143.934 170.137 143.481 169.553 143.121L167.574 146.898C168.187 147.203 168.765 147.284 169.309 147.143C169.854 147.001 170.268 146.659 170.552 146.116ZM165.372 145.703L164.799 146.797C164.292 146.321 164.004 145.741 163.936 145.056C163.865 144.377 164.026 143.664 164.416 142.918C164.914 141.968 165.626 141.383 166.553 141.16C167.484 140.94 168.492 141.115 169.577 141.683C170.658 142.25 171.374 142.981 171.725 143.878C172.076 144.775 172.005 145.694 171.512 146.635C171.028 147.559 170.34 148.125 169.447 148.333C168.555 148.541 167.575 148.365 166.507 147.805L166.087 147.585L168.669 142.658L168.618 142.631C167.924 142.306 167.286 142.215 166.703 142.358C166.118 142.505 165.674 142.869 165.37 143.45C164.905 144.335 164.906 145.087 165.372 145.703Z" fill="white"/>
<path d="M156.665 154.143L161.74 158.524L164.216 155.655L159.141 151.274L159.947 150.34L165.805 155.396L161.715 160.134L155.858 155.078L156.665 154.143Z" fill="white"/>
<path d="M150.679 160.85C150.706 159.894 151.141 159.062 151.982 158.353C152.824 157.644 153.72 157.356 154.67 157.488C155.619 157.627 156.493 158.17 157.291 159.118C158.093 160.069 158.48 161.023 158.452 161.978C158.425 162.934 157.989 163.767 157.143 164.479C156.298 165.192 155.402 165.48 154.456 165.345C153.51 165.209 152.636 164.666 151.834 163.714C151.036 162.767 150.651 161.812 150.679 160.85ZM154.48 158.689C153.853 158.561 153.259 158.732 152.699 159.204C152.139 159.676 151.869 160.231 151.889 160.872C151.912 161.515 152.22 162.189 152.812 162.891C153.403 163.594 154.013 164.01 154.641 164.138C155.271 164.27 155.866 164.1 156.426 163.629C156.986 163.157 157.255 162.599 157.232 161.955C157.212 161.315 156.906 160.644 156.314 159.941C155.722 159.238 155.111 158.821 154.48 158.689Z" fill="white"/>
<path d="M144.1 165.16L146.971 170.049L149.503 168.563L148.038 165.586C147.58 164.645 147.384 163.892 147.451 163.325L147.393 163.226L144.1 165.16ZM146.632 160.102L147.635 159.513L149.194 162.169L148.637 162.496C148.496 162.784 148.467 163.151 148.55 163.595C148.636 164.044 148.805 164.52 149.055 165.022L150.979 168.895L146.43 171.566L143.035 165.785L141.971 166.41L140.412 163.754L141.414 163.166L142.45 164.93L147.668 161.866L146.632 160.102Z" fill="white"/>
<path d="M135.561 168.843L137.512 174.167L140.268 173.158L139.359 169.967C139.077 168.959 139.019 168.183 139.187 167.638L139.147 167.53L135.561 168.843ZM138.958 164.32L140.049 163.92L141.108 166.811L140.502 167.034C140.311 167.292 140.217 167.647 140.22 168.1C140.224 168.557 140.304 169.055 140.461 169.594L141.662 173.748L136.708 175.563L134.402 169.268L133.243 169.692L132.184 166.801L133.276 166.401L133.979 168.322L139.661 166.241L138.958 164.32Z" fill="white"/>
<path d="M129.368 176.311C129.976 176.2 130.437 175.903 130.753 175.422C131.068 174.941 131.188 174.36 131.111 173.678L126.918 174.447C127.055 175.117 127.347 175.623 127.794 175.965C128.241 176.306 128.766 176.421 129.368 176.311ZM126.501 171.977L125.287 172.199C125.35 171.507 125.629 170.923 126.126 170.447C126.618 169.973 127.278 169.66 128.106 169.508C129.16 169.314 130.061 169.514 130.807 170.107C131.554 170.705 132.038 171.606 132.259 172.811C132.479 174.011 132.344 175.026 131.854 175.855C131.364 176.684 130.596 177.195 129.551 177.387C128.525 177.575 127.655 177.382 126.942 176.807C126.228 176.232 125.763 175.352 125.545 174.166L125.46 173.7L130.931 172.697L130.921 172.64C130.75 171.893 130.429 171.334 129.957 170.963C129.48 170.594 128.92 170.468 128.275 170.586C127.291 170.766 126.7 171.23 126.501 171.977Z" fill="white"/>
<path d="M119.242 178.335C118.256 178.348 117.465 177.995 116.867 177.275C116.264 176.556 115.955 175.588 115.939 174.373C115.923 173.162 116.207 172.187 116.791 171.447C117.375 170.712 118.157 170.338 119.138 170.326C119.688 170.318 120.178 170.424 120.606 170.644C121.035 170.868 121.358 171.184 121.573 171.593L121.688 171.592L121.639 167.845L122.874 167.829L123.008 178.15L121.831 178.165L121.814 176.873L121.7 176.875C121.457 177.323 121.119 177.677 120.687 177.936C120.25 178.195 119.768 178.328 119.242 178.335ZM119.447 171.434C118.738 171.443 118.187 171.707 117.791 172.224C117.396 172.741 117.204 173.452 117.216 174.356C117.228 175.26 117.438 175.966 117.847 176.473C118.251 176.979 118.807 177.228 119.515 177.219C120.213 177.21 120.765 176.942 121.17 176.415C121.574 175.893 121.771 175.187 121.759 174.297C121.748 173.412 121.535 172.711 121.122 172.195C120.704 171.679 120.145 171.425 119.447 171.434Z" fill="white"/>
<path d="M113.409 170.281L114.926 170.561L110.835 173.953L113.411 178.15L111.936 177.878L109.795 174.17L109.414 174.1L108.823 177.304L107.637 177.086L108.228 173.881L107.847 173.811L104.524 176.512L103.07 176.244L106.947 173.266L104.317 168.606L105.856 168.89L108.016 172.893L108.397 172.963L109.039 169.476L110.225 169.695L109.583 173.182L109.964 173.252L113.409 170.281Z" fill="white"/>
<path d="M100.74 170.842L101.055 170.962L102.305 167.666L103.459 168.104L100.716 175.339L99.5615 174.901L100.709 171.874L100.394 171.755L96.3803 173.695L94.9776 173.163L99.5859 171.011L97.5937 165.88L99.0903 166.447L100.74 170.842Z" fill="white"/>
<path d="M93.8385 164.917C93.2836 164.605 92.7345 164.508 92.1911 164.625C91.6435 164.74 91.2338 165.04 90.962 165.524L90.6141 166.143L92.4958 167.044C93.0235 167.296 93.4567 167.399 93.7953 167.354C94.1338 167.308 94.3992 167.114 94.5913 166.772C94.7811 166.434 94.8038 166.095 94.6594 165.756C94.5127 165.421 94.2391 165.141 93.8385 164.917ZM94.5695 164.084C95.2329 164.457 95.6775 164.945 95.9034 165.549C96.1228 166.155 96.0615 166.763 95.7194 167.372C95.382 167.973 94.9044 168.325 94.2867 168.428C93.669 168.531 92.953 168.384 92.1387 167.987L90.1255 167.013L89.7811 167.627C89.5468 168.044 89.4969 168.436 89.6314 168.802C89.7659 169.168 90.0835 169.492 90.5842 169.773C90.9889 170.001 91.3657 170.116 91.7148 170.12C92.0638 170.124 92.3508 170.014 92.5759 169.789L93.6649 170.4C93.2917 170.899 92.7705 171.177 92.1015 171.235C91.4282 171.29 90.7307 171.115 90.0089 170.71C89.1911 170.251 88.6703 169.697 88.4465 169.05C88.2226 168.403 88.3087 167.727 88.7047 167.022L91.2984 162.403L92.3248 162.98L91.766 163.975L91.8661 164.031C92.2846 163.794 92.7271 163.68 93.1937 163.69C93.6603 163.7 94.1189 163.831 94.5695 164.084Z" fill="white"/>
<path d="M81.7359 155.832C82.6868 155.736 83.568 156.06 84.3798 156.803C85.1915 157.546 85.593 158.398 85.5844 159.356C85.5691 160.316 85.1429 161.252 84.306 162.166C83.4658 163.084 82.5702 163.591 81.6194 163.687C80.6685 163.783 79.7854 163.458 78.9702 162.711C78.155 161.965 77.7534 161.113 77.7655 160.158C77.7776 159.202 78.2038 158.266 79.044 157.348C79.8809 156.434 80.7782 155.929 81.7359 155.832ZM84.3688 159.324C84.4152 158.685 84.1684 158.118 83.6284 157.624C83.0885 157.129 82.5024 156.933 81.8701 157.036C81.2347 157.141 80.6067 157.533 79.9863 158.211C79.3658 158.888 79.0324 159.547 78.986 160.185C78.9364 160.828 79.1816 161.396 79.7215 161.89C80.2615 162.385 80.8492 162.579 81.4847 162.473C82.1169 162.371 82.7432 161.981 83.3637 161.303C83.9841 160.626 84.3192 159.966 84.3688 159.324Z" fill="white"/>
<path d="M78.4502 153.335C78.5838 152.71 78.4203 152.107 77.9596 151.526C77.4988 150.945 76.9505 150.65 76.3146 150.641C75.6757 150.628 75.0056 150.9 74.3043 151.456C73.6368 151.985 73.2475 152.553 73.1364 153.16C73.0186 153.766 73.19 154.36 73.6508 154.941C74.1115 155.523 74.6519 155.827 75.2721 155.854C75.8855 155.881 76.526 155.63 77.1935 155.101C77.8947 154.545 78.3136 153.957 78.4502 153.335ZM75.4867 156.738L75.4153 156.648C74.9195 156.723 74.4336 156.669 73.9577 156.484C73.4817 156.3 73.052 155.965 72.6686 155.482C72.0295 154.675 71.783 153.818 71.9291 152.908C72.0685 151.998 72.5957 151.18 73.5107 150.455C74.467 149.697 75.4214 149.352 76.3739 149.422C77.3197 149.49 78.1389 149.961 78.8314 150.835C79.5537 151.746 79.8043 152.686 79.5832 153.656C79.3554 154.624 78.6302 155.592 77.4077 156.561C76.8264 157.022 76.2904 157.401 75.7996 157.699C75.3057 157.992 74.8126 158.221 74.3201 158.386C73.8209 158.549 73.355 158.616 72.9225 158.587C72.4899 158.557 72.0608 158.424 71.6351 158.188C71.2028 157.95 70.7866 157.602 70.3866 157.144L69.8769 156.559C69.639 156.289 69.3898 156.044 69.1292 155.823C68.8619 155.602 68.6616 155.449 68.5282 155.366C68.3881 155.281 68.3113 155.238 68.2978 155.237L69.1641 154.55C69.2074 154.558 69.2716 154.578 69.3566 154.608C69.438 154.641 69.6164 154.762 69.892 154.971C70.1638 155.183 70.4469 155.46 70.7413 155.8L71.2598 156.397C71.5937 156.779 71.9253 157.063 72.2548 157.248C72.5805 157.435 72.919 157.527 73.2703 157.524C73.6215 157.52 73.9697 157.455 74.3148 157.328C74.6599 157.201 75.0505 157.004 75.4867 156.738Z" fill="white"/>
<path d="M77.6706 144.627C77.7661 144.799 77.8432 144.967 77.9019 145.131L76.9801 145.645C76.9404 145.524 76.8671 145.368 76.76 145.176C76.5854 144.862 76.3632 144.66 76.0936 144.569C75.8216 144.474 75.4432 144.468 74.9586 144.552L74.4874 144.65L69.1145 150.92L68.4649 149.754L72.9935 144.8L72.9376 144.7L66.3451 145.948L65.7061 144.8L74.3502 143.445C75.2926 143.298 75.9968 143.308 76.4626 143.476C76.9327 143.642 77.3354 144.025 77.6706 144.627Z" fill="white"/>
<path d="M69.7902 133.96L70.2148 135.12L67.074 136.27L67.1135 136.378C67.6383 136.67 68.0364 137.186 68.3079 137.928C68.6206 138.781 68.6272 139.523 68.3278 140.153C68.0239 140.784 67.4742 141.245 66.6789 141.536L64.603 142.296L64.1784 141.137L66.2543 140.377C66.7441 140.197 67.0814 139.929 67.2662 139.571C67.4493 139.208 67.452 138.784 67.2743 138.299C66.9781 137.49 66.5136 136.959 65.881 136.707L62.9491 137.781L62.5246 136.621L69.7902 133.96Z" fill="white"/>
<path d="M67.7349 129.308C67.6153 128.683 67.3354 128.2 66.8953 127.861C66.4542 127.516 65.9611 127.396 65.4159 127.501L64.718 127.634L65.2432 129.653C65.3905 130.219 65.5908 130.617 65.8442 130.846C66.0976 131.075 66.4169 131.153 66.8023 131.079C67.183 131.007 67.4564 130.806 67.6224 130.477C67.7837 130.149 67.8212 129.759 67.7349 129.308ZM68.8426 129.33C68.9856 130.077 68.899 130.732 68.5827 131.294C68.2609 131.853 67.7568 132.198 67.0707 132.329C66.3939 132.458 65.8169 132.32 65.3398 131.915C64.8627 131.509 64.5133 130.867 64.2916 129.989L63.7381 127.822L63.0472 127.954C62.5772 128.044 62.2455 128.258 62.0522 128.597C61.8589 128.937 61.8162 129.388 61.9241 129.952C62.0113 130.408 62.166 130.771 62.3881 131.04C62.6101 131.309 62.8796 131.457 63.1966 131.484L63.4313 132.711C62.8098 132.747 62.2612 132.528 61.7856 132.054C61.309 131.575 60.993 130.929 60.8374 130.116C60.6611 129.195 60.7481 128.44 61.0983 127.852C61.4486 127.264 62.0209 126.893 62.8151 126.741L68.0179 125.746L68.2392 126.902L67.1182 127.116L67.1398 127.229C67.5908 127.396 67.963 127.661 68.2566 128.024C68.5501 128.387 68.7454 128.822 68.8426 129.33Z" fill="white"/>
<path d="M67.7935 117.604C67.7951 118.628 67.4735 119.449 66.8285 120.068C66.1835 120.686 65.2941 121.03 64.1601 121.098L64.1624 122.505L67.6651 122.5L67.6672 123.734L59.9296 123.747L59.9276 122.512L63.1288 122.507L63.1265 121.071C62.0783 120.963 61.2595 120.606 60.6699 119.999C60.0803 119.387 59.7847 118.593 59.7831 117.617C59.7813 116.536 60.1364 115.684 60.8484 115.06C61.5603 114.432 62.5384 114.117 63.7825 114.115C65.0219 114.113 66.001 114.425 66.7198 115.051C67.4338 115.671 67.7917 116.523 67.7935 117.604ZM65.93 119.251C66.4318 118.862 66.6821 118.314 66.6809 117.606C66.6797 116.898 66.4276 116.353 65.9246 115.971C65.4167 115.584 64.7034 115.391 63.7846 115.393C62.8659 115.394 62.1556 115.589 61.6538 115.978C61.1472 116.361 60.8945 116.907 60.8957 117.615C60.8968 118.324 61.1513 118.871 61.6592 119.258C62.1623 119.64 62.8732 119.83 63.7919 119.829C64.7107 119.827 65.4234 119.635 65.93 119.251Z" fill="white"/>
<path d="M72.2029 102.532L71.9459 103.666L69.9508 103.214L67.8211 112.608L60.275 110.897L60.548 109.693L67.0861 111.175L67.7336 108.319L61.1955 106.837L61.4684 105.633L68.0065 107.115L68.654 104.259L62.1159 102.777L62.3888 101.573L68.9269 103.055L69.1999 101.851L72.2029 102.532Z" fill="white"/>
<path d="M65.8755 95.4959C65.6254 96.0603 65.6101 96.6083 65.8298 97.1401C66.0495 97.6719 66.4625 98.0983 67.0687 98.4193L68.7961 94.5213C68.1647 94.2572 67.5821 94.2136 67.0483 94.3905C66.5146 94.5675 66.1236 94.9359 65.8755 95.4959ZM71.0718 95.5691L71.572 94.4404C72.1089 94.8824 72.4338 95.4425 72.5467 96.1206C72.6616 96.7944 72.5485 97.5163 72.2072 98.2862C71.773 99.2662 71.1007 99.8973 70.1905 100.18C69.2759 100.46 68.2587 100.352 67.1387 99.8556C66.0232 99.3612 65.2608 98.678 64.8518 97.8058C64.4427 96.9336 64.4534 96.012 64.8838 95.0407C65.3065 94.087 65.9561 93.4773 66.8328 93.2116C67.7095 92.9459 68.6991 93.0573 69.8015 93.5458L70.2346 93.7378L67.9808 98.8235L68.0333 98.8468C68.7469 99.1263 69.3897 99.1757 69.9619 98.9948C70.536 98.8096 70.9558 98.4173 71.2214 97.8179C71.6266 96.9036 71.5767 96.154 71.0718 95.5691Z" fill="white"/>
<path d="M71.2787 85.9067L69.3071 89.059L74.9909 92.614L74.3363 93.6607L67.7761 89.5576L70.4024 85.3586L71.2787 85.9067Z" fill="white"/>
<path d="M80.5879 83.503C80.7256 84.4488 80.4411 85.3434 79.7343 86.187C79.0274 87.0306 78.1949 87.4692 77.2365 87.5028C76.2776 87.5297 75.3232 87.1451 74.3732 86.3491C73.4196 85.5501 72.8739 84.6777 72.7361 83.732C72.5983 82.7863 72.8844 81.8897 73.5943 81.0425C74.3042 80.1952 75.1368 79.7566 76.092 79.7267C77.0473 79.6968 78.0017 80.0813 78.9554 80.8804C79.9053 81.6763 80.4495 82.5506 80.5879 83.503ZM77.2159 86.2869C77.8561 86.3052 78.4113 86.0337 78.8815 85.4725C79.3517 84.9113 79.5218 84.3172 79.3917 83.6901C79.258 83.0599 78.839 82.4497 78.1348 81.8597C77.4306 81.2696 76.7584 80.9655 76.1182 80.9472C75.4743 80.9259 74.9173 81.1958 74.4471 81.757C73.9769 82.3182 73.8086 82.9139 73.9423 83.5441C74.0724 84.1712 74.4895 84.7798 75.1938 85.3698C75.898 85.9599 76.572 86.2656 77.2159 86.2869Z" fill="white"/>
<path d="M93.1142 76.8816L92.1766 77.5693L90.9668 75.9197L85.9197 79.6213L81.3436 73.3818L82.3392 72.6517L86.3039 78.0577L89.3021 75.8588L85.3373 70.4528L86.3328 69.7227L90.2976 75.1287L91.2931 74.3985L93.1142 76.8816Z" fill="white"/>
<path d="M93.0152 67.0352C92.4628 67.3105 92.1016 67.7231 91.9319 68.2729C91.7621 68.8226 91.8084 69.4144 92.0709 70.0482L95.8867 68.1463C95.5687 67.5403 95.1476 67.1353 94.6236 66.9313C94.0995 66.7273 93.5634 66.762 93.0152 67.0352ZM96.972 70.4043L98.077 69.8536C98.2088 70.5364 98.102 71.1751 97.7568 71.7695C97.4157 72.3619 96.8684 72.8459 96.1146 73.2216C95.1553 73.6997 94.235 73.7574 93.3538 73.3946C92.4704 73.0275 91.7556 72.2958 91.2091 71.1994C90.6648 70.1074 90.5131 69.0949 90.754 68.1622C90.9948 67.2295 91.5906 66.5262 92.5414 66.0523C93.475 65.587 94.3643 65.5314 95.2091 65.8856C96.054 66.2398 96.7453 66.9565 97.2832 68.0357L97.4945 68.4597L92.5159 70.9411L92.5415 70.9925C92.913 71.6628 93.3768 72.1106 93.9329 72.336C94.4933 72.5593 95.0669 72.5247 95.6536 72.2323C96.5487 71.7862 96.9882 71.1769 96.972 70.4043Z" fill="white"/>
<path d="M105.271 69.5277L104.22 66.1865L100.537 67.3454L101.588 70.6867L100.41 71.0572L98.088 63.6763L99.2657 63.3058L100.226 66.3595L103.91 65.2005L102.949 62.1468L104.127 61.7763L106.449 69.1572L105.271 69.5277Z" fill="white"/>
<path d="M113.242 60.1361L113.397 61.158L110.914 61.5349L111.919 68.1631L110.699 68.3483L109.693 61.7202L107.209 62.0971L107.054 61.0752L113.242 60.1361Z" fill="white"/>
<path d="M119.994 59.7915C120.98 59.8011 121.763 60.1724 122.345 60.9054C122.931 61.6385 123.218 62.6127 123.207 63.8281C123.195 65.0387 122.889 66.0072 122.288 66.7335C121.688 67.455 120.897 67.811 119.916 67.8015C119.366 67.7961 118.879 67.6789 118.455 67.4499C118.032 67.2161 117.717 66.8924 117.51 66.4789L117.395 66.4777L117.359 70.2243L116.124 70.2123L116.225 59.8913L117.402 59.9027L117.389 61.1946L117.504 61.1957C117.757 60.7532 118.103 60.4072 118.541 60.1578C118.983 59.9085 119.468 59.7864 119.994 59.7915ZM119.633 66.6861C120.341 66.693 120.899 66.4424 121.306 65.9343C121.712 65.4263 121.92 64.72 121.929 63.8157C121.938 62.9113 121.744 62.2012 121.347 61.6853C120.955 61.1695 120.404 60.9081 119.696 60.9012C118.998 60.8944 118.44 61.1498 118.024 61.6674C117.607 62.1801 117.394 62.8815 117.386 63.7715C117.377 64.6567 117.574 65.3621 117.975 65.8876C118.382 66.4132 118.934 66.6793 119.633 66.6861Z" fill="white"/>
<path d="M127.654 67.4188C128.28 67.5317 128.831 67.4439 129.306 67.1552C129.786 66.8674 130.075 66.4503 130.173 65.904L130.299 65.2047L128.227 64.9694C127.645 64.9034 127.202 64.9475 126.897 65.1015C126.592 65.2556 126.405 65.5257 126.335 65.9119C126.267 66.2933 126.356 66.6206 126.603 66.8938C126.851 67.1622 127.202 67.3372 127.654 67.4188ZM127.235 68.4446C126.486 68.3095 125.906 67.9934 125.495 67.4962C125.09 66.9951 124.949 66.4008 125.073 65.7133C125.195 65.0352 125.531 64.5464 126.081 64.2469C126.631 63.9474 127.356 63.852 128.256 63.9608L130.477 64.2229L130.601 63.5306C130.686 63.0597 130.605 62.6731 130.358 62.3709C130.112 62.0686 129.705 61.8665 129.14 61.7646C128.684 61.6822 128.29 61.6962 127.959 61.8066C127.627 61.9171 127.392 62.1154 127.253 62.4015L126.024 62.1797C126.214 61.5867 126.615 61.1534 127.229 60.88C127.847 60.6073 128.563 60.5445 129.378 60.6915C130.301 60.858 130.974 61.2104 131.397 61.7486C131.82 62.2869 131.96 62.954 131.816 63.7498L130.876 68.9628L129.718 68.7538L129.92 67.6307L129.807 67.6103C129.489 67.9711 129.108 68.2233 128.664 68.3669C128.22 68.5104 127.744 68.5364 127.235 68.4446Z" fill="white"/>
<path d="M142.034 61.6745L139.248 67.7801C138.916 68.5071 138.873 69.2025 139.117 69.8662C139.367 70.5275 139.893 71.0409 140.694 71.4064C141.495 71.7719 142.225 71.8316 142.885 71.5854C143.55 71.3369 144.049 70.8491 144.381 70.1221L147.167 64.0165L148.342 64.5528L145.52 70.7368C145.054 71.7598 144.336 72.4396 143.367 72.776C142.405 73.11 141.349 73.0148 140.199 72.4904C139.05 71.966 138.284 71.2299 137.901 70.282C137.525 69.3318 137.57 68.3452 138.037 67.3222L140.859 61.1382L142.034 61.6745Z" fill="white"/>
<path d="M155.067 72.0379L148.357 76.8386L147.311 76.1302L149.278 68.1177L150.372 68.8583L148.551 75.323L148.646 75.3874L153.973 71.2973L155.067 72.0379Z" fill="white"/>
<path d="M151.715 79.3728L156.706 73.4601L157.65 74.2565L152.659 80.1692L151.715 79.3728ZM158.82 72.8587C158.584 72.8786 158.375 72.8114 158.192 72.6571C158.009 72.5028 157.908 72.3076 157.888 72.0716C157.871 71.8319 157.938 71.6225 158.089 71.4433C158.241 71.2642 158.434 71.1646 158.67 71.1447C158.909 71.1211 159.12 71.1864 159.303 71.3407C159.486 71.4951 159.586 71.6921 159.603 71.9317C159.623 72.1678 159.557 72.3753 159.406 72.5545C159.254 72.7337 159.059 72.8351 158.82 72.8587Z" fill="white"/>
<path d="M154.288 81.2664L160.112 76.1723L160.887 77.0583L159.969 77.8617L160.045 77.9481C160.485 77.7979 160.917 77.786 161.339 77.9126C161.765 78.036 162.148 78.2922 162.488 78.6812C162.822 79.063 163.017 79.4711 163.073 79.9055C163.131 80.3435 163.066 80.7698 162.875 81.1844L162.951 81.2708C163.403 81.1552 163.859 81.1755 164.32 81.3318C164.781 81.4881 165.185 81.7644 165.531 82.1606C166.051 82.7549 166.286 83.3572 166.235 83.9676C166.187 84.5749 165.859 85.1447 165.25 85.6771L161.225 89.1976L160.413 88.2683L164.221 84.9368C165.075 84.1902 165.144 83.4081 164.429 82.5905C164.083 82.1943 163.67 81.9835 163.19 81.9582C162.71 81.9329 162.281 82.0857 161.903 82.4165L158.159 85.6912L157.346 84.762L161.301 81.3029C161.646 81.0005 161.824 80.6478 161.834 80.2449C161.847 79.8456 161.693 79.4623 161.372 79.0949C161.041 78.7167 160.617 78.5222 160.098 78.5113C159.584 78.504 159.121 78.6799 158.71 79.039L155.101 82.1957L154.288 81.2664Z" fill="white"/>
<path d="M171.298 95.5581L171.54 93.4856L169.731 94.5068L169.299 93.6315L171.216 92.8131L169.417 91.7478L169.951 90.948L171.62 92.2052L171.644 90.1124L172.616 90.1687L172.342 92.2571L174.184 91.22L174.616 92.0953L172.673 92.9264L174.497 93.979L173.951 94.7851L172.278 93.5375L172.258 95.6207L171.298 95.5581Z" fill="white"/>
<path d="M131.91 109.064C131.647 110.049 130.667 110.488 129.621 110.208C128.575 109.928 127.947 109.055 128.211 108.072C128.474 107.09 129.442 106.693 130.488 106.973C131.534 107.253 132.162 108.126 131.91 109.064Z" fill="white"/>
<path d="M88.7513 101.93C88.924 101.285 89.4641 101.11 90.1324 101.289C90.7313 101.45 91.1347 101.877 90.962 102.522L88.1651 112.96C87.2598 116.339 88.4654 118.462 91.571 119.294C94.6766 120.127 96.8574 118.888 97.7633 115.507L100.554 105.092C100.727 104.447 101.267 104.273 101.912 104.446C102.557 104.618 102.937 105.04 102.765 105.685L99.9492 116.192C98.7294 120.744 95.6164 122.521 91.0608 121.3C86.5053 120.079 84.7027 117.058 85.9404 112.438L88.7559 101.931L88.7513 101.93Z" fill="white"/>
<path d="M120.642 110.18C120.927 109.764 121.35 109.654 121.81 109.777C121.949 109.815 122.079 109.874 122.212 109.935C122.658 110.203 122.934 110.646 122.81 111.105C122.779 111.221 122.726 111.328 122.649 111.431L112.474 125.658C111.967 126.359 111.346 126.466 110.654 126.28C109.963 126.095 109.457 125.69 109.372 124.802L107.679 107.47C107.664 107.342 107.677 107.199 107.708 107.084C107.832 106.624 108.304 106.332 108.818 106.346C108.969 106.337 109.112 106.35 109.251 106.387C109.688 106.504 110.023 106.817 110.062 107.32L111.166 121.144C111.236 122.075 111.207 123.201 111.212 124.188C111.717 123.313 112.272 122.352 112.804 121.559L120.637 110.179L120.642 110.18Z" fill="white"/>
<path d="M127.931 112.428C128.104 111.783 128.644 111.608 129.266 111.775C129.888 111.942 130.314 112.375 130.142 113.02L125.774 129.321C125.607 129.942 125.038 130.134 124.393 129.961C123.748 129.788 123.397 129.35 123.563 128.728L127.931 112.428Z" fill="white"/>
<path d="M142.528 133.686C141.998 134.381 141.509 134.548 140.772 134.35C140.034 134.152 139.696 133.767 139.589 132.874L138.45 123.229C138.228 121.396 138.016 117.765 137.961 116.222C137.629 117.736 136.79 121.969 135.921 125.211L134.209 131.603C134.042 132.225 133.525 132.406 132.88 132.233C132.235 132.06 131.901 131.651 132.067 131.03L136.33 115.122C136.552 114.294 137.292 113.926 138.166 114.16C139.179 114.431 139.564 114.928 139.681 115.871L141.069 127.626C141.227 128.877 141.407 131.241 141.35 132.283C141.85 131.333 143.077 129.519 143.958 128.351L150.944 118.938C151.558 118.117 152.18 117.915 153.193 118.186C154.044 118.414 154.501 119.104 154.279 119.931L150.016 135.841C149.849 136.463 149.309 136.638 148.71 136.477C148.112 136.317 147.708 135.889 147.875 135.268L149.581 128.899C150.456 125.634 151.834 121.592 152.345 120.054C151.514 121.409 149.507 124.394 148.466 125.791L142.528 133.686Z" fill="white"/>
<defs>
<linearGradient id="paint0_linear_67_1225" x1="45.8624" y1="45.8352" x2="215.134" y2="80.8086" gradientUnits="userSpaceOnUse">
<stop stop-color="#2FC7F7"/>
<stop offset="1" stop-color="#409EEF"/>
</linearGradient>
</defs>
</svg>
