<svg width="18" height="11" viewBox="0 0 18 11" fill="none" xmlns="http://www.w3.org/2000/svg">
<path d="M14.9369 7.16385C15.5011 7.73686 16.0961 8.27487 16.6018 8.90488C16.8249 9.18489 17.0374 9.47389 17.1989 9.7989C17.4284 10.2609 17.2202 10.7689 16.8218 10.7969L14.3462 10.7949C13.7066 10.8509 13.1977 10.5829 12.7685 10.1289C12.4263 9.7659 12.1087 9.37889 11.7782 9.00488C11.6489 8.8501 11.4989 8.71163 11.332 8.59287C10.9952 8.36487 10.702 8.43387 10.5086 8.80088C10.311 9.17388 10.2664 9.58689 10.2472 10.0019C10.2207 10.6079 10.0454 10.7679 9.45889 10.7949C8.20732 10.8569 7.01948 10.6599 5.91559 10.0029C4.94237 9.42489 4.18802 8.60787 3.53036 7.68286C2.25222 5.88182 1.27369 3.90278 0.39291 1.86775C0.194229 1.40974 0.338724 1.16373 0.826394 1.15573C1.63412 1.13956 2.44211 1.1389 3.24987 1.15373C3.57817 1.15873 3.79491 1.35374 3.92241 1.67674C4.35908 2.79376 4.8935 3.85678 5.56497 4.8428C5.74453 5.10481 5.92621 5.36681 6.18651 5.55182C6.47338 5.75582 6.69224 5.68782 6.82718 5.35581C6.91217 5.14481 6.95042 4.9178 6.96955 4.6918C7.03329 3.91478 7.04179 3.13877 6.93024 2.36475C6.86118 1.88175 6.59875 1.56874 6.13551 1.47774C5.89859 1.43074 5.93365 1.33874 6.04839 1.19873C6.24814 0.956728 6.43513 0.805725 6.80912 0.805725H9.60764C10.0486 0.895727 10.1463 1.10173 10.2069 1.56274L10.209 4.7948C10.2037 4.97281 10.294 5.50281 10.6042 5.62082C10.8507 5.70482 11.0143 5.49881 11.1631 5.33581C11.8324 4.5958 12.3105 3.72278 12.7387 2.81776C12.9278 2.41976 13.0915 2.00775 13.2487 1.59374C13.3656 1.28773 13.5494 1.13673 13.8819 1.14373L16.5753 1.14673C16.6549 1.14673 16.7357 1.14673 16.8133 1.16073C17.268 1.24073 17.3923 1.44474 17.2521 1.90575C17.0311 2.62876 16.6008 3.23077 16.1811 3.83578C15.7317 4.4818 15.2514 5.10581 14.8052 5.75582C14.3962 6.34983 14.4291 6.64884 14.9369 7.16385Z" fill="url(#paint0_linear_235_145)"/>
<defs>
<linearGradient id="paint0_linear_235_145" x1="0.306641" y1="0.805725" x2="18.5664" y2="7.21926" gradientUnits="userSpaceOnUse">
<stop stop-color="#2FC7F7"/>
<stop offset="1" stop-color="#409EEF"/>
</linearGradient>
</defs>
</svg>
