<svg width="16" height="12" viewBox="0 0 16 12" fill="none" xmlns="http://www.w3.org/2000/svg">
<path d="M15.376 1.03C14.8 0.298 13.732 0 11.696 0H4.304C2.22 0 1.136 0.318 0.56 1.097C-5.96046e-08 1.857 0 2.975 0 4.524V7.476C0 10.476 0.666 12 4.304 12H11.696C13.462 12 14.441 11.737 15.074 11.09C15.723 10.429 16 9.348 16 7.476V4.524C16 2.891 15.957 1.765 15.376 1.03ZM10.272 6.408L6.915 8.278C6.83701 8.32135 6.74867 8.34259 6.6595 8.33942C6.57032 8.33625 6.48371 8.30879 6.409 8.26C6.33172 8.20851 6.26849 8.13857 6.22502 8.05651C6.18155 7.97445 6.1592 7.88286 6.16 7.79V4.062C6.16 3.87 6.254 3.692 6.408 3.592C6.48267 3.54311 6.56929 3.51558 6.65849 3.51241C6.74768 3.50924 6.83605 3.53054 6.914 3.574L10.271 5.432C10.441 5.526 10.549 5.714 10.549 5.919C10.5504 6.01777 10.5255 6.11513 10.4768 6.20107C10.4281 6.28702 10.3574 6.35844 10.272 6.408Z" fill="#2FC7F7"/>
</svg>
